<svg width="267" height="348" viewBox="0 0 267 348" fill="none" xmlns="http://www.w3.org/2000/svg">

<style>
@keyframes a0_do { 0% { stroke-dashoffset: -656px; animation-timing-function: cubic-bezier(.5,0,.5,1); } 100% { stroke-dashoffset: -1311px; } }

.figure:hover {
    animation: 1.9s linear forwards a0_do;
}
</style>
<path class="figure" d="M132.579 169.652L132.579 115.866C125.687 135.715 114.335 151.78 95.8209 162.169C85.1279 168.239 73.0134 171.359 60.7182 171.206L60.7182 99.0076L205.217 99.0076C205.335 120.241 197.227 137.59 182.243 151.999C168.358 165.446 145.62 173.504 132.579 169.652Z" stroke="#FF6547" stroke-width="2.51645" stroke-dasharray="656" stroke-dashoffset="-656"/>
<path d="M139.467 3.10716L260.415 72.9365C264.039 75.0285 266.271 78.8947 266.271 83.0787V265.702C266.271 269.886 264.039 273.752 260.415 275.844L139.467 345.674C135.844 347.766 131.379 347.766 127.756 345.674L6.80793 275.844C3.18449 273.752 0.952354 269.886 0.952354 265.702V83.0787C0.952354 78.8947 3.18449 75.0285 6.80793 72.9365L127.756 3.10716C131.379 1.01516 135.844 1.01516 139.467 3.10716Z" stroke="#EEE7DF" stroke-width="1.25822"/>
</svg>
