<svg width="262" height="295" viewBox="0 0 262 295" fill="none" xmlns="http://www.w3.org/2000/svg">
<path d="M260.752 0.629124C260.567 37.9519 243.975 70.8948 218.687 90.8662L217.265 91.9891H219.077H260.752C260.567 129.312 243.975 162.255 218.687 182.226L217.265 183.349H219.077H260.752C260.45 244.45 216.205 293.753 161.815 293.753H0.629112L0.629123 0.629112L260.752 0.629124Z" stroke="#EEE7DF" stroke-width="1.25822"/>
<path fill-rule="evenodd" clip-rule="evenodd" d="M115.681 48.8701H121.633V92.5347C121.633 106.998 133.358 118.723 147.821 118.723H191.485V125.382H147.821C133.358 125.382 121.633 137.107 121.633 151.57V194.525H115.681V151.57C115.681 137.107 103.956 125.382 89.4932 125.382H45.8296V118.723H89.4932C103.956 118.723 115.681 106.998 115.681 92.5347V48.8701Z" fill="#9870FF"/>
</svg>
