<svg width="307" height="308" viewBox="0 0 307 308" fill="none" xmlns="http://www.w3.org/2000/svg">
<path d="M150.125 58.675V200.054" stroke="#FFD369" stroke-width="3.77467"/>
<path d="M200.11 79.3795L100.14 179.35" stroke="#FFD369" stroke-width="3.77467"/>
<path d="M220.814 129.365L79.4349 129.364" stroke="#FFD369" stroke-width="3.77467"/>
<path d="M200.109 179.349L100.139 79.3794" stroke="#FFD369" stroke-width="3.77467"/>
<path d="M139.758 3.14813C143.143 1.06524 147.352 0.840504 150.939 2.55123L170.049 11.6665C172.425 12.7994 175.088 13.1829 177.687 12.7662L198.593 9.41315C202.516 8.78387 206.491 10.1871 209.15 13.1402L223.318 28.8749C225.079 30.8306 227.393 32.2043 229.953 32.8136L250.551 37.7162C254.417 38.6363 257.552 41.454 258.879 45.1998L265.947 65.1586C266.825 67.6392 268.438 69.7939 270.57 71.3365L287.723 83.7484C290.943 86.0779 292.761 89.8809 292.553 93.8492L291.445 114.994C291.308 117.621 291.973 120.229 293.352 122.47L304.45 140.502C306.533 143.886 306.758 148.095 305.047 151.682L295.932 170.793C294.799 173.168 294.415 175.832 294.832 178.43L298.185 199.336C298.814 203.26 297.411 207.235 294.458 209.894L278.723 224.062C276.768 225.823 275.394 228.137 274.785 230.697L269.882 251.295C268.962 255.16 266.144 258.296 262.398 259.622L242.44 266.69C239.959 267.569 237.804 269.181 236.262 271.313L223.85 288.467C221.52 291.686 217.717 293.505 213.749 293.297L192.605 292.189C189.977 292.051 187.369 292.716 185.128 294.095L167.096 305.194C163.712 307.276 159.503 307.501 155.916 305.79L136.805 296.675C134.43 295.542 131.767 295.159 129.168 295.575L108.262 298.929C104.338 299.558 100.363 298.155 97.7044 295.201L83.5366 279.467C81.7758 277.511 79.4616 276.137 76.9016 275.528L56.3037 270.625C52.4379 269.705 49.3025 266.888 47.976 263.142L40.9081 243.183C40.0296 240.702 38.4173 238.548 36.2853 237.005L19.1315 224.593C15.9122 222.264 14.0936 218.461 14.3016 214.492L15.4096 193.348C15.5473 190.72 14.8823 188.113 13.5029 185.871L2.40472 167.84C0.321833 164.456 0.0970956 160.246 1.80782 156.66L10.9231 137.549C12.056 135.174 12.4395 132.51 12.0228 129.912L8.66974 109.005C8.04046 105.082 9.44372 101.107 12.3968 98.4478L28.1315 84.28C30.0871 82.5192 31.4608 80.205 32.0702 77.645L36.9728 57.0471C37.8929 53.1813 40.7105 50.0459 44.4564 48.7194L64.4152 41.6515C66.8958 40.773 69.0505 39.1608 70.5931 37.0288L83.005 19.875C85.3345 16.6556 89.1375 14.837 93.1058 15.045L114.25 16.153C116.878 16.2907 119.486 15.6257 121.727 14.2464L139.758 3.14813Z" stroke="#EEE7DF" stroke-width="1.25822"/>
</svg>
