<svg width="307" height="308" viewBox="0 0 307 308" fill="none" xmlns="http://www.w3.org/2000/svg">
<path d="M92.0491 224.557C92.0731 224.689 92.0731 224.863 92.0491 225.079C92.0371 225.295 92.0191 225.463 91.9951 225.583C91.9711 225.703 91.9471 225.817 91.9231 225.925C91.8991 226.033 91.8691 226.135 91.8331 226.231C91.5811 226.831 91.1911 227.323 90.6631 227.707C90.4591 227.851 90.2371 227.977 89.9971 228.085C89.7691 228.181 89.5231 228.271 89.2591 228.355C89.1271 228.403 88.9891 228.439 88.8451 228.463C88.7011 228.475 88.5631 228.493 88.4311 228.517C88.3711 228.529 88.3111 228.535 88.2511 228.535C88.2031 228.535 88.1491 228.541 88.0891 228.553C88.0411 228.565 87.9871 228.565 87.9271 228.553C87.8791 228.541 87.8251 228.547 87.7651 228.571C87.7171 228.583 87.6631 228.589 87.6031 228.589C87.5551 228.577 87.5011 228.571 87.4411 228.571H82.1851C81.9811 228.571 81.8071 228.565 81.6631 228.553C81.5311 228.529 81.4351 228.445 81.3751 228.301C81.3391 228.205 81.3211 228.061 81.3211 227.869C81.3331 227.665 81.3391 227.497 81.3391 227.365V216.799C81.3391 216.655 81.3331 216.505 81.3211 216.349C81.3211 216.181 81.3511 216.049 81.4111 215.953C81.4591 215.869 81.5491 215.809 81.6811 215.773C81.7051 215.761 81.7291 215.761 81.7531 215.773C81.7771 215.773 81.8011 215.767 81.8251 215.755H87.1891C87.2731 215.755 87.3571 215.755 87.4411 215.755C87.5251 215.743 87.6031 215.743 87.6751 215.755C87.7351 215.779 87.7951 215.785 87.8551 215.773C87.9151 215.761 87.9751 215.761 88.0351 215.773H88.1431C88.2151 215.797 88.2871 215.809 88.3591 215.809C88.4431 215.797 88.5271 215.803 88.6111 215.827C88.7071 215.851 88.7971 215.869 88.8811 215.881C88.9771 215.893 89.0731 215.911 89.1691 215.935C89.3971 216.019 89.6131 216.103 89.8171 216.187C90.0211 216.259 90.2071 216.355 90.3751 216.475C90.6151 216.643 90.8131 216.853 90.9691 217.105C91.1251 217.357 91.2511 217.645 91.3471 217.969C91.3711 218.053 91.3831 218.137 91.3831 218.221C91.3951 218.305 91.4131 218.395 91.4371 218.491C91.4491 218.539 91.4491 218.587 91.4371 218.635C91.4371 218.683 91.4431 218.731 91.4551 218.779C91.4671 218.815 91.4671 218.863 91.4551 218.923C91.4551 218.971 91.4491 219.007 91.4371 219.031V219.193C91.4371 219.229 91.4311 219.271 91.4191 219.319C91.4191 219.367 91.4191 219.403 91.4191 219.427C91.3951 219.511 91.3771 219.589 91.3651 219.661C91.3651 219.721 91.3531 219.781 91.3291 219.841C91.1731 220.273 90.9691 220.627 90.7171 220.903C90.6331 220.987 90.5431 221.059 90.4471 221.119C90.3511 221.179 90.2671 221.257 90.1951 221.353C90.1711 221.377 90.1411 221.413 90.1051 221.461C90.0811 221.497 90.0811 221.545 90.1051 221.605C90.1291 221.701 90.2071 221.785 90.3391 221.857C90.4711 221.917 90.5851 221.977 90.6811 222.037C91.0051 222.253 91.2691 222.505 91.4731 222.793C91.6651 223.069 91.8151 223.393 91.9231 223.765C91.9591 223.861 91.9831 223.963 91.9951 224.071C92.0071 224.167 92.0251 224.263 92.0491 224.359V224.557ZM84.2191 218.113C84.1591 218.197 84.1291 218.305 84.1291 218.437C84.1291 218.557 84.1291 218.683 84.1291 218.815V219.787C84.1291 219.871 84.1231 219.961 84.1111 220.057C84.1111 220.141 84.1171 220.213 84.1291 220.273V220.453C84.1531 220.525 84.1711 220.591 84.1831 220.651C84.1951 220.699 84.2131 220.747 84.2371 220.795C84.2851 220.855 84.3571 220.897 84.4531 220.921C84.5611 220.945 84.6751 220.963 84.7951 220.975C84.9271 220.975 85.0591 220.975 85.1911 220.975C85.3231 220.963 85.4431 220.957 85.5511 220.957C85.7311 220.957 85.9171 220.963 86.1091 220.975C86.3131 220.975 86.5111 220.975 86.7031 220.975C86.9071 220.975 87.0991 220.969 87.2791 220.957C87.4591 220.933 87.6151 220.897 87.7471 220.849C88.1071 220.729 88.3771 220.519 88.5571 220.219C88.6411 220.063 88.6951 219.859 88.7191 219.607C88.7431 219.199 88.6831 218.881 88.5391 218.653C88.3951 218.413 88.1851 218.227 87.9091 218.095C87.8371 218.071 87.7591 218.053 87.6751 218.041C87.5911 218.017 87.5011 217.993 87.4051 217.969C87.3571 217.957 87.2851 217.951 87.1891 217.951C87.0451 217.915 86.8771 217.903 86.6851 217.915C86.5051 217.915 86.3311 217.915 86.1631 217.915H84.6331C84.6091 217.927 84.5791 217.933 84.5431 217.933C84.5191 217.933 84.4951 217.939 84.4711 217.951C84.3511 217.987 84.2671 218.041 84.2191 218.113ZM89.2591 224.845C89.2831 224.677 89.2711 224.497 89.2231 224.305C89.1871 224.113 89.1451 223.969 89.0971 223.873C88.9291 223.441 88.5991 223.141 88.1071 222.973C87.9031 222.913 87.6751 222.877 87.4231 222.865C87.1831 222.853 86.9311 222.847 86.6671 222.847H84.6331C84.6091 222.871 84.5851 222.883 84.5611 222.883C84.5491 222.871 84.5311 222.865 84.5071 222.865C84.3631 222.901 84.2671 222.961 84.2191 223.045C84.1591 223.141 84.1291 223.267 84.1291 223.423C84.1291 223.567 84.1291 223.705 84.1291 223.837V225.439C84.1291 225.583 84.1291 225.733 84.1291 225.889C84.1411 226.033 84.1771 226.147 84.2371 226.231C84.2851 226.291 84.3631 226.339 84.4711 226.375C84.5791 226.399 84.6991 226.417 84.8311 226.429C84.9751 226.429 85.1191 226.429 85.2631 226.429C85.4071 226.417 85.5331 226.411 85.6411 226.411C86.0011 226.411 86.3491 226.417 86.6851 226.429C87.0211 226.429 87.3391 226.411 87.6391 226.375C87.9391 226.327 88.2031 226.255 88.4311 226.159C88.6711 226.051 88.8631 225.889 89.0071 225.673C89.0671 225.577 89.1151 225.469 89.1511 225.349C89.1871 225.217 89.2231 225.085 89.2591 224.953V224.845ZM98.9989 219.067C99.1309 219.067 99.2449 219.079 99.3409 219.103C99.4489 219.127 99.5329 219.181 99.5929 219.265C99.6649 219.361 99.7009 219.529 99.7009 219.769C99.7009 219.997 99.7009 220.201 99.7009 220.381C99.7009 220.513 99.7009 220.663 99.7009 220.831C99.7129 220.999 99.6949 221.131 99.6469 221.227C99.5989 221.311 99.5269 221.365 99.4309 221.389C99.3469 221.413 99.2449 221.425 99.1249 221.425C99.0169 221.425 98.8969 221.419 98.7649 221.407C98.6449 221.395 98.5309 221.401 98.4229 221.425C98.3389 221.449 98.2549 221.467 98.1709 221.479C98.0869 221.479 98.0089 221.491 97.9369 221.515C97.7449 221.575 97.5529 221.665 97.3609 221.785C97.1689 221.893 97.0189 222.019 96.9109 222.163C96.8509 222.259 96.7849 222.361 96.7129 222.469C96.6529 222.565 96.5929 222.667 96.5329 222.775C96.4969 222.871 96.4609 222.973 96.4249 223.081C96.4009 223.177 96.3769 223.273 96.3529 223.369C96.3289 223.453 96.3169 223.543 96.3169 223.639C96.3169 223.723 96.3049 223.807 96.2809 223.891C96.2689 223.939 96.2629 223.987 96.2629 224.035C96.2749 224.071 96.2749 224.107 96.2629 224.143V224.431C96.2389 224.515 96.2329 224.611 96.2449 224.719C96.2569 224.815 96.2629 224.911 96.2629 225.007V226.159V227.689C96.2629 227.845 96.2569 227.989 96.2449 228.121C96.2329 228.253 96.1969 228.361 96.1369 228.445C96.1129 228.481 96.0709 228.511 96.0109 228.535C95.9629 228.547 95.9089 228.559 95.8489 228.571H95.7589C95.6989 228.583 95.6329 228.589 95.5609 228.589C95.4889 228.589 95.4229 228.589 95.3629 228.589H94.5889C94.5169 228.577 94.4389 228.571 94.3549 228.571C94.2829 228.571 94.2049 228.571 94.1209 228.571C94.0609 228.547 94.0009 228.529 93.9409 228.517C93.8809 228.493 93.8389 228.451 93.8149 228.391C93.7669 228.331 93.7369 228.247 93.7249 228.139C93.7249 228.019 93.7249 227.899 93.7249 227.779V226.555V221.479V220.147C93.7249 220.027 93.7249 219.913 93.7249 219.805C93.7249 219.685 93.7489 219.589 93.7969 219.517C93.8569 219.421 93.9469 219.361 94.0669 219.337C94.1869 219.313 94.3309 219.301 94.4989 219.301H95.4169C95.5609 219.301 95.6869 219.313 95.7949 219.337C95.9029 219.349 95.9869 219.403 96.0469 219.499C96.0829 219.559 96.1009 219.643 96.1009 219.751C96.1129 219.859 96.1249 219.967 96.1369 220.075C96.1489 220.171 96.1669 220.261 96.1909 220.345C96.2269 220.429 96.2869 220.471 96.3709 220.471C96.3949 220.447 96.4189 220.435 96.4429 220.435C96.4669 220.435 96.4909 220.423 96.5149 220.399C96.5869 220.339 96.6469 220.273 96.6949 220.201C96.7549 220.117 96.8269 220.045 96.9109 219.985C96.9589 219.949 97.0009 219.913 97.0369 219.877C97.0729 219.829 97.1149 219.787 97.1629 219.751C97.2709 219.679 97.3789 219.607 97.4869 219.535C97.6069 219.463 97.7269 219.397 97.8469 219.337C97.9669 219.289 98.0869 219.247 98.2069 219.211C98.3389 219.175 98.4709 219.139 98.6029 219.103C98.6389 219.091 98.7049 219.091 98.8009 219.103C98.9089 219.103 98.9749 219.091 98.9989 219.067ZM109.145 227.869C109.169 228.001 109.181 228.133 109.181 228.265C109.193 228.397 109.133 228.487 109.001 228.535C108.929 228.571 108.845 228.589 108.749 228.589C108.653 228.589 108.557 228.589 108.461 228.589H107.489C107.381 228.589 107.273 228.589 107.165 228.589C107.069 228.577 106.991 228.547 106.931 228.499C106.847 228.451 106.781 228.385 106.733 228.301C106.697 228.205 106.643 228.127 106.571 228.067C106.547 228.043 106.517 228.025 106.481 228.013C106.445 227.989 106.397 227.983 106.337 227.995C106.277 228.019 106.217 228.049 106.157 228.085C106.109 228.121 106.055 228.151 105.995 228.175C105.935 228.223 105.869 228.265 105.797 228.301C105.725 228.337 105.653 228.373 105.581 228.409C105.425 228.481 105.263 228.541 105.095 228.589C104.927 228.625 104.753 228.667 104.573 228.715C104.489 228.739 104.405 228.751 104.321 228.751C104.249 228.763 104.171 228.775 104.087 228.787C104.051 228.787 104.015 228.787 103.979 228.787C103.943 228.799 103.907 228.805 103.871 228.805H103.673C103.553 228.829 103.433 228.829 103.313 228.805H103.151C103.067 228.781 102.983 228.769 102.899 228.769C102.827 228.781 102.755 228.775 102.683 228.751C102.563 228.727 102.449 228.703 102.341 228.679C102.233 228.667 102.131 228.637 102.035 228.589C101.687 228.457 101.387 228.289 101.135 228.085C100.895 227.869 100.703 227.587 100.559 227.239C100.523 227.155 100.487 227.065 100.451 226.969C100.427 226.873 100.403 226.771 100.379 226.663C100.355 226.603 100.343 226.543 100.343 226.483C100.355 226.423 100.355 226.363 100.343 226.303C100.331 226.267 100.319 226.195 100.307 226.087C100.307 225.967 100.313 225.883 100.325 225.835C100.349 225.715 100.361 225.613 100.361 225.529C100.397 225.397 100.433 225.265 100.469 225.133C100.505 224.989 100.553 224.863 100.613 224.755C100.817 224.407 101.051 224.143 101.315 223.963C101.579 223.783 101.915 223.627 102.323 223.495C102.479 223.435 102.641 223.393 102.809 223.369C102.977 223.345 103.145 223.315 103.313 223.279C103.409 223.255 103.511 223.243 103.619 223.243C103.727 223.231 103.835 223.213 103.943 223.189C104.027 223.165 104.111 223.159 104.195 223.171C104.279 223.171 104.369 223.159 104.465 223.135C104.549 223.111 104.633 223.099 104.717 223.099C104.801 223.099 104.891 223.087 104.987 223.063C105.239 223.003 105.467 222.955 105.671 222.919C105.887 222.871 106.079 222.763 106.247 222.595C106.355 222.487 106.427 222.367 106.463 222.235C106.475 222.199 106.475 222.169 106.463 222.145C106.463 222.121 106.469 222.097 106.481 222.073C106.493 222.049 106.499 222.013 106.499 221.965C106.499 221.917 106.499 221.881 106.499 221.857C106.487 221.809 106.475 221.761 106.463 221.713C106.463 221.665 106.457 221.623 106.445 221.587C106.325 221.227 106.073 220.981 105.689 220.849C105.581 220.813 105.449 220.789 105.293 220.777C105.149 220.753 104.999 220.747 104.843 220.759C104.687 220.759 104.537 220.771 104.393 220.795C104.249 220.819 104.123 220.849 104.015 220.885C103.943 220.909 103.871 220.945 103.799 220.993C103.739 221.029 103.679 221.071 103.619 221.119C103.559 221.167 103.493 221.233 103.421 221.317C103.361 221.401 103.319 221.479 103.295 221.551C103.235 221.671 103.181 221.785 103.133 221.893C103.097 222.001 103.013 222.073 102.881 222.109C102.785 222.133 102.683 222.145 102.575 222.145C102.467 222.145 102.359 222.145 102.251 222.145H101.567C101.507 222.145 101.447 222.151 101.387 222.163C101.327 222.163 101.273 222.157 101.225 222.145H101.063C101.039 222.133 101.009 222.127 100.973 222.127C100.937 222.127 100.907 222.115 100.883 222.091C100.787 222.067 100.721 221.989 100.685 221.857C100.673 221.797 100.673 221.737 100.685 221.677C100.697 221.617 100.709 221.563 100.721 221.515C100.757 221.383 100.793 221.263 100.829 221.155C100.877 221.035 100.931 220.927 100.991 220.831C101.027 220.771 101.063 220.711 101.099 220.651C101.135 220.591 101.171 220.531 101.207 220.471C101.303 220.339 101.423 220.213 101.567 220.093C101.591 220.081 101.627 220.051 101.675 220.003C101.735 219.955 101.789 219.913 101.837 219.877C101.885 219.841 101.939 219.805 101.999 219.769C102.203 219.637 102.419 219.535 102.647 219.463C102.875 219.379 103.109 219.301 103.349 219.229C103.493 219.193 103.643 219.169 103.799 219.157C103.955 219.145 104.111 219.121 104.267 219.085C104.315 219.073 104.387 219.073 104.483 219.085C104.591 219.097 104.657 219.091 104.681 219.067C105.173 219.055 105.641 219.073 106.085 219.121C106.541 219.169 106.949 219.259 107.309 219.391C107.681 219.523 107.999 219.703 108.263 219.931C108.527 220.147 108.731 220.429 108.875 220.777C108.959 220.981 109.007 221.215 109.019 221.479C109.031 221.743 109.037 222.013 109.037 222.289V226.303C109.037 226.531 109.037 226.765 109.037 227.005C109.037 227.233 109.061 227.443 109.109 227.635C109.121 227.671 109.127 227.713 109.127 227.761C109.127 227.797 109.133 227.833 109.145 227.869ZM106.499 225.097C106.511 225.037 106.517 224.971 106.517 224.899C106.517 224.815 106.511 224.743 106.499 224.683C106.475 224.611 106.463 224.545 106.463 224.485C106.463 224.425 106.439 224.377 106.391 224.341C106.331 224.293 106.241 224.269 106.121 224.269C106.073 224.281 106.031 224.293 105.995 224.305C105.959 224.305 105.917 224.311 105.869 224.323C105.785 224.347 105.695 224.365 105.599 224.377C105.503 224.389 105.407 224.407 105.311 224.431C105.275 224.443 105.221 224.449 105.149 224.449C104.993 224.485 104.837 224.509 104.681 224.521C104.525 224.533 104.375 224.563 104.231 224.611C104.135 224.635 104.045 224.659 103.961 224.683C103.877 224.695 103.793 224.719 103.709 224.755C103.457 224.863 103.241 225.025 103.061 225.241C102.893 225.457 102.833 225.757 102.881 226.141C102.905 226.345 102.971 226.513 103.079 226.645C103.163 226.777 103.289 226.885 103.457 226.969C103.625 227.041 103.805 227.095 103.997 227.131C104.201 227.167 104.411 227.179 104.627 227.167C104.855 227.143 105.065 227.101 105.257 227.041C105.569 226.945 105.815 226.795 105.995 226.591C106.175 226.375 106.313 226.111 106.409 225.799C106.433 225.715 106.445 225.631 106.445 225.547C106.457 225.451 106.475 225.355 106.499 225.259V225.097ZM116.331 219.067C117.051 219.043 117.651 219.145 118.131 219.373C118.611 219.601 118.989 219.937 119.265 220.381C119.349 220.513 119.415 220.657 119.463 220.813C119.511 220.957 119.559 221.107 119.607 221.263C119.631 221.359 119.643 221.449 119.643 221.533C119.655 221.617 119.673 221.701 119.697 221.785C119.697 221.857 119.703 221.905 119.715 221.929C119.739 222.097 119.751 222.271 119.751 222.451C119.751 222.631 119.751 222.805 119.751 222.973V224.575V227.491C119.751 227.719 119.745 227.941 119.733 228.157C119.733 228.361 119.649 228.493 119.481 228.553C119.409 228.577 119.325 228.589 119.229 228.589C119.133 228.589 119.037 228.589 118.941 228.589H117.969C117.825 228.589 117.693 228.583 117.573 228.571C117.465 228.547 117.381 228.493 117.321 228.409C117.273 228.337 117.243 228.247 117.231 228.139C117.231 228.019 117.231 227.893 117.231 227.761V226.501V223.819C117.231 223.375 117.213 222.967 117.177 222.595C117.141 222.211 117.033 221.887 116.853 221.623C116.685 221.383 116.439 221.215 116.115 221.119C116.055 221.095 115.989 221.083 115.917 221.083C115.857 221.083 115.791 221.071 115.719 221.047C115.659 221.035 115.581 221.035 115.485 221.047C115.401 221.047 115.335 221.053 115.287 221.065C115.239 221.077 115.197 221.083 115.161 221.083C115.125 221.083 115.089 221.089 115.053 221.101C114.777 221.173 114.555 221.269 114.387 221.389C114.003 221.665 113.775 222.067 113.703 222.595C113.631 223.123 113.595 223.717 113.595 224.377V226.627V227.725C113.595 227.833 113.595 227.941 113.595 228.049C113.595 228.157 113.577 228.247 113.541 228.319C113.481 228.451 113.385 228.529 113.253 228.553C113.121 228.577 112.959 228.589 112.767 228.589H111.867C111.735 228.589 111.603 228.583 111.471 228.571C111.339 228.559 111.243 228.517 111.183 228.445C111.099 228.337 111.057 228.181 111.057 227.977C111.069 227.773 111.075 227.581 111.075 227.401V224.953V220.993V220.075C111.075 219.943 111.075 219.823 111.075 219.715C111.087 219.607 111.123 219.517 111.183 219.445C111.207 219.409 111.243 219.385 111.291 219.373C111.351 219.349 111.411 219.331 111.471 219.319H111.561C111.621 219.307 111.681 219.301 111.741 219.301C111.813 219.301 111.879 219.301 111.939 219.301H112.695C112.791 219.301 112.881 219.307 112.965 219.319C113.061 219.319 113.145 219.331 113.217 219.355C113.301 219.391 113.355 219.445 113.379 219.517C113.415 219.589 113.445 219.673 113.469 219.769C113.481 219.817 113.481 219.859 113.469 219.895C113.469 219.931 113.481 219.967 113.505 220.003C113.529 220.063 113.547 220.099 113.559 220.111C113.583 220.123 113.613 220.141 113.649 220.165C113.781 220.177 113.889 220.135 113.973 220.039C114.057 219.931 114.147 219.847 114.243 219.787C114.567 219.547 114.927 219.355 115.323 219.211C115.431 219.175 115.539 219.151 115.647 219.139C115.767 219.127 115.893 219.109 116.025 219.085C116.061 219.073 116.115 219.073 116.187 219.085C116.259 219.085 116.307 219.079 116.331 219.067ZM130.799 227.563C130.799 227.731 130.799 227.899 130.799 228.067C130.799 228.223 130.763 228.349 130.691 228.445C130.631 228.505 130.553 228.547 130.457 228.571C130.361 228.583 130.253 228.589 130.133 228.589H129.143C129.023 228.589 128.909 228.589 128.801 228.589C128.705 228.577 128.627 228.547 128.567 228.499C128.483 228.439 128.435 228.361 128.423 228.265C128.411 228.169 128.387 228.073 128.351 227.977C128.327 227.953 128.303 227.935 128.279 227.923C128.267 227.899 128.249 227.875 128.225 227.851C128.093 227.851 127.997 227.881 127.937 227.941C127.877 228.001 127.817 228.061 127.757 228.121C127.673 228.181 127.595 228.235 127.523 228.283C127.451 228.319 127.373 228.367 127.289 228.427C127.241 228.451 127.187 228.475 127.127 228.499C127.079 228.523 127.025 228.547 126.965 228.571C126.797 228.631 126.617 228.685 126.425 228.733C126.365 228.757 126.311 228.769 126.263 228.769C126.215 228.769 126.167 228.775 126.119 228.787C126.059 228.787 126.005 228.787 125.957 228.787C125.921 228.799 125.873 228.805 125.813 228.805H125.651C125.579 228.829 125.471 228.835 125.327 228.823C125.183 228.823 125.081 228.811 125.021 228.787C124.937 228.763 124.859 228.751 124.787 228.751C124.727 228.763 124.661 228.757 124.589 228.733C124.445 228.685 124.301 228.637 124.157 228.589C124.025 228.553 123.893 228.505 123.761 228.445C123.341 228.265 122.963 227.989 122.627 227.617C122.303 227.233 122.045 226.831 121.853 226.411C121.793 226.279 121.745 226.153 121.709 226.033C121.673 225.901 121.631 225.769 121.583 225.637C121.571 225.589 121.565 225.547 121.565 225.511C121.565 225.463 121.553 225.409 121.529 225.349C121.505 225.253 121.481 225.151 121.457 225.043C121.445 224.923 121.427 224.803 121.403 224.683C121.391 224.647 121.385 224.605 121.385 224.557C121.397 224.509 121.397 224.467 121.385 224.431C121.385 224.371 121.385 224.317 121.385 224.269C121.385 224.209 121.379 224.149 121.367 224.089C121.355 224.029 121.349 223.963 121.349 223.891C121.349 223.807 121.355 223.741 121.367 223.693C121.379 223.633 121.385 223.579 121.385 223.531C121.385 223.471 121.385 223.411 121.385 223.351C121.397 223.291 121.397 223.237 121.385 223.189C121.385 223.129 121.397 223.069 121.421 223.009C121.445 222.877 121.463 222.751 121.475 222.631C121.499 222.511 121.529 222.391 121.565 222.271C121.613 222.127 121.655 221.989 121.691 221.857C121.727 221.725 121.775 221.593 121.835 221.461C122.003 221.101 122.213 220.759 122.465 220.435C122.489 220.399 122.519 220.369 122.555 220.345C122.603 220.309 122.639 220.273 122.663 220.237C122.711 220.177 122.759 220.123 122.807 220.075C122.855 220.027 122.909 219.979 122.969 219.931C123.017 219.907 123.059 219.877 123.095 219.841C123.131 219.793 123.173 219.757 123.221 219.733C123.521 219.529 123.869 219.361 124.265 219.229C124.349 219.205 124.433 219.187 124.517 219.175C124.613 219.163 124.709 219.145 124.805 219.121C124.889 219.097 124.997 219.085 125.129 219.085C125.261 219.073 125.393 219.067 125.525 219.067C125.657 219.067 125.783 219.073 125.903 219.085C126.035 219.097 126.143 219.115 126.227 219.139C126.407 219.199 126.581 219.253 126.749 219.301C126.917 219.349 127.073 219.415 127.217 219.499C127.301 219.559 127.379 219.619 127.451 219.679C127.523 219.727 127.601 219.781 127.685 219.841C127.733 219.877 127.799 219.925 127.883 219.985C127.979 220.045 128.069 220.045 128.153 219.985C128.201 219.961 128.225 219.919 128.225 219.859C128.225 219.799 128.237 219.739 128.261 219.679V219.499C128.273 219.463 128.279 219.421 128.279 219.373C128.279 219.325 128.279 219.277 128.279 219.229V216.781C128.279 216.649 128.273 216.505 128.261 216.349C128.261 216.181 128.291 216.055 128.351 215.971C128.399 215.875 128.489 215.815 128.621 215.791C128.645 215.779 128.669 215.779 128.693 215.791C128.717 215.791 128.741 215.785 128.765 215.773H130.043C130.187 215.773 130.319 215.779 130.439 215.791C130.559 215.803 130.649 215.851 130.709 215.935C130.769 216.031 130.799 216.157 130.799 216.313C130.799 216.457 130.799 216.601 130.799 216.745V227.563ZM128.351 224.035C128.363 223.987 128.363 223.939 128.351 223.891C128.351 223.831 128.351 223.777 128.351 223.729C128.351 223.609 128.345 223.489 128.333 223.369C128.321 223.249 128.303 223.141 128.279 223.045C128.255 222.913 128.231 222.793 128.207 222.685C128.195 222.577 128.165 222.475 128.117 222.379C127.949 221.947 127.703 221.605 127.379 221.353C127.067 221.101 126.611 220.975 126.011 220.975C125.939 220.975 125.843 220.987 125.723 221.011C125.627 221.035 125.537 221.059 125.453 221.083C125.381 221.095 125.309 221.119 125.237 221.155C124.913 221.287 124.661 221.491 124.481 221.767C124.301 222.043 124.157 222.355 124.049 222.703C124.013 222.823 123.989 222.943 123.977 223.063C123.965 223.183 123.941 223.309 123.905 223.441V223.693C123.881 223.801 123.875 223.951 123.887 224.143C123.899 224.323 123.917 224.455 123.941 224.539C123.941 224.575 123.941 224.611 123.941 224.647C123.953 224.671 123.959 224.695 123.959 224.719C123.983 224.815 124.001 224.905 124.013 224.989C124.037 225.073 124.061 225.163 124.085 225.259C124.289 225.883 124.637 226.345 125.129 226.645C125.285 226.753 125.501 226.837 125.777 226.897C125.825 226.909 125.897 226.915 125.993 226.915C126.029 226.927 126.083 226.939 126.155 226.951C126.239 226.951 126.305 226.945 126.353 226.933C126.449 226.909 126.545 226.891 126.641 226.879C126.737 226.867 126.833 226.843 126.929 226.807C127.229 226.675 127.469 226.507 127.649 226.303C127.829 226.099 127.985 225.841 128.117 225.529C128.165 225.421 128.201 225.313 128.225 225.205C128.249 225.085 128.273 224.959 128.297 224.827C128.309 224.767 128.309 224.713 128.297 224.665C128.297 224.605 128.309 224.545 128.333 224.485C128.345 224.449 128.351 224.407 128.351 224.359C128.351 224.311 128.351 224.257 128.351 224.197V224.035ZM81.8071 237.755H88.5391H90.1051C90.2491 237.755 90.3871 237.761 90.5191 237.773C90.6511 237.785 90.7471 237.833 90.8071 237.917C90.8311 237.953 90.8431 237.995 90.8431 238.043C90.8551 238.091 90.8731 238.139 90.8971 238.187V238.385C90.9091 238.469 90.9091 238.559 90.8971 238.655C90.8971 238.751 90.8971 238.841 90.8971 238.925C90.8971 239.021 90.8971 239.117 90.8971 239.213C90.9091 239.297 90.9091 239.381 90.8971 239.465C90.8851 239.525 90.8791 239.615 90.8791 239.735C90.8431 239.879 90.7831 239.975 90.6991 240.023C90.6271 240.071 90.5371 240.095 90.4291 240.095C90.3211 240.095 90.2071 240.095 90.0871 240.095H88.8451H85.5871C85.4911 240.095 85.3771 240.095 85.2451 240.095C85.1251 240.083 84.9991 240.083 84.8671 240.095C84.7471 240.095 84.6331 240.107 84.5251 240.131C84.4171 240.143 84.3391 240.167 84.2911 240.203C84.2071 240.263 84.1531 240.353 84.1291 240.473C84.1171 240.581 84.1111 240.707 84.1111 240.851V241.877V242.399C84.1351 242.495 84.1591 242.579 84.1831 242.651C84.2071 242.711 84.2491 242.759 84.3091 242.795C84.3811 242.843 84.4651 242.873 84.5611 242.885C84.6571 242.885 84.7591 242.885 84.8671 242.885H85.8391H88.9351C89.0191 242.885 89.1211 242.885 89.2411 242.885C89.3731 242.873 89.4991 242.873 89.6191 242.885C89.7391 242.885 89.8471 242.891 89.9431 242.903C90.0511 242.915 90.1291 242.939 90.1771 242.975C90.2371 243.011 90.2791 243.083 90.3031 243.191C90.3271 243.299 90.3391 243.419 90.3391 243.551C90.3511 243.671 90.3511 243.797 90.3391 243.929C90.3391 244.061 90.3391 244.175 90.3391 244.271C90.3391 244.355 90.3391 244.439 90.3391 244.523C90.3391 244.607 90.3271 244.679 90.3031 244.739C90.2791 244.835 90.2311 244.913 90.1591 244.973C90.0991 245.009 90.0151 245.033 89.9071 245.045C89.8111 245.057 89.6971 245.063 89.5651 245.063C89.4451 245.063 89.3191 245.063 89.1871 245.063C89.0671 245.051 88.9651 245.045 88.8811 245.045H85.3711C85.2271 245.045 85.0891 245.045 84.9571 245.045C84.8251 245.033 84.6991 245.039 84.5791 245.063C84.4711 245.075 84.3751 245.111 84.2911 245.171C84.2191 245.219 84.1651 245.297 84.1291 245.405C84.1171 245.465 84.1111 245.531 84.1111 245.603C84.1111 245.663 84.1111 245.723 84.1111 245.783V246.467V247.475C84.1111 247.619 84.1171 247.751 84.1291 247.871C84.1531 247.979 84.2071 248.063 84.2911 248.123C84.3271 248.159 84.3691 248.183 84.4171 248.195C84.4771 248.195 84.5371 248.207 84.5971 248.231H84.7771C84.8371 248.243 84.9031 248.249 84.9751 248.249C85.0471 248.237 85.1131 248.231 85.1731 248.231H85.9291H89.3131H90.2671C90.3631 248.231 90.4531 248.231 90.5371 248.231C90.6331 248.231 90.7171 248.249 90.7891 248.285C90.8851 248.321 90.9511 248.387 90.9871 248.483C91.0111 248.543 91.0231 248.615 91.0231 248.699C91.0351 248.783 91.0411 248.873 91.0411 248.969V249.797C91.0411 249.941 91.0351 250.079 91.0231 250.211C91.0111 250.331 90.9571 250.421 90.8611 250.481C90.7891 250.541 90.6931 250.571 90.5731 250.571C90.4651 250.571 90.3451 250.571 90.2131 250.571H88.8631H83.5351H82.1131C81.9451 250.571 81.7951 250.565 81.6631 250.553C81.5431 250.529 81.4531 250.469 81.3931 250.373C81.3451 250.301 81.3211 250.211 81.3211 250.103C81.3211 249.983 81.3211 249.869 81.3211 249.761V248.465V243.569V239.645V238.529C81.3211 238.421 81.3211 238.313 81.3211 238.205C81.3211 238.097 81.3451 238.013 81.3931 237.953C81.4411 237.869 81.5311 237.809 81.6631 237.773C81.6871 237.761 81.7111 237.761 81.7351 237.773C81.7591 237.773 81.7831 237.767 81.8071 237.755ZM92.705 241.301H94.145C94.313 241.301 94.469 241.307 94.613 241.319C94.769 241.331 94.895 241.373 94.991 241.445C95.075 241.505 95.147 241.589 95.207 241.697C95.279 241.793 95.345 241.889 95.405 241.985C95.501 242.141 95.603 242.297 95.711 242.453C95.819 242.597 95.927 242.747 96.035 242.903C96.095 242.999 96.161 243.107 96.233 243.227C96.317 243.347 96.419 243.425 96.539 243.461C96.587 243.473 96.629 243.473 96.665 243.461C96.713 243.437 96.749 243.413 96.773 243.389C96.857 243.329 96.923 243.257 96.971 243.173C97.019 243.089 97.073 243.005 97.133 242.921C97.229 242.765 97.331 242.615 97.439 242.471C97.547 242.315 97.655 242.159 97.763 242.003C97.859 241.835 97.949 241.691 98.033 241.571C98.129 241.451 98.285 241.367 98.501 241.319C98.585 241.295 98.675 241.289 98.771 241.301C98.867 241.301 98.963 241.301 99.059 241.301H100.175C100.295 241.301 100.409 241.313 100.517 241.337C100.637 241.349 100.709 241.403 100.733 241.499C100.757 241.559 100.751 241.619 100.715 241.679C100.691 241.727 100.667 241.769 100.643 241.805C100.583 241.925 100.511 242.039 100.427 242.147C100.343 242.243 100.265 242.351 100.193 242.471C99.917 242.855 99.647 243.239 99.383 243.623C99.119 244.007 98.849 244.391 98.573 244.775C98.501 244.871 98.429 244.967 98.357 245.063C98.285 245.159 98.219 245.267 98.159 245.387C98.135 245.423 98.111 245.471 98.087 245.531C98.075 245.591 98.075 245.651 98.087 245.711C98.123 245.843 98.171 245.957 98.231 246.053C98.303 246.137 98.369 246.227 98.429 246.323C98.501 246.419 98.573 246.521 98.645 246.629C98.717 246.725 98.783 246.821 98.843 246.917C99.107 247.289 99.365 247.661 99.617 248.033C99.869 248.405 100.127 248.783 100.391 249.167C100.487 249.311 100.589 249.455 100.697 249.599C100.805 249.743 100.907 249.893 101.003 250.049C101.027 250.085 101.057 250.139 101.093 250.211C101.129 250.271 101.129 250.337 101.093 250.409C101.069 250.493 101.003 250.541 100.895 250.553C100.787 250.565 100.673 250.571 100.553 250.571H98.897C98.837 250.559 98.777 250.553 98.717 250.553C98.657 250.541 98.597 250.523 98.537 250.499C98.405 250.403 98.297 250.283 98.213 250.139C98.129 249.995 98.039 249.857 97.943 249.725C97.811 249.545 97.685 249.365 97.565 249.185C97.445 248.993 97.325 248.807 97.205 248.627C97.133 248.519 97.043 248.387 96.935 248.231C96.839 248.063 96.725 247.961 96.593 247.925C96.509 247.901 96.437 247.919 96.377 247.979C96.317 248.027 96.275 248.075 96.251 248.123C96.155 248.255 96.059 248.393 95.963 248.537C95.879 248.669 95.789 248.807 95.693 248.951L94.991 249.977C94.931 250.073 94.865 250.169 94.793 250.265C94.733 250.361 94.649 250.439 94.541 250.499C94.409 250.559 94.217 250.589 93.965 250.589C93.725 250.577 93.509 250.571 93.317 250.571H92.723C92.675 250.571 92.621 250.577 92.561 250.589C92.513 250.589 92.471 250.583 92.435 250.571C92.387 250.559 92.339 250.559 92.291 250.571C92.255 250.571 92.219 250.559 92.183 250.535C92.147 250.511 92.117 250.493 92.093 250.481C92.081 250.457 92.063 250.433 92.039 250.409C92.027 250.289 92.045 250.193 92.093 250.121C92.141 250.037 92.189 249.959 92.237 249.887C92.333 249.755 92.423 249.623 92.507 249.491C92.603 249.359 92.699 249.227 92.795 249.095C93.035 248.747 93.275 248.393 93.515 248.033C93.755 247.673 93.995 247.313 94.235 246.953C94.319 246.845 94.397 246.737 94.469 246.629C94.541 246.521 94.613 246.413 94.685 246.305C94.745 246.221 94.799 246.137 94.847 246.053C94.907 245.969 94.949 245.867 94.973 245.747C94.997 245.687 94.997 245.633 94.973 245.585C94.949 245.537 94.931 245.501 94.919 245.477C94.859 245.345 94.787 245.231 94.703 245.135C94.631 245.027 94.559 244.919 94.487 244.811C94.211 244.391 93.929 243.989 93.641 243.605C93.365 243.209 93.089 242.801 92.813 242.381C92.753 242.285 92.687 242.189 92.615 242.093C92.543 241.997 92.477 241.895 92.417 241.787C92.393 241.751 92.363 241.709 92.327 241.661C92.303 241.613 92.303 241.559 92.327 241.499C92.351 241.439 92.381 241.403 92.417 241.391C92.453 241.367 92.501 241.343 92.561 241.319C92.633 241.319 92.681 241.313 92.705 241.301ZM111.823 245.837C111.835 245.909 111.841 246.017 111.841 246.161C111.841 246.305 111.829 246.407 111.805 246.467V246.701C111.769 246.833 111.745 246.959 111.733 247.079C111.733 247.199 111.715 247.319 111.679 247.439C111.655 247.547 111.631 247.661 111.607 247.781C111.583 247.889 111.547 247.997 111.499 248.105C111.415 248.309 111.331 248.501 111.247 248.681C111.163 248.849 111.067 249.017 110.959 249.185C110.887 249.293 110.809 249.395 110.725 249.491C110.653 249.575 110.569 249.665 110.473 249.761L110.347 249.887C110.287 249.947 110.221 250.001 110.149 250.049C110.089 250.097 110.029 250.145 109.969 250.193C109.873 250.265 109.765 250.331 109.645 250.391C109.537 250.439 109.423 250.493 109.303 250.553C109.183 250.613 109.057 250.655 108.925 250.679C108.805 250.703 108.679 250.727 108.547 250.751C108.475 250.775 108.397 250.787 108.313 250.787C108.241 250.787 108.163 250.799 108.079 250.823H107.917C107.821 250.847 107.731 250.847 107.647 250.823H107.467C107.395 250.799 107.317 250.787 107.233 250.787C107.161 250.799 107.089 250.793 107.017 250.769C106.825 250.709 106.639 250.655 106.459 250.607C106.291 250.559 106.135 250.487 105.991 250.391C105.907 250.343 105.829 250.295 105.757 250.247C105.685 250.187 105.607 250.127 105.523 250.067C105.475 250.031 105.403 249.977 105.307 249.905C105.211 249.833 105.127 249.827 105.055 249.887C104.995 249.923 104.965 249.971 104.965 250.031C104.965 250.079 104.953 250.139 104.929 250.211C104.905 250.331 104.893 250.469 104.893 250.625C104.905 250.781 104.911 250.925 104.911 251.057V252.893C104.911 253.049 104.905 253.199 104.893 253.343C104.893 253.499 104.863 253.625 104.803 253.721C104.767 253.769 104.701 253.805 104.605 253.829C104.509 253.853 104.401 253.865 104.281 253.865C104.161 253.877 104.041 253.877 103.921 253.865C103.801 253.865 103.699 253.865 103.615 253.865H103.129C103.093 253.865 103.051 253.865 103.003 253.865C102.955 253.865 102.913 253.859 102.877 253.847H102.733C102.529 253.787 102.421 253.667 102.409 253.487C102.397 253.319 102.391 253.115 102.391 252.875V242.309C102.391 242.177 102.385 242.039 102.373 241.895C102.373 241.739 102.403 241.619 102.463 241.535C102.511 241.451 102.577 241.397 102.661 241.373C102.721 241.349 102.793 241.337 102.877 241.337C102.973 241.337 103.063 241.337 103.147 241.337H104.011C104.131 241.337 104.245 241.337 104.353 241.337C104.461 241.337 104.551 241.367 104.623 241.427C104.707 241.487 104.749 241.565 104.749 241.661C104.761 241.745 104.791 241.835 104.839 241.931C104.851 241.967 104.863 241.997 104.875 242.021C104.899 242.033 104.923 242.051 104.947 242.075C105.079 242.087 105.187 242.051 105.271 241.967C105.355 241.883 105.439 241.811 105.523 241.751C105.679 241.643 105.841 241.547 106.009 241.463C106.177 241.367 106.363 241.289 106.567 241.229C106.663 241.193 106.765 241.169 106.873 241.157C106.993 241.145 107.107 241.127 107.215 241.103C107.263 241.091 107.311 241.091 107.359 241.103C107.419 241.115 107.467 241.109 107.503 241.085C108.187 241.061 108.763 241.157 109.231 241.373C109.711 241.577 110.119 241.847 110.455 242.183C110.515 242.243 110.569 242.303 110.617 242.363C110.665 242.411 110.713 242.465 110.761 242.525C110.845 242.633 110.917 242.741 110.977 242.849C111.049 242.957 111.115 243.065 111.175 243.173C111.199 243.197 111.211 243.227 111.211 243.263C111.223 243.299 111.241 243.341 111.265 243.389C111.337 243.509 111.403 243.653 111.463 243.821C111.487 243.893 111.511 243.971 111.535 244.055C111.559 244.127 111.583 244.205 111.607 244.289C111.655 244.433 111.685 244.583 111.697 244.739C111.721 244.895 111.751 245.057 111.787 245.225C111.787 245.285 111.787 245.351 111.787 245.423C111.799 245.495 111.811 245.567 111.823 245.639V245.837ZM109.285 246.251C109.297 246.191 109.303 246.113 109.303 246.017C109.303 245.909 109.297 245.825 109.285 245.765V245.603C109.261 245.531 109.249 245.453 109.249 245.369C109.249 245.285 109.237 245.201 109.213 245.117C109.189 244.997 109.165 244.883 109.141 244.775C109.117 244.655 109.081 244.547 109.033 244.451C108.889 244.067 108.703 243.761 108.475 243.533C108.247 243.305 107.923 243.137 107.503 243.029C107.407 243.005 107.299 242.993 107.179 242.993C107.071 242.993 106.963 242.993 106.855 242.993C106.807 243.005 106.765 243.011 106.729 243.011C106.693 243.011 106.651 243.017 106.603 243.029C106.519 243.053 106.435 243.077 106.351 243.101C106.279 243.113 106.207 243.137 106.135 243.173C105.823 243.305 105.577 243.509 105.397 243.785C105.229 244.061 105.091 244.367 104.983 244.703C104.959 244.799 104.941 244.901 104.929 245.009C104.917 245.105 104.899 245.201 104.875 245.297C104.863 245.345 104.857 245.423 104.857 245.531C104.833 245.579 104.827 245.639 104.839 245.711C104.851 245.771 104.851 245.831 104.839 245.891C104.815 245.963 104.815 246.029 104.839 246.089V246.305C104.839 246.365 104.839 246.419 104.839 246.467C104.839 246.515 104.851 246.563 104.875 246.611C104.875 246.695 104.881 246.761 104.893 246.809C104.905 246.881 104.917 246.953 104.929 247.025C104.941 247.097 104.959 247.169 104.983 247.241C105.091 247.589 105.217 247.877 105.361 248.105C105.517 248.321 105.733 248.513 106.009 248.681C106.177 248.777 106.375 248.855 106.603 248.915C106.651 248.927 106.693 248.933 106.729 248.933C106.765 248.921 106.807 248.921 106.855 248.933C106.903 248.945 106.975 248.957 107.071 248.969C107.167 248.969 107.245 248.963 107.305 248.951C107.401 248.927 107.497 248.909 107.593 248.897C107.701 248.873 107.803 248.843 107.899 248.807C108.187 248.687 108.421 248.519 108.601 248.303C108.781 248.087 108.931 247.835 109.051 247.547C109.111 247.403 109.153 247.253 109.177 247.097C109.201 246.941 109.231 246.779 109.267 246.611C109.267 246.551 109.267 246.491 109.267 246.431C109.279 246.371 109.285 246.311 109.285 246.251ZM122.197 245.855C122.221 245.951 122.221 246.059 122.197 246.179C122.173 246.299 122.131 246.377 122.071 246.413C122.011 246.461 121.921 246.497 121.801 246.521C121.693 246.533 121.567 246.545 121.423 246.557C121.291 246.557 121.153 246.557 121.009 246.557C120.877 246.545 120.757 246.539 120.649 246.539H116.257C116.173 246.539 116.089 246.539 116.005 246.539C115.933 246.539 115.867 246.551 115.807 246.575C115.711 246.623 115.651 246.671 115.627 246.719C115.603 246.743 115.579 246.791 115.555 246.863C115.531 246.923 115.525 246.983 115.537 247.043C115.561 247.115 115.573 247.187 115.573 247.259C115.585 247.319 115.603 247.385 115.627 247.457C115.723 247.745 115.837 247.985 115.969 248.177C116.113 248.357 116.305 248.519 116.545 248.663C116.641 248.723 116.737 248.765 116.833 248.789C116.941 248.801 117.049 248.825 117.157 248.861C117.253 248.885 117.385 248.903 117.553 248.915C117.721 248.927 117.865 248.921 117.985 248.897H118.147C118.267 248.873 118.375 248.849 118.471 248.825C118.579 248.789 118.681 248.753 118.777 248.717C118.897 248.657 119.029 248.579 119.173 248.483C119.329 248.387 119.443 248.291 119.515 248.195C119.575 248.111 119.635 248.033 119.695 247.961C119.767 247.877 119.851 247.817 119.947 247.781C120.067 247.721 120.217 247.697 120.397 247.709C120.589 247.709 120.763 247.709 120.919 247.709C120.991 247.709 121.063 247.709 121.135 247.709C121.219 247.697 121.291 247.703 121.351 247.727H121.531C121.651 247.751 121.735 247.781 121.783 247.817C121.831 247.841 121.855 247.895 121.855 247.979C121.867 248.063 121.861 248.135 121.837 248.195C121.777 248.363 121.711 248.513 121.639 248.645C121.567 248.777 121.483 248.909 121.387 249.041C121.123 249.437 120.823 249.755 120.487 249.995C120.151 250.235 119.731 250.439 119.227 250.607C119.095 250.655 118.963 250.685 118.831 250.697C118.699 250.709 118.561 250.733 118.417 250.769C118.369 250.781 118.315 250.781 118.255 250.769C118.207 250.769 118.159 250.775 118.111 250.787H117.913C117.853 250.811 117.781 250.817 117.697 250.805C117.625 250.805 117.559 250.799 117.499 250.787C117.403 250.775 117.319 250.775 117.247 250.787C117.175 250.799 117.097 250.793 117.013 250.769C116.953 250.745 116.887 250.733 116.815 250.733C116.743 250.733 116.677 250.721 116.617 250.697C116.485 250.673 116.353 250.643 116.221 250.607C116.089 250.583 115.969 250.541 115.861 250.481C115.729 250.433 115.603 250.391 115.483 250.355C115.375 250.307 115.273 250.253 115.177 250.193C114.793 249.953 114.451 249.677 114.151 249.365C113.851 249.041 113.605 248.669 113.413 248.249C113.353 248.117 113.305 247.985 113.269 247.853C113.233 247.709 113.185 247.565 113.125 247.421C113.113 247.373 113.107 247.331 113.107 247.295C113.107 247.247 113.101 247.199 113.089 247.151C113.041 247.007 113.011 246.851 112.999 246.683C112.987 246.515 112.975 246.347 112.963 246.179C112.963 246.119 112.957 246.053 112.945 245.981C112.945 245.909 112.951 245.843 112.963 245.783V245.567L113.017 245.135C113.065 244.931 113.107 244.733 113.143 244.541C113.179 244.349 113.233 244.169 113.305 244.001C113.821 242.753 114.697 241.871 115.933 241.355C116.101 241.283 116.269 241.235 116.437 241.211C116.617 241.175 116.803 241.133 116.995 241.085C117.091 241.073 117.181 241.067 117.265 241.067C117.349 241.067 117.439 241.061 117.535 241.049C118.147 241.037 118.669 241.109 119.101 241.265C119.545 241.409 119.941 241.601 120.289 241.841C120.397 241.913 120.505 241.997 120.613 242.093C120.721 242.177 120.817 242.267 120.901 242.363C120.937 242.423 120.985 242.471 121.045 242.507C121.141 242.639 121.231 242.777 121.315 242.921C121.399 243.053 121.489 243.191 121.585 243.335C121.645 243.443 121.693 243.557 121.729 243.677C121.777 243.785 121.825 243.905 121.873 244.037C121.933 244.193 121.981 244.355 122.017 244.523C122.053 244.691 122.095 244.859 122.143 245.027C122.167 245.123 122.173 245.231 122.161 245.351C122.161 245.459 122.173 245.561 122.197 245.657V245.855ZM119.497 244.793C119.581 244.673 119.587 244.529 119.515 244.361C119.455 244.181 119.407 244.049 119.371 243.965C119.203 243.641 118.981 243.395 118.705 243.227C118.429 243.047 118.045 242.951 117.553 242.939C117.517 242.963 117.475 242.969 117.427 242.957C117.379 242.945 117.337 242.945 117.301 242.957C117.241 242.981 117.175 242.999 117.103 243.011C117.031 243.011 116.965 243.023 116.905 243.047C116.377 243.215 115.987 243.545 115.735 244.037C115.711 244.085 115.681 244.151 115.645 244.235C115.621 244.307 115.603 244.385 115.591 244.469C115.579 244.541 115.579 244.613 115.591 244.685C115.615 244.757 115.657 244.817 115.717 244.865C115.813 244.925 115.945 244.955 116.113 244.955C116.281 244.955 116.443 244.955 116.599 244.955H118.597C118.765 244.955 118.939 244.955 119.119 244.955C119.311 244.943 119.437 244.889 119.497 244.793ZM129.005 241.067C129.137 241.067 129.251 241.079 129.347 241.103C129.455 241.127 129.539 241.181 129.599 241.265C129.671 241.361 129.707 241.529 129.707 241.769C129.707 241.997 129.707 242.201 129.707 242.381C129.707 242.513 129.707 242.663 129.707 242.831C129.719 242.999 129.701 243.131 129.653 243.227C129.605 243.311 129.533 243.365 129.437 243.389C129.353 243.413 129.251 243.425 129.131 243.425C129.023 243.425 128.903 243.419 128.771 243.407C128.651 243.395 128.537 243.401 128.429 243.425C128.345 243.449 128.261 243.467 128.177 243.479C128.093 243.479 128.015 243.491 127.943 243.515C127.751 243.575 127.559 243.665 127.367 243.785C127.175 243.893 127.025 244.019 126.917 244.163C126.857 244.259 126.791 244.361 126.719 244.469C126.659 244.565 126.599 244.667 126.539 244.775C126.503 244.871 126.467 244.973 126.431 245.081C126.407 245.177 126.383 245.273 126.359 245.369C126.335 245.453 126.323 245.543 126.323 245.639C126.323 245.723 126.311 245.807 126.287 245.891C126.275 245.939 126.269 245.987 126.269 246.035C126.281 246.071 126.281 246.107 126.269 246.143V246.431C126.245 246.515 126.239 246.611 126.251 246.719C126.263 246.815 126.269 246.911 126.269 247.007V248.159V249.689C126.269 249.845 126.263 249.989 126.251 250.121C126.239 250.253 126.203 250.361 126.143 250.445C126.119 250.481 126.077 250.511 126.017 250.535C125.969 250.547 125.915 250.559 125.855 250.571H125.765C125.705 250.583 125.639 250.589 125.567 250.589C125.495 250.589 125.429 250.589 125.369 250.589H124.595C124.523 250.577 124.445 250.571 124.361 250.571C124.289 250.571 124.211 250.571 124.127 250.571C124.067 250.547 124.007 250.529 123.947 250.517C123.887 250.493 123.845 250.451 123.821 250.391C123.773 250.331 123.743 250.247 123.731 250.139C123.731 250.019 123.731 249.899 123.731 249.779V248.555V243.479V242.147C123.731 242.027 123.731 241.913 123.731 241.805C123.731 241.685 123.755 241.589 123.803 241.517C123.863 241.421 123.953 241.361 124.073 241.337C124.193 241.313 124.337 241.301 124.505 241.301H125.423C125.567 241.301 125.693 241.313 125.801 241.337C125.909 241.349 125.993 241.403 126.053 241.499C126.089 241.559 126.107 241.643 126.107 241.751C126.119 241.859 126.131 241.967 126.143 242.075C126.155 242.171 126.173 242.261 126.197 242.345C126.233 242.429 126.293 242.471 126.377 242.471C126.401 242.447 126.425 242.435 126.449 242.435C126.473 242.435 126.497 242.423 126.521 242.399C126.593 242.339 126.653 242.273 126.701 242.201C126.761 242.117 126.833 242.045 126.917 241.985C126.965 241.949 127.007 241.913 127.043 241.877C127.079 241.829 127.121 241.787 127.169 241.751C127.277 241.679 127.385 241.607 127.493 241.535C127.613 241.463 127.733 241.397 127.853 241.337C127.973 241.289 128.093 241.247 128.213 241.211C128.345 241.175 128.477 241.139 128.609 241.103C128.645 241.091 128.711 241.091 128.807 241.103C128.915 241.103 128.981 241.091 129.005 241.067ZM133.211 237.881C133.295 237.977 133.337 238.121 133.337 238.313C133.337 238.505 133.337 238.691 133.337 238.871C133.337 239.027 133.337 239.189 133.337 239.357C133.337 239.525 133.295 239.639 133.211 239.699C133.139 239.759 133.043 239.795 132.923 239.807C132.815 239.819 132.695 239.825 132.563 239.825H131.555C131.423 239.825 131.303 239.819 131.195 239.807C131.099 239.795 131.015 239.759 130.943 239.699C130.895 239.663 130.859 239.597 130.835 239.501C130.823 239.393 130.811 239.279 130.799 239.159C130.799 239.027 130.799 238.895 130.799 238.763C130.811 238.631 130.817 238.517 130.817 238.421C130.817 238.325 130.817 238.241 130.817 238.169C130.829 238.085 130.853 238.013 130.889 237.953C130.913 237.905 130.943 237.869 130.979 237.845C131.027 237.821 131.075 237.797 131.123 237.773C131.147 237.773 131.177 237.773 131.213 237.773C131.249 237.761 131.279 237.755 131.303 237.755H132.617C132.737 237.755 132.851 237.761 132.959 237.773C133.067 237.785 133.151 237.821 133.211 237.881ZM133.337 249.599C133.337 249.839 133.331 250.043 133.319 250.211C133.307 250.379 133.199 250.493 132.995 250.553C132.923 250.577 132.845 250.589 132.761 250.589C132.677 250.577 132.587 250.571 132.491 250.571H131.483C131.375 250.571 131.267 250.565 131.159 250.553C131.063 250.541 130.991 250.505 130.943 250.445C130.871 250.361 130.829 250.259 130.817 250.139C130.817 250.007 130.817 249.869 130.817 249.725V242.129C130.817 242.009 130.817 241.889 130.817 241.769C130.817 241.649 130.841 241.553 130.889 241.481C130.961 241.397 131.063 241.343 131.195 241.319C131.219 241.307 131.249 241.307 131.285 241.319C131.333 241.319 131.369 241.313 131.393 241.301H132.293C132.365 241.301 132.443 241.301 132.527 241.301C132.623 241.289 132.701 241.289 132.761 241.301H132.905C132.977 241.325 133.043 241.343 133.103 241.355C133.163 241.367 133.211 241.403 133.247 241.463C133.295 241.523 133.319 241.607 133.319 241.715C133.331 241.823 133.337 241.937 133.337 242.057V249.599ZM144.17 245.855C144.194 245.951 144.194 246.059 144.17 246.179C144.146 246.299 144.104 246.377 144.044 246.413C143.984 246.461 143.894 246.497 143.774 246.521C143.666 246.533 143.54 246.545 143.396 246.557C143.264 246.557 143.126 246.557 142.982 246.557C142.85 246.545 142.73 246.539 142.622 246.539H138.23C138.146 246.539 138.062 246.539 137.978 246.539C137.906 246.539 137.84 246.551 137.78 246.575C137.684 246.623 137.624 246.671 137.6 246.719C137.576 246.743 137.552 246.791 137.528 246.863C137.504 246.923 137.498 246.983 137.51 247.043C137.534 247.115 137.546 247.187 137.546 247.259C137.558 247.319 137.576 247.385 137.6 247.457C137.696 247.745 137.81 247.985 137.942 248.177C138.086 248.357 138.278 248.519 138.518 248.663C138.614 248.723 138.71 248.765 138.806 248.789C138.914 248.801 139.022 248.825 139.13 248.861C139.226 248.885 139.358 248.903 139.526 248.915C139.694 248.927 139.838 248.921 139.958 248.897H140.12C140.24 248.873 140.348 248.849 140.444 248.825C140.552 248.789 140.654 248.753 140.75 248.717C140.87 248.657 141.002 248.579 141.146 248.483C141.302 248.387 141.416 248.291 141.488 248.195C141.548 248.111 141.608 248.033 141.668 247.961C141.74 247.877 141.824 247.817 141.92 247.781C142.04 247.721 142.19 247.697 142.37 247.709C142.562 247.709 142.736 247.709 142.892 247.709C142.964 247.709 143.036 247.709 143.108 247.709C143.192 247.697 143.264 247.703 143.324 247.727H143.504C143.624 247.751 143.708 247.781 143.756 247.817C143.804 247.841 143.828 247.895 143.828 247.979C143.84 248.063 143.834 248.135 143.81 248.195C143.75 248.363 143.684 248.513 143.612 248.645C143.54 248.777 143.456 248.909 143.36 249.041C143.096 249.437 142.796 249.755 142.46 249.995C142.124 250.235 141.704 250.439 141.2 250.607C141.068 250.655 140.936 250.685 140.804 250.697C140.672 250.709 140.534 250.733 140.39 250.769C140.342 250.781 140.288 250.781 140.228 250.769C140.18 250.769 140.132 250.775 140.084 250.787H139.886C139.826 250.811 139.754 250.817 139.67 250.805C139.598 250.805 139.532 250.799 139.472 250.787C139.376 250.775 139.292 250.775 139.22 250.787C139.148 250.799 139.07 250.793 138.986 250.769C138.926 250.745 138.86 250.733 138.788 250.733C138.716 250.733 138.65 250.721 138.59 250.697C138.458 250.673 138.326 250.643 138.194 250.607C138.062 250.583 137.942 250.541 137.834 250.481C137.702 250.433 137.576 250.391 137.456 250.355C137.348 250.307 137.246 250.253 137.15 250.193C136.766 249.953 136.424 249.677 136.124 249.365C135.824 249.041 135.578 248.669 135.386 248.249C135.326 248.117 135.278 247.985 135.242 247.853C135.206 247.709 135.158 247.565 135.098 247.421C135.086 247.373 135.08 247.331 135.08 247.295C135.08 247.247 135.074 247.199 135.062 247.151C135.014 247.007 134.984 246.851 134.972 246.683C134.96 246.515 134.948 246.347 134.936 246.179C134.936 246.119 134.93 246.053 134.918 245.981C134.918 245.909 134.924 245.843 134.936 245.783V245.567L134.99 245.135C135.038 244.931 135.08 244.733 135.116 244.541C135.152 244.349 135.206 244.169 135.278 244.001C135.794 242.753 136.67 241.871 137.906 241.355C138.074 241.283 138.242 241.235 138.41 241.211C138.59 241.175 138.776 241.133 138.968 241.085C139.064 241.073 139.154 241.067 139.238 241.067C139.322 241.067 139.412 241.061 139.508 241.049C140.12 241.037 140.642 241.109 141.074 241.265C141.518 241.409 141.914 241.601 142.262 241.841C142.37 241.913 142.478 241.997 142.586 242.093C142.694 242.177 142.79 242.267 142.874 242.363C142.91 242.423 142.958 242.471 143.018 242.507C143.114 242.639 143.204 242.777 143.288 242.921C143.372 243.053 143.462 243.191 143.558 243.335C143.618 243.443 143.666 243.557 143.702 243.677C143.75 243.785 143.798 243.905 143.846 244.037C143.906 244.193 143.954 244.355 143.99 244.523C144.026 244.691 144.068 244.859 144.116 245.027C144.14 245.123 144.146 245.231 144.134 245.351C144.134 245.459 144.146 245.561 144.17 245.657V245.855ZM141.47 244.793C141.554 244.673 141.56 244.529 141.488 244.361C141.428 244.181 141.38 244.049 141.344 243.965C141.176 243.641 140.954 243.395 140.678 243.227C140.402 243.047 140.018 242.951 139.526 242.939C139.49 242.963 139.448 242.969 139.4 242.957C139.352 242.945 139.31 242.945 139.274 242.957C139.214 242.981 139.148 242.999 139.076 243.011C139.004 243.011 138.938 243.023 138.878 243.047C138.35 243.215 137.96 243.545 137.708 244.037C137.684 244.085 137.654 244.151 137.618 244.235C137.594 244.307 137.576 244.385 137.564 244.469C137.552 244.541 137.552 244.613 137.564 244.685C137.588 244.757 137.63 244.817 137.69 244.865C137.786 244.925 137.918 244.955 138.086 244.955C138.254 244.955 138.416 244.955 138.572 244.955H140.57C140.738 244.955 140.912 244.955 141.092 244.955C141.284 244.943 141.41 244.889 141.47 244.793ZM150.977 241.067C151.697 241.043 152.297 241.145 152.777 241.373C153.257 241.601 153.635 241.937 153.911 242.381C153.995 242.513 154.061 242.657 154.109 242.813C154.157 242.957 154.205 243.107 154.253 243.263C154.277 243.359 154.289 243.449 154.289 243.533C154.301 243.617 154.319 243.701 154.343 243.785C154.343 243.857 154.349 243.905 154.361 243.929C154.385 244.097 154.397 244.271 154.397 244.451C154.397 244.631 154.397 244.805 154.397 244.973V246.575V249.491C154.397 249.719 154.391 249.941 154.379 250.157C154.379 250.361 154.295 250.493 154.127 250.553C154.055 250.577 153.971 250.589 153.875 250.589C153.779 250.589 153.683 250.589 153.587 250.589H152.615C152.471 250.589 152.339 250.583 152.219 250.571C152.111 250.547 152.027 250.493 151.967 250.409C151.919 250.337 151.889 250.247 151.877 250.139C151.877 250.019 151.877 249.893 151.877 249.761V248.501V245.819C151.877 245.375 151.859 244.967 151.823 244.595C151.787 244.211 151.679 243.887 151.499 243.623C151.331 243.383 151.085 243.215 150.761 243.119C150.701 243.095 150.635 243.083 150.563 243.083C150.503 243.083 150.437 243.071 150.365 243.047C150.305 243.035 150.227 243.035 150.131 243.047C150.047 243.047 149.981 243.053 149.933 243.065C149.885 243.077 149.843 243.083 149.807 243.083C149.771 243.083 149.735 243.089 149.699 243.101C149.423 243.173 149.201 243.269 149.033 243.389C148.649 243.665 148.421 244.067 148.349 244.595C148.277 245.123 148.241 245.717 148.241 246.377V248.627V249.725C148.241 249.833 148.241 249.941 148.241 250.049C148.241 250.157 148.223 250.247 148.187 250.319C148.127 250.451 148.031 250.529 147.899 250.553C147.767 250.577 147.605 250.589 147.413 250.589H146.513C146.381 250.589 146.249 250.583 146.117 250.571C145.985 250.559 145.889 250.517 145.829 250.445C145.745 250.337 145.703 250.181 145.703 249.977C145.715 249.773 145.721 249.581 145.721 249.401V246.953V242.993V242.075C145.721 241.943 145.721 241.823 145.721 241.715C145.733 241.607 145.769 241.517 145.829 241.445C145.853 241.409 145.889 241.385 145.937 241.373C145.997 241.349 146.057 241.331 146.117 241.319H146.207C146.267 241.307 146.327 241.301 146.387 241.301C146.459 241.301 146.525 241.301 146.585 241.301H147.341C147.437 241.301 147.527 241.307 147.611 241.319C147.707 241.319 147.791 241.331 147.863 241.355C147.947 241.391 148.001 241.445 148.025 241.517C148.061 241.589 148.091 241.673 148.115 241.769C148.127 241.817 148.127 241.859 148.115 241.895C148.115 241.931 148.127 241.967 148.151 242.003C148.175 242.063 148.193 242.099 148.205 242.111C148.229 242.123 148.259 242.141 148.295 242.165C148.427 242.177 148.535 242.135 148.619 242.039C148.703 241.931 148.793 241.847 148.889 241.787C149.213 241.547 149.573 241.355 149.969 241.211C150.077 241.175 150.185 241.151 150.293 241.139C150.413 241.127 150.539 241.109 150.671 241.085C150.707 241.073 150.761 241.073 150.833 241.085C150.905 241.085 150.953 241.079 150.977 241.067ZM160.621 241.049C161.593 241.025 162.403 241.169 163.051 241.481C163.711 241.793 164.233 242.237 164.617 242.813C164.809 243.101 164.953 243.431 165.049 243.803C165.073 243.863 165.091 243.941 165.103 244.037C165.127 244.133 165.127 244.217 165.103 244.289C165.055 244.421 164.971 244.499 164.851 244.523C164.731 244.535 164.587 244.541 164.419 244.541H163.483C163.375 244.541 163.261 244.541 163.141 244.541C163.033 244.541 162.943 244.517 162.871 244.469C162.775 244.421 162.709 244.349 162.673 244.253C162.637 244.145 162.589 244.037 162.529 243.929C162.457 243.797 162.379 243.677 162.295 243.569C162.211 243.461 162.115 243.365 162.007 243.281C161.839 243.173 161.653 243.089 161.449 243.029C161.377 243.005 161.305 242.993 161.233 242.993C161.161 242.993 161.095 242.981 161.035 242.957H160.855C160.615 242.957 160.423 242.981 160.279 243.029C159.931 243.137 159.649 243.305 159.433 243.533C159.217 243.749 159.043 244.013 158.911 244.325C158.851 244.457 158.803 244.601 158.767 244.757C158.743 244.901 158.713 245.057 158.677 245.225C158.665 245.273 158.659 245.321 158.659 245.369C158.659 245.417 158.653 245.465 158.641 245.513C158.617 245.633 158.605 245.801 158.605 246.017C158.617 246.233 158.635 246.401 158.659 246.521C158.659 246.617 158.665 246.683 158.677 246.719C158.701 246.803 158.713 246.887 158.713 246.971C158.725 247.055 158.743 247.139 158.767 247.223C158.863 247.499 158.977 247.751 159.109 247.979C159.241 248.207 159.409 248.399 159.613 248.555C159.661 248.591 159.733 248.633 159.829 248.681C159.961 248.765 160.093 248.819 160.225 248.843C160.369 248.867 160.543 248.891 160.747 248.915C160.771 248.915 160.807 248.915 160.855 248.915C160.903 248.915 160.939 248.909 160.963 248.897H161.125C161.209 248.873 161.287 248.855 161.359 248.843C161.443 248.819 161.521 248.795 161.593 248.771C161.953 248.615 162.229 248.387 162.421 248.087C162.469 248.027 162.511 247.961 162.547 247.889C162.583 247.805 162.613 247.733 162.637 247.673C162.685 247.541 162.727 247.427 162.763 247.331C162.799 247.223 162.883 247.139 163.015 247.079C163.123 247.031 163.297 247.013 163.537 247.025C163.777 247.025 163.975 247.025 164.131 247.025C164.215 247.025 164.299 247.025 164.383 247.025C164.479 247.013 164.557 247.019 164.617 247.043H164.761C164.809 247.055 164.857 247.067 164.905 247.079C164.953 247.079 164.989 247.091 165.013 247.115C165.073 247.163 165.109 247.235 165.121 247.331C165.145 247.415 165.145 247.505 165.121 247.601C165.013 247.997 164.881 248.351 164.725 248.663C164.233 249.587 163.447 250.229 162.367 250.589C162.247 250.625 162.121 250.649 161.989 250.661C161.857 250.685 161.725 250.715 161.593 250.751C161.521 250.763 161.449 250.769 161.377 250.769C161.305 250.769 161.233 250.775 161.161 250.787H160.963C160.903 250.811 160.813 250.817 160.693 250.805C160.573 250.805 160.483 250.799 160.423 250.787C160.327 250.763 160.237 250.751 160.153 250.751C160.081 250.763 160.003 250.757 159.919 250.733C159.859 250.721 159.799 250.709 159.739 250.697C159.679 250.697 159.619 250.691 159.559 250.679C159.427 250.643 159.301 250.607 159.181 250.571C159.061 250.535 158.947 250.493 158.839 250.445C158.275 250.205 157.801 249.899 157.417 249.527C157.033 249.143 156.721 248.669 156.481 248.105C156.421 247.997 156.373 247.883 156.337 247.763C156.301 247.631 156.265 247.499 156.229 247.367C156.217 247.319 156.211 247.277 156.211 247.241C156.211 247.193 156.199 247.139 156.175 247.079C156.151 246.995 156.139 246.911 156.139 246.827C156.139 246.731 156.127 246.641 156.103 246.557V246.251C156.079 246.191 156.067 246.125 156.067 246.053C156.067 245.969 156.079 245.897 156.103 245.837C156.115 245.777 156.115 245.723 156.103 245.675C156.091 245.627 156.091 245.579 156.103 245.531C156.127 245.447 156.133 245.369 156.121 245.297C156.121 245.225 156.133 245.153 156.157 245.081C156.217 244.865 156.265 244.661 156.301 244.469C156.337 244.265 156.391 244.067 156.463 243.875C156.727 243.263 157.057 242.753 157.453 242.345C157.861 241.937 158.377 241.607 159.001 241.355C159.169 241.283 159.343 241.235 159.523 241.211C159.703 241.175 159.889 241.133 160.081 241.085C160.177 241.073 160.267 241.067 160.351 241.067C160.435 241.067 160.525 241.061 160.621 241.049ZM175.511 245.855C175.535 245.951 175.535 246.059 175.511 246.179C175.487 246.299 175.445 246.377 175.385 246.413C175.325 246.461 175.235 246.497 175.115 246.521C175.007 246.533 174.881 246.545 174.737 246.557C174.605 246.557 174.467 246.557 174.323 246.557C174.191 246.545 174.071 246.539 173.963 246.539H169.571C169.487 246.539 169.403 246.539 169.319 246.539C169.247 246.539 169.181 246.551 169.121 246.575C169.025 246.623 168.965 246.671 168.941 246.719C168.917 246.743 168.893 246.791 168.869 246.863C168.845 246.923 168.839 246.983 168.851 247.043C168.875 247.115 168.887 247.187 168.887 247.259C168.899 247.319 168.917 247.385 168.941 247.457C169.037 247.745 169.151 247.985 169.283 248.177C169.427 248.357 169.619 248.519 169.859 248.663C169.955 248.723 170.051 248.765 170.147 248.789C170.255 248.801 170.363 248.825 170.471 248.861C170.567 248.885 170.699 248.903 170.867 248.915C171.035 248.927 171.179 248.921 171.299 248.897H171.461C171.581 248.873 171.689 248.849 171.785 248.825C171.893 248.789 171.995 248.753 172.091 248.717C172.211 248.657 172.343 248.579 172.487 248.483C172.643 248.387 172.757 248.291 172.829 248.195C172.889 248.111 172.949 248.033 173.009 247.961C173.081 247.877 173.165 247.817 173.261 247.781C173.381 247.721 173.531 247.697 173.711 247.709C173.903 247.709 174.077 247.709 174.233 247.709C174.305 247.709 174.377 247.709 174.449 247.709C174.533 247.697 174.605 247.703 174.665 247.727H174.845C174.965 247.751 175.049 247.781 175.097 247.817C175.145 247.841 175.169 247.895 175.169 247.979C175.181 248.063 175.175 248.135 175.151 248.195C175.091 248.363 175.025 248.513 174.953 248.645C174.881 248.777 174.797 248.909 174.701 249.041C174.437 249.437 174.137 249.755 173.801 249.995C173.465 250.235 173.045 250.439 172.541 250.607C172.409 250.655 172.277 250.685 172.145 250.697C172.013 250.709 171.875 250.733 171.731 250.769C171.683 250.781 171.629 250.781 171.569 250.769C171.521 250.769 171.473 250.775 171.425 250.787H171.227C171.167 250.811 171.095 250.817 171.011 250.805C170.939 250.805 170.873 250.799 170.813 250.787C170.717 250.775 170.633 250.775 170.561 250.787C170.489 250.799 170.411 250.793 170.327 250.769C170.267 250.745 170.201 250.733 170.129 250.733C170.057 250.733 169.991 250.721 169.931 250.697C169.799 250.673 169.667 250.643 169.535 250.607C169.403 250.583 169.283 250.541 169.175 250.481C169.043 250.433 168.917 250.391 168.797 250.355C168.689 250.307 168.587 250.253 168.491 250.193C168.107 249.953 167.765 249.677 167.465 249.365C167.165 249.041 166.919 248.669 166.727 248.249C166.667 248.117 166.619 247.985 166.583 247.853C166.547 247.709 166.499 247.565 166.439 247.421C166.427 247.373 166.421 247.331 166.421 247.295C166.421 247.247 166.415 247.199 166.403 247.151C166.355 247.007 166.325 246.851 166.313 246.683C166.301 246.515 166.289 246.347 166.277 246.179C166.277 246.119 166.271 246.053 166.259 245.981C166.259 245.909 166.265 245.843 166.277 245.783V245.567L166.331 245.135C166.379 244.931 166.421 244.733 166.457 244.541C166.493 244.349 166.547 244.169 166.619 244.001C167.135 242.753 168.011 241.871 169.247 241.355C169.415 241.283 169.583 241.235 169.751 241.211C169.931 241.175 170.117 241.133 170.309 241.085C170.405 241.073 170.495 241.067 170.579 241.067C170.663 241.067 170.753 241.061 170.849 241.049C171.461 241.037 171.983 241.109 172.415 241.265C172.859 241.409 173.255 241.601 173.603 241.841C173.711 241.913 173.819 241.997 173.927 242.093C174.035 242.177 174.131 242.267 174.215 242.363C174.251 242.423 174.299 242.471 174.359 242.507C174.455 242.639 174.545 242.777 174.629 242.921C174.713 243.053 174.803 243.191 174.899 243.335C174.959 243.443 175.007 243.557 175.043 243.677C175.091 243.785 175.139 243.905 175.187 244.037C175.247 244.193 175.295 244.355 175.331 244.523C175.367 244.691 175.409 244.859 175.457 245.027C175.481 245.123 175.487 245.231 175.475 245.351C175.475 245.459 175.487 245.561 175.511 245.657V245.855ZM172.811 244.793C172.895 244.673 172.901 244.529 172.829 244.361C172.769 244.181 172.721 244.049 172.685 243.965C172.517 243.641 172.295 243.395 172.019 243.227C171.743 243.047 171.359 242.951 170.867 242.939C170.831 242.963 170.789 242.969 170.741 242.957C170.693 242.945 170.651 242.945 170.615 242.957C170.555 242.981 170.489 242.999 170.417 243.011C170.345 243.011 170.279 243.023 170.219 243.047C169.691 243.215 169.301 243.545 169.049 244.037C169.025 244.085 168.995 244.151 168.959 244.235C168.935 244.307 168.917 244.385 168.905 244.469C168.893 244.541 168.893 244.613 168.905 244.685C168.929 244.757 168.971 244.817 169.031 244.865C169.127 244.925 169.259 244.955 169.427 244.955C169.595 244.955 169.757 244.955 169.913 244.955H171.911C172.079 244.955 172.253 244.955 172.433 244.955C172.625 244.943 172.751 244.889 172.811 244.793ZM180.573 241.049C181.473 241.025 182.253 241.127 182.913 241.355C183.585 241.571 184.095 241.949 184.443 242.489C184.527 242.621 184.599 242.759 184.659 242.903C184.731 243.035 184.791 243.185 184.839 243.353C184.863 243.425 184.875 243.503 184.875 243.587C184.875 243.671 184.863 243.743 184.839 243.803C184.791 243.875 184.725 243.923 184.641 243.947C184.581 243.971 184.509 243.983 184.425 243.983C184.341 243.983 184.257 243.983 184.173 243.983H183.381C183.297 243.983 183.213 243.989 183.129 244.001C183.045 244.001 182.967 243.989 182.895 243.965C182.775 243.941 182.685 243.893 182.625 243.821C182.565 243.749 182.511 243.677 182.463 243.605C182.415 243.521 182.367 243.437 182.319 243.353C182.283 243.257 182.223 243.179 182.139 243.119C182.019 243.023 181.899 242.951 181.779 242.903C181.671 242.855 181.533 242.813 181.365 242.777C181.281 242.753 181.155 242.735 180.987 242.723C180.831 242.711 180.711 242.717 180.627 242.741H180.501C180.441 242.753 180.381 242.765 180.321 242.777C180.273 242.777 180.219 242.783 180.159 242.795C179.955 242.855 179.787 242.939 179.655 243.047C179.535 243.143 179.451 243.293 179.403 243.497C179.379 243.581 179.379 243.659 179.403 243.731C179.427 243.803 179.451 243.863 179.475 243.911C179.559 244.055 179.655 244.169 179.763 244.253C179.883 244.337 180.021 244.409 180.177 244.469C180.405 244.565 180.651 244.649 180.915 244.721C181.191 244.781 181.467 244.841 181.743 244.901C182.031 244.949 182.307 245.009 182.571 245.081C182.847 245.141 183.105 245.219 183.345 245.315C183.453 245.363 183.555 245.405 183.651 245.441C183.759 245.465 183.861 245.507 183.957 245.567C184.185 245.711 184.389 245.867 184.569 246.035C184.761 246.203 184.911 246.413 185.019 246.665C185.055 246.749 185.085 246.833 185.109 246.917C185.133 247.001 185.157 247.091 185.181 247.187C185.193 247.259 185.199 247.373 185.199 247.529C185.211 247.673 185.211 247.787 185.199 247.871V247.961C185.175 248.033 185.157 248.105 185.145 248.177C185.145 248.237 185.139 248.297 185.127 248.357C185.043 248.717 184.911 249.035 184.731 249.311C184.539 249.599 184.305 249.833 184.029 250.013C183.753 250.193 183.441 250.349 183.093 250.481C182.961 250.541 182.817 250.583 182.661 250.607C182.517 250.631 182.373 250.661 182.229 250.697C182.121 250.721 182.007 250.733 181.887 250.733C181.779 250.745 181.671 250.763 181.563 250.787H181.239C181.167 250.811 181.041 250.823 180.861 250.823C180.693 250.823 180.573 250.811 180.501 250.787C180.465 250.787 180.423 250.781 180.375 250.769C180.339 250.769 180.297 250.769 180.249 250.769C180.105 250.745 179.961 250.727 179.817 250.715C179.673 250.703 179.535 250.679 179.403 250.643C178.935 250.511 178.521 250.361 178.161 250.193C177.801 250.013 177.495 249.749 177.243 249.401C177.075 249.173 176.931 248.909 176.811 248.609C176.787 248.537 176.763 248.441 176.739 248.321C176.715 248.261 176.697 248.177 176.685 248.069C176.673 247.961 176.679 247.871 176.703 247.799C176.739 247.715 176.799 247.655 176.883 247.619C176.943 247.595 177.015 247.583 177.099 247.583C177.183 247.583 177.273 247.583 177.369 247.583H178.215C178.311 247.583 178.407 247.583 178.503 247.583C178.599 247.583 178.683 247.595 178.755 247.619C178.887 247.667 178.971 247.745 179.007 247.853C179.055 247.961 179.109 248.075 179.169 248.195C179.193 248.255 179.235 248.333 179.295 248.429C179.367 248.525 179.427 248.585 179.475 248.609C179.619 248.729 179.757 248.825 179.889 248.897C180.021 248.957 180.189 249.017 180.393 249.077C180.453 249.101 180.513 249.113 180.573 249.113C180.633 249.101 180.693 249.101 180.753 249.113C180.849 249.137 180.951 249.149 181.059 249.149C181.179 249.137 181.281 249.119 181.365 249.095C181.425 249.083 181.479 249.077 181.527 249.077C181.587 249.077 181.647 249.065 181.707 249.041C181.875 248.981 182.025 248.909 182.157 248.825C182.301 248.741 182.415 248.633 182.499 248.501C182.559 248.405 182.607 248.255 182.643 248.051C182.667 247.967 182.667 247.889 182.643 247.817C182.619 247.745 182.595 247.685 182.571 247.637C182.487 247.469 182.379 247.343 182.247 247.259C182.127 247.175 181.983 247.097 181.815 247.025C181.587 246.929 181.347 246.851 181.095 246.791C180.843 246.731 180.591 246.665 180.339 246.593C180.243 246.569 180.141 246.551 180.033 246.539C179.937 246.527 179.841 246.509 179.745 246.485C179.361 246.377 178.995 246.275 178.647 246.179C178.299 246.071 177.981 245.915 177.693 245.711C177.357 245.471 177.111 245.147 176.955 244.739C176.931 244.655 176.907 244.541 176.883 244.397C176.859 244.313 176.841 244.211 176.829 244.091C176.817 243.971 176.823 243.863 176.847 243.767C176.871 243.707 176.877 243.659 176.865 243.623C176.853 243.575 176.859 243.521 176.883 243.461C176.907 243.329 176.931 243.209 176.955 243.101C176.991 242.981 177.033 242.867 177.081 242.759C177.237 242.411 177.453 242.129 177.729 241.913C178.005 241.697 178.317 241.523 178.665 241.391C178.797 241.331 178.935 241.289 179.079 241.265C179.223 241.229 179.373 241.193 179.529 241.157C179.601 241.133 179.673 241.121 179.745 241.121C179.817 241.109 179.889 241.097 179.961 241.085C180.057 241.073 180.159 241.067 180.267 241.067C180.375 241.067 180.477 241.061 180.573 241.049Z" fill="#E5E5E5"/>
<path d="M150.125 58.675V200.054" stroke="#FFD369" stroke-width="3.77467"/>
<path d="M200.11 79.3795L100.14 179.35" stroke="#FFD369" stroke-width="3.77467"/>
<path d="M220.814 129.365L79.4349 129.364" stroke="#FFD369" stroke-width="3.77467"/>
<path d="M200.109 179.349L100.139 79.3794" stroke="#FFD369" stroke-width="3.77467"/>
<path d="M139.758 3.14813C143.143 1.06524 147.352 0.840504 150.939 2.55123L170.049 11.6665C172.425 12.7994 175.088 13.1829 177.687 12.7662L198.593 9.41315C202.516 8.78387 206.491 10.1871 209.15 13.1402L223.318 28.8749C225.079 30.8306 227.393 32.2043 229.953 32.8136L250.551 37.7162C254.417 38.6363 257.552 41.454 258.879 45.1998L265.947 65.1586C266.825 67.6392 268.438 69.7939 270.57 71.3365L287.723 83.7484C290.943 86.0779 292.761 89.8809 292.553 93.8492L291.445 114.994C291.308 117.621 291.973 120.229 293.352 122.47L304.45 140.502C306.533 143.886 306.758 148.095 305.047 151.682L295.932 170.793C294.799 173.168 294.415 175.832 294.832 178.43L298.185 199.336C298.814 203.26 297.411 207.235 294.458 209.894L278.723 224.062C276.768 225.823 275.394 228.137 274.785 230.697L269.882 251.295C268.962 255.16 266.144 258.296 262.398 259.622L242.44 266.69C239.959 267.569 237.804 269.181 236.262 271.313L223.85 288.467C221.52 291.686 217.717 293.505 213.749 293.297L192.605 292.189C189.977 292.051 187.369 292.716 185.128 294.095L167.096 305.194C163.712 307.276 159.503 307.501 155.916 305.79L136.805 296.675C134.43 295.542 131.767 295.159 129.168 295.575L108.262 298.929C104.338 299.558 100.363 298.155 97.7044 295.201L83.5366 279.467C81.7758 277.511 79.4616 276.137 76.9016 275.528L56.3037 270.625C52.4379 269.705 49.3025 266.888 47.976 263.142L40.9081 243.183C40.0296 240.702 38.4173 238.548 36.2853 237.005L19.1315 224.593C15.9122 222.264 14.0936 218.461 14.3016 214.492L15.4096 193.348C15.5473 190.72 14.8823 188.113 13.5029 185.871L2.40472 167.84C0.321833 164.456 0.0970956 160.246 1.80782 156.66L10.9231 137.549C12.056 135.174 12.4395 132.51 12.0228 129.912L8.66974 109.005C8.04046 105.082 9.44372 101.107 12.3968 98.4478L28.1315 84.28C30.0871 82.5192 31.4608 80.205 32.0702 77.645L36.9728 57.0471C37.8929 53.1813 40.7105 50.0459 44.4564 48.7194L64.4152 41.6515C66.8958 40.773 69.0505 39.1608 70.5931 37.0288L83.005 19.875C85.3345 16.6556 89.1375 14.837 93.1058 15.045L114.25 16.153C116.878 16.2907 119.486 15.6257 121.727 14.2464L139.758 3.14813Z" stroke="#EEE7DF" stroke-width="1.25822"/>
</svg>
