<svg width="32" height="32" viewBox="0 0 32 32" fill="none" xmlns="http://www.w3.org/2000/svg">
<path d="M16 3.70273C20.005 3.70273 20.4795 3.71773 22.0614 3.79C23.5232 3.85682 24.3182 4.10091 24.8473 4.30682C25.5468 4.57955 26.0473 4.90409 26.5723 5.42909C27.0973 5.95409 27.4218 6.45318 27.6945 7.15409C27.9005 7.68318 28.1445 8.47682 28.2114 9.94C28.2836 11.5218 28.2986 11.9964 28.2986 16.0014C28.2986 20.0064 28.2836 20.4809 28.2114 22.0627C28.1445 23.5259 27.9005 24.3195 27.6945 24.8486C27.4232 25.5482 27.0973 26.0486 26.5723 26.5736C26.0473 27.0986 25.5482 27.4232 24.8473 27.6959C24.3182 27.9018 23.5245 28.1459 22.0614 28.2127C20.4795 28.285 20.005 28.3 16 28.3C11.995 28.3 11.5205 28.285 9.93864 28.2127C8.47682 28.1459 7.68182 27.9018 7.15273 27.6959C6.45318 27.4232 5.95273 27.0986 5.42773 26.5736C4.90273 26.0486 4.57818 25.5495 4.30545 24.8486C4.09955 24.3195 3.85545 23.5259 3.78864 22.0627C3.71773 20.4795 3.70273 20.005 3.70273 16C3.70273 11.995 3.71773 11.5205 3.79 9.93864C3.85682 8.47682 4.10091 7.68182 4.30682 7.15273C4.57955 6.45318 4.90409 5.95273 5.42909 5.42773C5.95409 4.90273 6.45318 4.57818 7.15409 4.30545C7.68318 4.09955 8.47682 3.85545 9.94 3.78864C11.5205 3.71773 11.995 3.70273 16 3.70273ZM16 1C11.9268 1 11.4155 1.01773 9.81591 1.09C8.21909 1.16227 7.12955 1.41591 6.175 1.78682C5.18773 2.17136 4.35182 2.68409 3.51727 3.51727C2.68409 4.35182 2.17136 5.18773 1.78818 6.175C1.41727 7.12955 1.16364 8.21909 1.09136 9.81591C1.01773 11.4155 1 11.9268 1 16C1 20.0745 1.01773 20.5845 1.09 22.1841C1.16227 23.7809 1.41591 24.8718 1.78682 25.825C2.17 26.8109 2.68273 27.6482 3.51727 28.4814C4.35182 29.3159 5.18773 29.8286 6.17364 30.2118C7.12818 30.5827 8.21773 30.8364 9.81455 30.9086C11.4155 30.9823 11.9268 31 16 31C20.0732 31 20.5845 30.9823 22.1841 30.91C23.7809 30.8377 24.8705 30.5841 25.825 30.2132C26.8109 29.83 27.6482 29.3173 28.4814 28.4827C29.3159 27.6482 29.8286 26.8123 30.2118 25.8264C30.5827 24.8718 30.8364 23.7823 30.9086 22.1855C30.9823 20.5845 31 20.0732 31 16C31 11.9268 30.9823 11.4155 30.91 9.81591C30.8377 8.21909 30.5841 7.12955 30.2132 6.175C29.83 5.18909 29.3173 4.35182 28.4827 3.51864C27.6482 2.68409 26.8123 2.17136 25.8264 1.78818C24.8718 1.41727 23.7823 1.16364 22.1855 1.09136C20.5845 1.01773 20.0732 1 16 1ZM16 8.29682C11.7455 8.29682 8.29682 11.7455 8.29682 16C8.29682 20.2545 11.7455 23.7032 16 23.7032C20.2545 23.7032 23.7032 20.2545 23.7032 16C23.7032 11.7455 20.2545 8.29682 16 8.29682ZM16 21.0005C13.2386 21.0005 10.9995 18.7614 10.9995 16C10.9995 13.2386 13.2386 10.9995 16 10.9995C18.7614 10.9995 21.0005 13.2386 21.0005 16C21.0005 18.7614 18.7614 21.0005 16 21.0005ZM25.8073 7.99273C25.8073 6.99864 25.0014 6.19273 24.0073 6.19273C23.0132 6.19273 22.2073 6.99864 22.2073 7.99273C22.2073 8.98682 23.0132 9.79273 24.0073 9.79273C25.0014 9.79273 25.8073 8.98682 25.8073 7.99273Z" fill="#282326"/>
</svg>
