<svg width="32" height="32" viewBox="0 0 32 32" fill="none" xmlns="http://www.w3.org/2000/svg">
<path d="M27.2457 2H3.75316C2.78559 2 2 2.7857 2 3.7545V27.2455C2 28.2131 2.78559 29 3.75316 29H27.2457C28.2144 29 29 28.2131 29 27.2455V3.7545C29 2.7857 28.2144 2 27.2457 2ZM10.826 23.3375H7.24057V12.2786H10.826V23.3375ZM9.0333 10.7686H9.00956C7.80575 10.7686 7.0292 9.91918 7.0292 8.85767C7.0292 7.77298 7.83174 6.94788 9.05704 6.94788C10.2835 6.94788 11.0385 7.77414 11.0623 8.85767C11.0623 9.91918 10.2835 10.7686 9.0333 10.7686ZM23.7549 23.3375H20.1695V17.4204C20.1695 15.9348 19.6518 14.9208 18.353 14.9208C17.3628 14.9208 16.7728 15.6045 16.5128 16.2662C16.4178 16.5026 16.3952 16.8317 16.3952 17.162V23.3387H12.8098C12.8098 23.3387 12.8561 13.3169 12.8098 12.2798H16.3952V13.8454C16.8711 13.0921 17.7234 12.019 19.6269 12.019C21.9848 12.019 23.7538 13.5997 23.7538 16.9975V23.3375H23.7549Z" fill="#282326"/>
</svg>
