<svg width="82" height="100" viewBox="0 0 82 100" fill="none" xmlns="http://www.w3.org/2000/svg">
<path d="M1.04195 1.13209C0.60997 1.56407 0.429968 2.10419 0.347179 2.71996C0.266871 3.31728 0.268234 4.07533 0.268234 5H1.55147C1.55147 4.03905 1.55283 3.38289 1.61897 2.89095C1.68263 2.41747 1.79552 2.19329 1.94933 2.03948L1.04195 1.13209ZM4.90985 0.358383C3.98518 0.358383 3.22713 0.35702 2.62981 0.437328C2.01404 0.520117 1.47392 0.700119 1.04195 1.13209L1.94933 2.03948C2.10314 1.88567 2.32732 1.77278 2.8008 1.70912C3.29274 1.64298 3.9489 1.64162 4.90985 1.64162V0.358383ZM77.3099 0.358383H4.90985V1.64162H77.3099V0.358383ZM81.1778 1.1321C80.7458 0.700119 80.2057 0.520116 79.5899 0.437328C78.9926 0.35702 78.2345 0.358383 77.3099 0.358383V1.64162C78.2708 1.64162 78.927 1.64298 79.4189 1.70912C79.8924 1.77278 80.1166 1.88567 80.2704 2.03948L81.1778 1.1321ZM81.9515 5C81.9515 4.07533 81.9529 3.31728 81.8726 2.71996C81.7898 2.10419 81.6098 1.56407 81.1778 1.1321L80.2704 2.03948C80.4242 2.19329 80.5371 2.41747 80.6008 2.89095C80.6669 3.38289 80.6683 4.03905 80.6683 5H81.9515ZM81.9515 37.4808V5H80.6683V37.4808H81.9515ZM69.8613 49.5693C69.8613 43.3569 74.8975 38.3208 81.1099 38.3208V37.0376C74.1888 37.0376 68.5781 42.6482 68.5781 49.5693H69.8613ZM81.1099 60.8179C74.8975 60.8179 69.8613 55.7817 69.8613 49.5693H68.5781C68.5781 56.4904 74.1888 62.1011 81.1099 62.1011V60.8179ZM81.9515 94.6941V61.6578H80.6683V94.6941H81.9515ZM81.1778 98.562C81.6098 98.13 81.7898 97.5899 81.8726 96.9741C81.9529 96.3768 81.9515 95.6188 81.9515 94.6941H80.6683C80.6683 95.655 80.6669 96.3112 80.6008 96.8031C80.5371 97.2766 80.4242 97.5008 80.2704 97.6546L81.1778 98.562ZM77.3099 99.3357C78.2346 99.3357 78.9926 99.3371 79.5899 99.2568C80.2057 99.174 80.7458 98.994 81.1778 98.562L80.2704 97.6546C80.1166 97.8084 79.8924 97.9213 79.4189 97.985C78.927 98.0511 78.2708 98.0525 77.3099 98.0525V99.3357ZM4.90986 99.3357H77.3099V98.0525H4.90986V99.3357ZM1.04195 98.562C1.47392 98.994 2.01404 99.174 2.62981 99.2568C3.22713 99.3371 3.98518 99.3357 4.90986 99.3357V98.0525C3.94891 98.0525 3.29274 98.0511 2.8008 97.985C2.32732 97.9213 2.10314 97.8084 1.94933 97.6546L1.04195 98.562ZM0.268234 94.6941C0.268234 95.6188 0.266871 96.3768 0.347179 96.9741C0.429968 97.5899 0.60997 98.13 1.04195 98.562L1.94933 97.6546C1.79552 97.5008 1.68263 97.2766 1.61897 96.8031C1.55283 96.3112 1.55147 95.655 1.55147 94.6941H0.268234ZM0.268234 61.6578V94.6941H1.55147V61.6578H0.268234ZM12.3584 49.5693C12.3584 55.7817 7.32225 60.8179 1.10986 60.8179V62.1011C8.03096 62.1011 13.6416 56.4904 13.6416 49.5693H12.3584ZM1.10986 38.3208C7.32225 38.3208 12.3584 43.3569 12.3584 49.5693H13.6416C13.6416 42.6482 8.03096 37.0376 1.10986 37.0376V38.3208ZM0.268234 5V37.4808H1.55147V5H0.268234ZM1.55147 61.6578C1.55147 61.9091 1.34739 62.1011 1.10986 62.1011V60.8179C0.652471 60.8179 0.268234 61.1867 0.268234 61.6578H1.55147ZM81.1099 62.1011C80.8723 62.1011 80.6683 61.9091 80.6683 61.6578H81.9515C81.9515 61.1867 81.5672 60.8179 81.1099 60.8179V62.1011ZM1.10986 37.0376C1.34739 37.0376 1.55147 37.2295 1.55147 37.4808H0.268234C0.268234 37.952 0.652479 38.3208 1.10986 38.3208V37.0376ZM80.6683 37.4808C80.6683 37.2295 80.8723 37.0376 81.1099 37.0376V38.3208C81.5673 38.3208 81.9515 37.952 81.9515 37.4808H80.6683Z" fill="#EEE7DF"/>
<path d="M40.3475 40.3521V60.2387H41.6307V40.3521H40.3475ZM50.9324 49.6537H31.0458V50.937H50.9324V49.6537Z" fill="#EEE7DF"/>
</svg>
