<?xml version="1.0" encoding="utf-8"?>
<!-- Generator: Adobe Illustrator 25.0.0, SVG Export Plug-In . SVG Version: 6.00 Build 0)  -->
<svg version="1.1" id="Layer_1" xmlns="http://www.w3.org/2000/svg" xmlns:xlink="http://www.w3.org/1999/xlink" x="0px" y="0px"
	 viewBox="0 0 150.7 181.3" style="enable-background:new 0 0 150.7 181.3;" xml:space="preserve">
<style type="text/css">
	.st0{fill:#EEE7DF;}
	.st1{fill:#282326;}
</style>
<path class="st0" d="M68.3,3.5c4.4-2.7,9.8-2.7,14.2,0l61.8,37.8c4,2.5,6.5,6.9,6.5,11.6v77.1c0,4.7-2.5,9.1-6.5,11.6l-61.8,37.8
	c-4.4,2.7-9.8,2.7-14.2,0L6.5,141.5c-4-2.5-6.5-6.9-6.5-11.6V52.9c0-4.7,2.5-9.1,6.5-11.6L68.3,3.5z"/>
<path class="st1" d="M73.8,72.9v37.1h3V72.9H73.8z M93.9,89.9H56.8v3h37.1V89.9z"/>
</svg>
