<svg width="89" height="101" viewBox="0 0 89 101" fill="none" xmlns="http://www.w3.org/2000/svg">
<path fill="#EEE7DF" d="M58.0653 3.52946C71.0342 -4.09929 87.3833 5.25152 87.3833 20.2978V83.9314C87.3833 96.4699 73.7591 104.262 62.9517 97.9049L45.4513 87.6106C44.9568 87.3197 44.7095 87.1743 44.4372 87.1743C44.1649 87.1743 43.9177 87.3197 43.4232 87.6106L25.9228 97.9049C15.1154 104.262 1.49115 96.4699 1.49115 83.9314L1.49115 20.2977C1.49115 5.25149 17.8403 -4.09929 30.8091 3.52946L43.4232 10.9495C43.9177 11.2404 44.1649 11.3858 44.4372 11.3858C44.7095 11.3858 44.9568 11.2404 45.4513 10.9495L58.0653 3.52946Z" stroke="#EEE7DF" stroke-width="1.28323"/>
<path d="M43.7956 40.5479V60.4345H45.0788V40.5479H43.7956ZM54.3805 49.8495H34.4939V51.1328H54.3805V49.8495Z" fill="#000000"/>
</svg>
