<svg width="82" height="98" viewBox="0 0 82 98" fill="none" xmlns="http://www.w3.org/2000/svg">
<path fill-rule="evenodd" clip-rule="evenodd" d="M1.49564 0.771822C0.909851 1.35761 0.909851 2.30042 0.909851 4.18604V93.8801C0.909851 95.7657 0.909851 96.7086 1.49564 97.2943C2.08142 97.8801 3.02423 97.8801 4.90986 97.8801H77.3099C79.1955 97.8801 80.1383 97.8801 80.7241 97.2943C81.3099 96.7086 81.3099 95.7657 81.3099 93.8801V60.6439C81.2433 60.645 81.1767 60.6455 81.1099 60.6455C74.5431 60.6455 69.2197 55.3221 69.2197 48.7554C69.2197 42.1886 74.5431 36.8652 81.1099 36.8652C81.1767 36.8652 81.2433 36.8658 81.3099 36.8669V4.18604C81.3099 2.30042 81.3099 1.35761 80.7241 0.771822C80.1383 0.186035 79.1955 0.186035 77.3099 0.186035H4.90985C3.02423 0.186035 2.08142 0.186035 1.49564 0.771822Z"  fill="#EEE7DF"/>
<path d="M40.3796 42.3521V62.2387H41.6628V42.3521H40.3796ZM50.9645 51.6537H31.0779V52.937H50.9645V51.6537Z" fill="#000000"/>
</svg>
