<svg width="85" height="101" viewBox="0 0 85 101" fill="none" xmlns="http://www.w3.org/2000/svg">
<path fill-rule="evenodd" clip-rule="evenodd" d="M45.8701 101C66.2946 101 82.9748 84.9688 84.0148 64.8031C84.0621 63.8853 84.0858 63.4263 83.7901 63.115C83.4944 62.8036 83.0183 62.8036 82.0662 62.8036L74.1503 62.8036C71.6121 62.8036 70.343 62.8036 70.0886 62.1829C69.8341 61.5622 70.7818 60.6284 72.6773 58.7608C79.2649 52.2698 83.5065 43.4044 84.0147 33.552C84.0621 32.6338 84.0858 32.1747 83.7901 31.8633C83.4944 31.552 83.0183 31.552 82.0662 31.552L74.1508 31.552C71.6126 31.552 70.3436 31.552 70.0891 30.9312C69.8347 30.3105 70.7824 29.3767 72.6777 27.5092C79.265 21.0182 83.5065 12.153 84.0147 2.30086C84.0621 1.3826 84.0858 0.923478 83.7901 0.61213C83.4944 0.300781 83.0183 0.300781 82.0662 0.300781L2.06582 0.300778C1.12302 0.300778 0.651613 0.300778 0.35872 0.593671C0.0658264 0.886564 0.0658264 1.35797 0.0658263 2.30078L0.065825 31.552L0.0658247 38.4968L0.0658237 62.8036L0.0658234 69.748L0.0658221 98.9997C0.0658221 99.9425 0.065822 100.414 0.358715 100.707C0.651608 101 1.12301 101 2.06582 101L45.8701 101Z" fill="#EEE7DF"/>
<path d="M40.3796 42.3521V62.2387H41.6628V42.3521H40.3796ZM50.9645 51.6537H31.0779V52.937H50.9645V51.6537Z" fill="#000000"/>
</svg>
