<svg width="88" height="105" viewBox="0 0 88 105" fill="none" xmlns="http://www.w3.org/2000/svg">
<path d="M43.2464 42.3521V62.2387H44.5297V42.3521H43.2464ZM53.8313 51.6537H33.9447V52.937H53.8313V51.6537Z" fill="#EEE7DF"/>
<path d="M4.93716 23.3482L5.27222 23.8953L4.93716 23.3482ZM4.93716 81.2426L4.6021 81.7898L4.93716 81.2426ZM48.436 102.309L48.101 101.762L48.436 102.309ZM39.3401 102.309L39.6751 101.762L39.3401 102.309ZM82.8389 81.2426L83.174 81.7898L82.8389 81.2426ZM82.8389 23.3482L82.5039 23.8953L82.8389 23.3482ZM48.436 2.28184L48.7711 1.73466L48.436 2.28184ZM39.3401 2.28185L39.005 1.73467L39.3401 2.28185ZM48.101 2.82902L82.5039 23.8953L83.174 22.801L48.7711 1.73466L48.101 2.82902ZM86.3584 30.7754V73.8154H87.6416V30.7754H86.3584ZM82.5039 80.6954L48.101 101.762L48.7711 102.856L83.174 81.7898L82.5039 80.6954ZM39.6751 101.762L5.27222 80.6954L4.6021 81.7898L39.005 102.856L39.6751 101.762ZM1.41771 73.8154V30.7754H0.134475V73.8154H1.41771ZM5.27222 23.8953L39.6751 2.82903L39.005 1.73467L4.6021 22.801L5.27222 23.8953ZM1.41771 30.7754C1.41771 27.9675 2.87764 25.3616 5.27222 23.8953L4.6021 22.801C1.82663 24.5005 0.134475 27.5209 0.134475 30.7754H1.41771ZM5.27222 80.6954C2.87765 79.2291 1.41771 76.6232 1.41771 73.8154H0.134475C0.134475 77.0699 1.82664 80.0902 4.6021 81.7898L5.27222 80.6954ZM48.101 101.762C45.5155 103.345 42.2606 103.345 39.6751 101.762L39.005 102.856C42.0018 104.691 45.7743 104.691 48.7711 102.856L48.101 101.762ZM86.3584 73.8154C86.3584 76.6232 84.8985 79.2291 82.5039 80.6954L83.174 81.7898C85.9495 80.0902 87.6416 77.0699 87.6416 73.8154H86.3584ZM82.5039 23.8953C84.8984 25.3616 86.3584 27.9675 86.3584 30.7754H87.6416C87.6416 27.5209 85.9495 24.5005 83.174 22.801L82.5039 23.8953ZM48.7711 1.73466C45.7743 -0.10038 42.0018 -0.100375 39.005 1.73467L39.6751 2.82903C42.2606 1.24582 45.5155 1.24581 48.101 2.82902L48.7711 1.73466Z" fill="#EEE7DF"/>
</svg>
