<svg width="86" height="103" viewBox="0 0 86 103" fill="none" xmlns="http://www.w3.org/2000/svg">
<path d="M1.06583 32.7502L0.424208 32.7502L1.06583 32.7502ZM1.06582 39.6951L1.70744 39.6951L1.06582 39.6951ZM1.06582 64.0019L0.424207 64.0019L1.06582 64.0019ZM1.06582 70.9463L1.70744 70.9463L1.06582 70.9463ZM1.35872 1.79191L0.905029 1.33822L1.35872 1.79191ZM71.0891 32.1295L70.4955 32.3728L71.0891 32.1295ZM85.0147 34.7503L84.374 34.7172L85.0147 34.7503ZM84.7901 33.0616L85.2553 32.6197L84.7901 33.0616ZM73.6773 59.959L73.2269 59.502L73.6773 59.959ZM71.0886 63.3811L71.6822 63.1378L71.0886 63.3811ZM1.06582 100.198L0.424205 100.198L1.06582 100.198ZM1.35871 101.905L1.81241 101.451L1.35871 101.905ZM85.0148 66.0014L84.374 65.9683L85.0148 66.0014ZM84.7901 64.3132L84.3248 64.7551L84.7901 64.3132ZM84.374 65.9683C83.3515 85.7947 66.9513 101.556 46.8701 101.556L46.8701 102.84C67.6379 102.84 84.598 86.5394 85.6555 66.0344L84.374 65.9683ZM75.1503 64.6435L83.0662 64.6435L83.0662 63.3603L75.1503 63.3603L75.1503 64.6435ZM74.1276 60.416C80.825 53.8168 85.1387 44.8019 85.6555 34.7833L84.374 34.7172C83.8743 44.4034 79.7047 53.1192 73.2269 59.502L74.1276 60.416ZM83.0662 32.1086L75.1508 32.1086L75.1508 33.3918L83.0662 33.3918L83.0662 32.1086ZM74.128 29.1644C80.8252 22.5653 85.1387 13.5505 85.6555 3.53215L84.374 3.46604C83.8743 13.152 79.7049 21.8677 73.2273 28.2504L74.128 29.1644ZM83.0662 0.857406L3.06583 0.857403L3.06583 2.14064L83.0662 2.14064L83.0662 0.857406ZM0.42421 3.49902L0.424208 32.7502L1.70744 32.7502L1.70744 3.49902L0.42421 3.49902ZM0.424208 32.7502L0.424208 39.6951L1.70744 39.6951L1.70744 32.7502L0.424208 32.7502ZM0.424208 39.6951L0.424207 64.0019L1.70744 64.0019L1.70744 39.6951L0.424208 39.6951ZM0.424207 64.0019L0.424207 70.9463L1.70744 70.9463L1.70744 64.0019L0.424207 64.0019ZM1.70744 100.198L1.70744 70.9463L0.424207 70.9463L0.424205 100.198L1.70744 100.198ZM46.8701 101.556L3.06582 101.556L3.06582 102.84L46.8701 102.84L46.8701 101.556ZM3.06583 0.857403C2.61256 0.857403 2.20806 0.85604 1.88306 0.899736C1.5396 0.945913 1.19056 1.05269 0.905029 1.33822L1.81242 2.2456C1.81978 2.23824 1.85288 2.19857 2.05405 2.17153C2.27367 2.142 2.57628 2.14064 3.06583 2.14064L3.06583 0.857403ZM1.70744 3.49902C1.70744 3.00948 1.70881 2.70687 1.73833 2.48724C1.76538 2.28608 1.80505 2.25297 1.81242 2.2456L0.905029 1.33822C0.619499 1.62375 0.512718 1.97279 0.466545 2.31625C0.422844 2.64126 0.42421 3.04575 0.42421 3.49902L1.70744 3.49902ZM75.1508 32.1086C73.8636 32.1086 72.9578 32.1075 72.3378 32.0353C72.0284 31.9993 71.8428 31.9505 71.737 31.903C71.6444 31.8614 71.6665 31.8464 71.6828 31.8861L70.4955 32.3728C70.639 32.7229 70.9151 32.9407 71.2114 33.0737C71.4944 33.2007 71.8323 33.2684 72.1894 33.3099C72.902 33.3929 73.8998 33.3918 75.1508 33.3918L75.1508 32.1086ZM73.2273 28.2504C72.292 29.172 71.5492 29.9025 71.0791 30.4816C70.844 30.7712 70.6433 31.0628 70.5251 31.3546C70.4023 31.6575 70.3484 32.0141 70.4955 32.3728L71.6828 31.8861C71.7027 31.9345 71.6718 31.9416 71.7144 31.8365C71.7615 31.7203 71.8685 31.5453 72.0754 31.2904C72.4893 30.7805 73.168 30.1104 74.128 29.1644L73.2273 28.2504ZM85.6555 34.7833C85.6782 34.3437 85.7004 33.9444 85.6699 33.6186C85.637 33.2675 85.5373 32.9166 85.2553 32.6197L84.3249 33.5034C84.3386 33.5179 84.3748 33.5522 84.3922 33.7381C84.412 33.9492 84.3987 34.2386 84.374 34.7172L85.6555 34.7833ZM83.0662 33.3918C83.5613 33.3918 83.8648 33.3933 84.0844 33.4244C84.282 33.4524 84.3145 33.4925 84.3249 33.5034L85.2553 32.6197C84.9699 32.3192 84.6166 32.2037 84.2642 32.1538C83.9338 32.1071 83.5232 32.1086 83.0662 32.1086L83.0662 33.3918ZM75.1503 63.3603C73.8631 63.3603 72.9573 63.3592 72.3372 63.287C72.0279 63.251 71.8422 63.2022 71.7364 63.1547C71.6438 63.1131 71.666 63.0981 71.6822 63.1378L70.4949 63.6245C70.6384 63.9746 70.9146 64.1923 71.2108 64.3253C71.4939 64.4524 71.8318 64.52 72.1888 64.5616C72.9015 64.6446 73.8993 64.6435 75.1503 64.6435L75.1503 63.3603ZM73.2269 59.502C72.2916 60.4236 71.5487 61.1541 71.0786 61.7332C70.8434 62.0229 70.6428 62.3144 70.5245 62.6062C70.4018 62.9091 70.3478 63.2657 70.4949 63.6245L71.6822 63.1378C71.7021 63.1862 71.6712 63.1933 71.7138 63.0882C71.7609 62.9719 71.8679 62.7969 72.0748 62.5421C72.4888 62.0322 73.1675 61.362 74.1276 60.416L73.2269 59.502ZM85.6555 3.53215C85.6782 3.09249 85.7004 2.69319 85.6699 2.36738C85.637 2.01631 85.5373 1.66541 85.2553 1.36852L84.3249 2.25222C84.3386 2.26668 84.3748 2.30102 84.3922 2.48692C84.412 2.69806 84.3987 2.98746 84.374 3.46604L85.6555 3.53215ZM83.0662 2.14064C83.5613 2.14064 83.8648 2.14215 84.0844 2.17323C84.282 2.2012 84.3145 2.24136 84.3249 2.25222L85.2553 1.36852C84.9699 1.06804 84.6166 0.952521 84.2642 0.902656C83.9338 0.855899 83.5232 0.857406 83.0662 0.857406L83.0662 2.14064ZM0.424205 100.198C0.424205 100.651 0.42284 101.056 0.466541 101.381C0.512714 101.724 0.619495 102.073 0.905025 102.359L1.81241 101.451C1.80504 101.444 1.76538 101.411 1.73833 101.21C1.7088 100.99 1.70744 100.687 1.70744 100.198L0.424205 100.198ZM3.06582 101.556C2.57628 101.556 2.27367 101.555 2.05404 101.525C1.85288 101.498 1.81977 101.459 1.81241 101.451L0.905025 102.359C1.19055 102.644 1.53959 102.751 1.88306 102.797C2.20806 102.841 2.61256 102.84 3.06582 102.84L3.06582 101.556ZM85.6555 66.0344C85.6782 65.5949 85.7004 65.1958 85.6699 64.87C85.637 64.519 85.5372 64.1682 85.2553 63.8714L84.3248 64.7551C84.3386 64.7696 84.3748 64.8039 84.3922 64.9897C84.412 65.2007 84.3987 65.4899 84.374 65.9683L85.6555 66.0344ZM83.0662 64.6435C83.5613 64.6435 83.8648 64.645 84.0844 64.6761C84.282 64.7041 84.3145 64.7442 84.3248 64.7551L85.2553 63.8714C84.9699 63.5709 84.6165 63.4554 84.2642 63.4055C83.9338 63.3588 83.5232 63.3603 83.0662 63.3603L83.0662 64.6435Z" fill="#EEE7DF"/>
<path d="M40.3796 42.3521V62.2387H41.6628V42.3521H40.3796ZM50.9645 51.6537H31.0779V52.937H50.9645V51.6537Z" fill="#EEE7DF"/>
</svg>
