<svg width="182" height="66" viewBox="0 0 182 66" fill="none" xmlns="http://www.w3.org/2000/svg">
<path d="M1.97827 11.5893C1.97827 6.0665 6.45542 1.58936 11.9783 1.58936H141.892C143.429 1.58936 144.945 1.94354 146.323 2.62441L154.748 6.78848C158.045 8.4178 162.034 7.4977 164.283 4.58879V4.58879C165.747 2.69694 168.003 1.58936 170.395 1.58936H171.336C176.661 1.58936 180.978 5.90654 180.978 11.2321V54.691C180.978 60.2138 176.501 64.691 170.978 64.691H41.0644C39.5277 64.691 38.0116 64.3368 36.6339 63.6559L28.2082 59.4919C24.9113 57.8625 20.923 58.7826 18.6731 61.6916V61.6916C17.2099 63.5834 14.9531 64.691 12.5614 64.691H11.621C6.29546 64.691 1.97827 60.3738 1.97827 55.0483V11.5893Z" stroke="#FF6547" stroke-width="2"/>
</svg>
