<svg width="177" height="65" viewBox="0 0 177 65" fill="none" xmlns="http://www.w3.org/2000/svg">
<path d="M169.98 32.4238L169.012 32.174L168.98 32.2969V32.4238H169.98ZM6.28882 32.4238L7.2571 32.6737L7.28882 32.5508V32.4238H6.28882ZM174.755 13.9226L173.787 13.6727L174.755 13.9226ZM164.98 62.4238H11.1971V64.4238H164.98V62.4238ZM173.787 13.6727L169.012 32.174L170.949 32.6737L175.723 14.1725L173.787 13.6727ZM168.98 32.4238V58.4238H170.98V32.4238H168.98ZM16.2888 2.42383H165.072V0.423828H16.2888V2.42383ZM2.48259 51.1749L7.2571 32.6737L5.32054 32.174L0.546032 50.6752L2.48259 51.1749ZM7.28882 32.4238V11.4238H5.28882V32.4238H7.28882ZM16.2888 0.423828C10.2137 0.423828 5.28882 5.3487 5.28882 11.4238H7.28882C7.28882 6.45327 11.3183 2.42383 16.2888 2.42383V0.423828ZM164.98 64.4238C168.294 64.4238 170.98 61.7375 170.98 58.4238H168.98C168.98 60.633 167.19 62.4238 164.98 62.4238V64.4238ZM175.723 14.1725C177.52 7.20989 172.263 0.423828 165.072 0.423828V2.42383C170.955 2.42383 175.257 7.97606 173.787 13.6727L175.723 14.1725ZM11.1971 62.4238C5.31379 62.4238 1.01248 56.8716 2.48259 51.1749L0.546032 50.6752C-1.25077 57.6378 4.00639 64.4238 11.1971 64.4238V62.4238Z" fill="#FF6547"/>
</svg>
