<svg width="180" height="64" viewBox="0 0 180 64" fill="none" xmlns="http://www.w3.org/2000/svg">
<path d="M0.408203 10.5893C0.408203 5.0665 4.88536 0.589355 10.4082 0.589355H140.322C141.859 0.589355 143.375 0.943541 144.753 1.62441L153.178 5.78848C156.475 7.4178 160.463 6.4977 162.713 3.58879C164.177 1.69694 166.433 0.589355 168.825 0.589355H169.766C175.091 0.589355 179.408 4.90654 179.408 10.2321V53.691C179.408 59.2138 174.931 63.691 169.408 63.691H39.4944C37.9576 63.691 36.4415 63.3368 35.0638 62.6559L26.6381 58.4919C23.3413 56.8625 19.3529 57.7826 17.1031 60.6916C15.6398 62.5834 13.383 63.691 10.9913 63.691H10.0509C4.72539 63.691 0.408203 59.3738 0.408203 54.0483V10.5893Z" fill="#FF6547"/>
</svg>
