<svg width="145" height="73" viewBox="0 0 145 73" fill="none" xmlns="http://www.w3.org/2000/svg">
<path d="M73.7672 71.8098C72.9013 71.6202 72.3216 70.8313 72.3216 69.945L72.3216 29.4816C72.3216 27.2271 68.818 26.5643 67.8514 28.6011C60.8142 43.4304 50.5214 55.5476 35.5436 63.9522C25.418 69.7007 14.0184 72.804 2.39743 72.991C1.30265 73.0086 0.421963 72.1141 0.421963 71.0192L0.421966 2.75683C0.421967 1.65226 1.3174 0.75683 2.42197 0.75683L143.01 0.756836C144.11 0.756836 145.006 1.64571 144.986 2.74573C144.601 23.0889 136.534 39.8127 122.013 53.7773C108.619 66.7469 86.9957 74.706 73.7672 71.8098Z" fill="#9870FF"/>
</svg>
