<svg width="152" height="51" viewBox="0 0 152 51" fill="none" xmlns="http://www.w3.org/2000/svg">
<path d="M1.92433 3.57873C1.49115 2.62217 2.1906 1.5376 3.24067 1.5376H126.123C139.378 1.5376 150.123 12.2828 150.123 25.5376C150.123 38.7924 139.378 49.5376 126.123 49.5376H3.28887C2.22671 49.5376 1.52751 48.4301 1.98427 47.4712L11.8542 26.7497C12.0372 26.3654 12.0415 25.9199 11.8659 25.5322L1.92433 3.57873Z" fill="#282326"/>
<path d="M11.8542 26.7497L12.757 27.1797L11.8542 26.7497ZM11.8659 25.5322L12.7769 25.1197L11.8659 25.5322ZM1.98427 47.4712L2.88708 47.9012L1.98427 47.4712ZM3.24067 2.5376H126.123V0.537598H3.24067V2.5376ZM126.123 48.5376H3.28887V50.5376H126.123V48.5376ZM2.88708 47.9012L12.757 27.1797L10.9514 26.3197L1.08145 47.0412L2.88708 47.9012ZM12.7769 25.1197L2.83527 3.1662L1.01338 3.99125L10.955 25.9447L12.7769 25.1197ZM12.757 27.1797C13.0667 26.5295 13.074 25.7758 12.7769 25.1197L10.955 25.9447C11.0091 26.0641 11.0078 26.2013 10.9514 26.3197L12.757 27.1797ZM3.28887 48.5376C2.96174 48.5376 2.74642 48.1965 2.88708 47.9012L1.08145 47.0412C0.308602 48.6637 1.49167 50.5376 3.28887 50.5376V48.5376ZM126.123 50.5376C139.93 50.5376 151.123 39.3447 151.123 25.5376H149.123C149.123 38.2401 138.826 48.5376 126.123 48.5376V50.5376ZM126.123 2.5376C138.826 2.5376 149.123 12.835 149.123 25.5376H151.123C151.123 11.7305 139.93 0.537598 126.123 0.537598V2.5376ZM3.24067 0.537598C1.46392 0.537598 0.280427 2.37272 1.01338 3.99125L2.83527 3.1662C2.70187 2.87161 2.91728 2.5376 3.24067 2.5376V0.537598Z" fill="#FF6547"/>
</svg>
