<svg width="176" height="59" viewBox="0 0 176 59" fill="none" xmlns="http://www.w3.org/2000/svg">
<path d="M13.4384 31.0834L12.5356 30.6534L13.4384 31.0834ZM13.4546 29.3983L14.3656 28.9858L13.4546 29.3983ZM2.20017 54.6775L3.10299 55.1076L2.20017 54.6775ZM3.93911 2.5376H146.815V0.537598H3.93911V2.5376ZM146.815 56.5376H4.00581V58.5376H146.815V56.5376ZM3.10299 55.1076L14.3412 31.5135L12.5356 30.6534L1.29735 54.2475L3.10299 55.1076ZM14.3656 28.9858L3.02816 3.95012L1.20627 4.77517L12.5437 29.8109L14.3656 28.9858ZM14.3412 31.5135C14.7212 30.7156 14.7301 29.7908 14.3656 28.9858L12.5437 29.8109C12.6652 30.0792 12.6622 30.3875 12.5356 30.6534L14.3412 31.5135ZM4.00581 56.5376C3.27076 56.5376 2.7869 55.7712 3.10299 55.1076L1.29735 54.2475C0.349088 56.2384 1.80068 58.5376 4.00581 58.5376V56.5376ZM146.815 58.5376C162.831 58.5376 175.815 45.5539 175.815 29.5376H173.815C173.815 44.4493 161.727 56.5376 146.815 56.5376V58.5376ZM146.815 2.5376C161.727 2.5376 173.815 14.6259 173.815 29.5376H175.815C175.815 13.5213 162.831 0.537598 146.815 0.537598V2.5376ZM3.93911 0.537598C1.75906 0.537598 0.306949 2.78926 1.20627 4.77517L3.02816 3.95012C2.72839 3.28815 3.21243 2.5376 3.93911 2.5376V0.537598Z" fill="#FF6547"/>
</svg>
