<svg width="176" height="59" viewBox="0 0 176 59" fill="none" xmlns="http://www.w3.org/2000/svg">
<path d="M13.4384 31.0834L12.5356 30.6534L13.4384 31.0834ZM13.4546 29.3983L14.3656 28.9858L13.4546 29.3983ZM2.20017 54.6775L3.10299 55.1076L2.20017 54.6775ZM3.93911 2.5376H146.815V0.537598H3.93911V2.5376ZM146.815 56.5376H4.00581V58.5376H146.815V56.5376ZM3.10299 55.1076L14.3412 31.5135L12.5356 30.6534L1.29735 54.2475L3.10299 55.1076ZM14.3656 28.9858L3.02816 3.95012L1.20627 4.77517L12.5437 29.8109L14.3656 28.9858ZM14.3412 31.5135C14.7212 30.7156 14.7301 29.7908 14.3656 28.9858L12.5437 29.8109C12.6652 30.0792 12.6622 30.3875 12.5356 30.6534L14.3412 31.5135ZM4.00581 56.5376C3.27076 56.5376 2.7869 55.7712 3.10299 55.1076L1.29735 54.2475C0.349088 56.2384 1.80068 58.5376 4.00581 58.5376V56.5376ZM146.815 58.5376C162.831 58.5376 175.815 45.5539 175.815 29.5376H173.815C173.815 44.4493 161.727 56.5376 146.815 56.5376V58.5376ZM146.815 2.5376C161.727 2.5376 173.815 14.6259 173.815 29.5376H175.815C175.815 13.5213 162.831 0.537598 146.815 0.537598V2.5376ZM3.93911 0.537598C1.75906 0.537598 0.306949 2.78926 1.20627 4.77517L3.02816 3.95012C2.72839 3.28815 3.21243 2.5376 3.93911 2.5376V0.537598Z" fill="#FF6547"/>
<path d="M43.7262 20.5343C44.6462 20.5076 45.4528 20.5943 46.1462 20.7943C46.8395 20.9809 47.4528 21.2609 47.9862 21.6343C48.2262 21.7943 48.4462 21.9743 48.6462 22.1743C48.6728 22.2009 48.6995 22.2276 48.7262 22.2543C48.7528 22.2809 48.7795 22.3076 48.8062 22.3343C48.8728 22.4409 48.9462 22.5409 49.0262 22.6343C49.1062 22.7143 49.1795 22.8076 49.2462 22.9143C49.3928 23.1409 49.5195 23.3809 49.6262 23.6343C49.7328 23.8876 49.8395 24.1476 49.9462 24.4143C49.9862 24.5476 50.0062 24.6876 50.0062 24.8343C50.0062 24.9809 49.9528 25.0876 49.8462 25.1543C49.8195 25.1809 49.7795 25.1943 49.7262 25.1943C49.6862 25.1943 49.6462 25.2009 49.6062 25.2143H49.4662C49.3995 25.2409 49.2862 25.2543 49.1262 25.2543C48.9795 25.2543 48.8728 25.2409 48.8062 25.2143C48.7662 25.2009 48.7262 25.2009 48.6862 25.2143C48.6462 25.2276 48.5995 25.2209 48.5462 25.1943C48.4662 25.1809 48.3928 25.1476 48.3262 25.0943C48.2462 25.0276 48.1862 24.9343 48.1462 24.8143C48.1195 24.6943 48.0795 24.5809 48.0262 24.4743C47.9595 24.3009 47.8795 24.1409 47.7862 23.9943C47.7062 23.8343 47.6128 23.6809 47.5062 23.5343C47.4795 23.5076 47.4462 23.4809 47.4062 23.4543C47.3662 23.4143 47.3328 23.3743 47.3062 23.3343C47.1862 23.2009 47.0662 23.0876 46.9462 22.9943C46.8795 22.9543 46.8195 22.9143 46.7662 22.8743C46.7128 22.8209 46.6528 22.7743 46.5862 22.7343C46.3995 22.6276 46.1995 22.5343 45.9862 22.4543C45.7728 22.3743 45.5528 22.3009 45.3262 22.2343C45.2062 22.2076 45.0862 22.1876 44.9662 22.1743C44.8462 22.1609 44.7262 22.1409 44.6062 22.1143C44.5528 22.1009 44.4995 22.1009 44.4462 22.1143C44.4062 22.1143 44.3662 22.1076 44.3262 22.0943H44.0862C43.9928 22.0943 43.8995 22.0943 43.8062 22.0943C43.7128 22.0943 43.6262 22.1009 43.5462 22.1143C43.5195 22.1143 43.4862 22.1209 43.4462 22.1343C43.4062 22.1343 43.3728 22.1343 43.3462 22.1343C43.2662 22.1476 43.1795 22.1609 43.0862 22.1743C43.0062 22.1876 42.9262 22.2009 42.8462 22.2143C42.3795 22.3343 41.9728 22.5009 41.6262 22.7143C41.0662 23.0609 40.6128 23.4743 40.2662 23.9543C39.9328 24.4209 39.6528 24.9943 39.4262 25.6743C39.3728 25.8209 39.3328 25.9743 39.3062 26.1343C39.2795 26.2943 39.2462 26.4543 39.2062 26.6143C39.1795 26.6809 39.1662 26.7476 39.1662 26.8143C39.1795 26.8676 39.1728 26.9276 39.1462 26.9943C39.1195 27.0876 39.1062 27.1876 39.1062 27.2943C39.1195 27.3876 39.1128 27.4876 39.0862 27.5943V27.8143C39.0728 27.8943 39.0662 28.0076 39.0662 28.1543C39.0662 28.3009 39.0728 28.4076 39.0862 28.4743V28.6743C39.0995 28.7009 39.1062 28.7409 39.1062 28.7943C39.1062 28.8343 39.1128 28.8676 39.1262 28.8943C39.1528 28.9876 39.1595 29.0743 39.1462 29.1543C39.1328 29.2343 39.1395 29.3209 39.1662 29.4143C39.1928 29.5209 39.2128 29.6276 39.2262 29.7343C39.2528 29.8276 39.2795 29.9276 39.3062 30.0343C39.3728 30.2343 39.4395 30.4343 39.5062 30.6343C39.5862 30.8209 39.6662 31.0076 39.7462 31.1943C39.8128 31.3543 39.8928 31.5076 39.9862 31.6543C40.0928 31.8009 40.1995 31.9409 40.3062 32.0743C40.7995 32.7409 41.4462 33.2343 42.2462 33.5543C42.3395 33.5943 42.4328 33.6276 42.5262 33.6543C42.6195 33.6809 42.7195 33.7076 42.8262 33.7343C43.1462 33.8276 43.5195 33.8743 43.9462 33.8743C44.0395 33.8743 44.1262 33.8743 44.2062 33.8743C44.2995 33.8743 44.3862 33.8676 44.4662 33.8543C44.5328 33.8276 44.5995 33.8209 44.6662 33.8343C44.7462 33.8476 44.8195 33.8409 44.8862 33.8143C45.0728 33.7609 45.2462 33.7209 45.4062 33.6943C45.5795 33.6543 45.7395 33.6009 45.8862 33.5343C47.1262 33.0409 47.9595 32.1543 48.3862 30.8743C48.4128 30.7676 48.4328 30.6609 48.4462 30.5543C48.4728 30.4476 48.4995 30.3409 48.5262 30.2343C48.5662 30.0743 48.5795 29.9009 48.5662 29.7143C48.5528 29.5143 48.4928 29.3743 48.3862 29.2943C48.2795 29.2276 48.1328 29.1943 47.9462 29.1943C47.7595 29.1943 47.5795 29.1943 47.4062 29.1943H45.1862C45.0395 29.1943 44.8795 29.1943 44.7062 29.1943C44.5328 29.1943 44.3928 29.1743 44.2862 29.1343C44.1795 29.0809 44.1128 29.0076 44.0862 28.9143C44.0595 28.8609 44.0395 28.7876 44.0262 28.6943C44.0128 28.5876 44.0062 28.4809 44.0062 28.3743C44.0062 28.2676 44.0128 28.1676 44.0262 28.0743C44.0528 27.9676 44.0795 27.8943 44.1062 27.8543C44.1595 27.7609 44.2528 27.6943 44.3862 27.6543C44.4528 27.6276 44.5328 27.6143 44.6262 27.6143C44.7195 27.6143 44.8128 27.6143 44.9062 27.6143H45.8062H48.8462C48.9928 27.6143 49.1395 27.6143 49.2862 27.6143C49.4328 27.6009 49.5662 27.6076 49.6862 27.6343C49.8195 27.6476 49.9328 27.6809 50.0262 27.7343C50.1195 27.7743 50.1862 27.8543 50.2262 27.9743C50.2528 28.0543 50.2595 28.1476 50.2462 28.2543C50.2462 28.3609 50.2462 28.4676 50.2462 28.5743V29.6743V33.3743V34.2943C50.2462 34.3876 50.2462 34.4809 50.2462 34.5743C50.2462 34.6676 50.2328 34.7476 50.2062 34.8143C50.1662 34.9209 50.0862 35.0009 49.9662 35.0543C49.9262 35.0809 49.8395 35.0943 49.7062 35.0943C49.5195 35.0943 49.3795 35.0743 49.2862 35.0343C49.1928 34.9943 49.1195 34.9343 49.0662 34.8543C49.0128 34.7743 48.9662 34.6809 48.9262 34.5743C48.8995 34.4676 48.8662 34.3476 48.8262 34.2143C48.7995 34.1209 48.7528 34.0009 48.6862 33.8543C48.6328 33.7076 48.5328 33.6543 48.3862 33.6943C48.2928 33.7209 48.2195 33.7609 48.1662 33.8143C48.1128 33.8676 48.0528 33.9209 47.9862 33.9743C47.8795 34.0543 47.7795 34.1409 47.6862 34.2343C47.5928 34.3143 47.4928 34.3876 47.3862 34.4543C47.1062 34.6409 46.8062 34.7943 46.4862 34.9143C46.1795 35.0343 45.8462 35.1476 45.4862 35.2543C45.3928 35.2809 45.2995 35.3009 45.2062 35.3143C45.1128 35.3276 45.0128 35.3476 44.9062 35.3743C44.7995 35.3743 44.7195 35.3809 44.6662 35.3943C44.6262 35.3943 44.5795 35.3943 44.5262 35.3943C44.4862 35.3943 44.4462 35.4009 44.4062 35.4143H44.2062C44.1528 35.4276 44.0795 35.4343 43.9862 35.4343C43.8928 35.4343 43.8128 35.4276 43.7462 35.4143H43.4062C43.2595 35.3876 43.1195 35.3676 42.9862 35.3543C42.8662 35.3543 42.7395 35.3343 42.6062 35.2943C42.3662 35.2276 42.1328 35.1676 41.9062 35.1143C41.6795 35.0609 41.4595 34.9876 41.2462 34.8943C40.4862 34.5476 39.8195 34.0876 39.2462 33.5143C38.6728 32.9276 38.2128 32.2476 37.8662 31.4743C37.7995 31.3143 37.7328 31.1476 37.6662 30.9743C37.6128 30.8009 37.5528 30.6209 37.4862 30.4343C37.4728 30.3809 37.4662 30.3343 37.4662 30.2943C37.4662 30.2409 37.4528 30.1876 37.4262 30.1343C37.3862 29.9876 37.3528 29.8343 37.3262 29.6743C37.3128 29.5143 37.2862 29.3543 37.2462 29.1943C37.2328 29.1409 37.2262 29.0876 37.2262 29.0343C37.2395 28.9809 37.2395 28.9343 37.2262 28.8943V28.7143C37.1995 28.6476 37.1862 28.5209 37.1862 28.3343C37.1862 28.1476 37.1995 28.0143 37.2262 27.9343V27.7543C37.2262 27.6743 37.2262 27.5943 37.2262 27.5143C37.2262 27.4343 37.2328 27.3543 37.2462 27.2743C37.2595 27.2076 37.2662 27.1409 37.2662 27.0743C37.2662 26.9943 37.2728 26.9209 37.2862 26.8543C37.3262 26.6943 37.3528 26.5343 37.3662 26.3743C37.3928 26.2143 37.4262 26.0543 37.4662 25.8943C37.5995 25.4543 37.7328 25.0343 37.8662 24.6343C38.0128 24.2209 38.1995 23.8409 38.4262 23.4943C38.8262 22.8676 39.2995 22.3343 39.8462 21.8943C40.4062 21.4409 41.0662 21.0876 41.8262 20.8343C41.9728 20.7809 42.1128 20.7476 42.2462 20.7343C42.3928 20.7076 42.5395 20.6743 42.6862 20.6343C42.7528 20.6076 42.8128 20.5943 42.8662 20.5943C42.9328 20.5943 42.9995 20.5876 43.0662 20.5743C43.1728 20.5609 43.2795 20.5543 43.3862 20.5543C43.5062 20.5409 43.6195 20.5343 43.7262 20.5343ZM61.722 29.5343C61.7486 29.6676 61.7486 29.8209 61.722 29.9943C61.7086 30.1543 61.6686 30.2676 61.602 30.3343C61.5353 30.3876 61.4353 30.4276 61.302 30.4543C61.182 30.4676 61.042 30.4743 60.882 30.4743C60.722 30.4743 60.562 30.4743 60.402 30.4743C60.242 30.4609 60.102 30.4543 59.982 30.4543H54.862C54.7553 30.4543 54.6486 30.4609 54.542 30.4743C54.4353 30.4743 54.3486 30.4943 54.282 30.5343C54.2286 30.5609 54.1753 30.6143 54.122 30.6943C54.0953 30.7343 54.0686 30.7943 54.042 30.8743C54.0153 30.9409 54.0153 31.0076 54.042 31.0743C54.0553 31.1409 54.062 31.2009 54.062 31.2543C54.062 31.3076 54.0686 31.3609 54.082 31.4143C54.1086 31.5209 54.1353 31.6343 54.162 31.7543C54.1886 31.8609 54.2286 31.9676 54.282 32.0743C54.5886 32.7943 55.0953 33.3076 55.802 33.6143C55.882 33.6543 55.9686 33.6876 56.062 33.7143C56.1553 33.7409 56.2486 33.7676 56.342 33.7943C56.382 33.8076 56.4486 33.8143 56.542 33.8143C56.7286 33.8676 56.9753 33.8943 57.282 33.8943C57.5886 33.8943 57.8353 33.8676 58.022 33.8143C58.2086 33.7609 58.3753 33.7076 58.522 33.6543C58.682 33.5876 58.8286 33.5076 58.962 33.4143C59.1086 33.3209 59.2353 33.2143 59.342 33.0943C59.4486 32.9609 59.542 32.8209 59.622 32.6743C59.702 32.5409 59.7686 32.4009 59.822 32.2543C59.8886 32.1076 59.9953 32.0009 60.142 31.9343C60.1953 31.9076 60.282 31.8876 60.402 31.8743C60.522 31.8609 60.642 31.8609 60.762 31.8743C60.882 31.8743 60.9953 31.8809 61.102 31.8943C61.2086 31.9076 61.282 31.9343 61.322 31.9743C61.4553 32.0676 61.4886 32.2209 61.422 32.4343C61.3153 32.7943 61.1753 33.1143 61.002 33.3943C60.7353 33.8209 60.4286 34.1743 60.082 34.4543C59.7486 34.7209 59.322 34.9409 58.802 35.1143C58.6686 35.1676 58.5353 35.2009 58.402 35.2143C58.2686 35.2409 58.1286 35.2676 57.982 35.2943C57.9153 35.3076 57.8486 35.3143 57.782 35.3143C57.7286 35.3143 57.6686 35.3209 57.602 35.3343H57.402C57.3353 35.3476 57.2553 35.3543 57.162 35.3543C57.082 35.3543 57.0153 35.3476 56.962 35.3343H56.782C56.7153 35.3209 56.6553 35.3143 56.602 35.3143C56.5486 35.3143 56.4953 35.3076 56.442 35.2943C56.3753 35.2809 56.302 35.2676 56.222 35.2543C56.142 35.2543 56.0686 35.2476 56.002 35.2343C55.882 35.2076 55.762 35.1743 55.642 35.1343C55.522 35.1076 55.4086 35.0743 55.302 35.0343C55.2486 35.0076 55.202 34.9943 55.162 34.9943C55.122 34.9809 55.0753 34.9609 55.022 34.9343C54.822 34.8409 54.6086 34.7276 54.382 34.5943C53.9953 34.3409 53.662 34.0343 53.382 33.6743C53.1153 33.3009 52.8886 32.8876 52.702 32.4343C52.6353 32.2876 52.582 32.1343 52.542 31.9743C52.5153 31.8143 52.4753 31.6543 52.422 31.4943C52.4086 31.4409 52.402 31.3943 52.402 31.3543C52.402 31.3143 52.3953 31.2609 52.382 31.1943C52.3553 31.0876 52.3353 30.9743 52.322 30.8543C52.3086 30.7343 52.2886 30.6143 52.262 30.4943V30.2143C52.2486 30.1609 52.2353 30.0876 52.222 29.9943C52.222 29.8876 52.2286 29.8009 52.242 29.7343V29.5143C52.2686 29.4476 52.2753 29.3809 52.262 29.3143C52.262 29.2343 52.2686 29.1609 52.282 29.0943C52.3353 28.8809 52.3753 28.6676 52.402 28.4543C52.442 28.2409 52.502 28.0409 52.582 27.8543C52.6486 27.7076 52.7086 27.5609 52.762 27.4143C52.8286 27.2543 52.902 27.1009 52.982 26.9543C53.2753 26.4876 53.6086 26.0876 53.982 25.7543C54.3553 25.4076 54.8153 25.1209 55.362 24.8943C55.522 24.8276 55.682 24.7809 55.842 24.7543C56.0153 24.7143 56.1953 24.6743 56.382 24.6343C56.4486 24.6209 56.5086 24.6143 56.562 24.6143C56.6153 24.6009 56.6753 24.5943 56.742 24.5943C56.7686 24.5809 56.802 24.5809 56.842 24.5943C56.882 24.6076 56.9153 24.6009 56.942 24.5743C57.502 24.5609 57.9886 24.6209 58.402 24.7543C58.8153 24.8743 59.1886 25.0409 59.522 25.2543C59.5886 25.2809 59.642 25.3209 59.682 25.3743C59.722 25.4143 59.7686 25.4476 59.822 25.4743C59.9286 25.5543 60.0353 25.6476 60.142 25.7543C60.262 25.8609 60.362 25.9676 60.442 26.0743C60.6553 26.3543 60.8353 26.6209 60.982 26.8743C61.0753 27.0209 61.1486 27.1809 61.202 27.3543C61.2553 27.5276 61.3153 27.7009 61.382 27.8743C61.4486 28.0476 61.4953 28.2276 61.522 28.4143C61.562 28.6009 61.6086 28.7876 61.662 28.9743C61.6753 29.0676 61.682 29.1609 61.682 29.2543C61.6953 29.3476 61.7086 29.4409 61.722 29.5343ZM59.782 28.8543C59.822 28.8009 59.8553 28.7343 59.882 28.6543C59.9086 28.5609 59.9086 28.4676 59.882 28.3743C59.802 28.0809 59.6886 27.8076 59.542 27.5543C59.3553 27.2476 59.1486 26.9876 58.922 26.7743C58.6953 26.5609 58.402 26.3809 58.042 26.2343C57.9486 26.2076 57.8553 26.1876 57.762 26.1743C57.6686 26.1476 57.5686 26.1209 57.462 26.0943C57.3553 26.0676 57.242 26.0543 57.122 26.0543C57.002 26.0543 56.8886 26.0543 56.782 26.0543C56.742 26.0809 56.6953 26.0943 56.642 26.0943C56.5886 26.0809 56.542 26.0809 56.502 26.0943C56.3953 26.1209 56.2886 26.1476 56.182 26.1743C56.0886 26.1876 55.9953 26.2076 55.902 26.2343C55.5153 26.3943 55.202 26.5943 54.962 26.8343C54.7353 27.0743 54.5286 27.3743 54.342 27.7343C54.302 27.8009 54.262 27.8876 54.222 27.9943C54.182 28.0876 54.1486 28.1943 54.122 28.3143C54.0953 28.4343 54.0886 28.5476 54.102 28.6543C54.1153 28.7609 54.162 28.8409 54.242 28.8943C54.3486 28.9743 54.5286 29.0143 54.782 29.0143C55.0486 29.0009 55.2753 28.9943 55.462 28.9943H58.502C58.702 28.9943 58.942 29.0009 59.222 29.0143C59.502 29.0143 59.6886 28.9609 59.782 28.8543ZM64.7241 21.6743C64.9241 21.6743 65.1241 21.6809 65.3241 21.6943C65.5241 21.6943 65.6641 21.7476 65.7441 21.8543C65.8108 21.9343 65.8441 22.0476 65.8441 22.1943C65.8575 22.3276 65.8641 22.4676 65.8641 22.6143V23.7743C65.8641 23.8809 65.8575 23.9943 65.8441 24.1143C65.8441 24.2209 65.8575 24.3143 65.8841 24.3943C65.9375 24.5809 66.0575 24.7009 66.2441 24.7543C66.3108 24.7676 66.3708 24.7743 66.4241 24.7743C66.4908 24.7743 66.5575 24.7743 66.6241 24.7743C66.7708 24.7743 66.9508 24.7743 67.1641 24.7743C67.3775 24.7609 67.5308 24.7743 67.6241 24.8143C67.7441 24.8943 67.8241 24.9743 67.8641 25.0543C67.8908 25.1076 67.9041 25.1676 67.9041 25.2343C67.9041 25.3009 67.9041 25.3676 67.9041 25.4343C67.9041 25.5809 67.8975 25.7209 67.8841 25.8543C67.8708 25.9743 67.8241 26.0676 67.7441 26.1343C67.6641 26.2009 67.5508 26.2409 67.4041 26.2543C67.2708 26.2543 67.1241 26.2543 66.9641 26.2543C66.8175 26.2409 66.6708 26.2343 66.5241 26.2343C66.3775 26.2343 66.2508 26.2543 66.1441 26.2943C66.0508 26.3343 65.9841 26.4009 65.9441 26.4943C65.9041 26.5876 65.8775 26.7009 65.8641 26.8343C65.8508 26.9543 65.8441 27.0876 65.8441 27.2343C65.8575 27.3676 65.8641 27.5009 65.8641 27.6343V31.5943C65.8641 31.8876 65.8575 32.2009 65.8441 32.5343C65.8441 32.8543 65.9041 33.1009 66.0241 33.2743C66.0908 33.3809 66.1775 33.4543 66.2841 33.4943C66.3908 33.5343 66.5175 33.5676 66.6641 33.5943C66.7041 33.6076 66.7441 33.6143 66.7841 33.6143C66.8375 33.6009 66.8841 33.6009 66.9241 33.6143H67.1841C67.3175 33.6143 67.4375 33.6276 67.5441 33.6543C67.6641 33.6676 67.7508 33.7143 67.8041 33.7943C67.8308 33.8343 67.8508 33.9076 67.8641 34.0143C67.8908 34.1076 67.9041 34.2076 67.9041 34.3143C67.9175 34.4209 67.9175 34.5276 67.9041 34.6343C67.8908 34.7276 67.8641 34.8009 67.8241 34.8543C67.7708 34.9476 67.6708 35.0143 67.5241 35.0543C67.4175 35.0809 67.2975 35.0943 67.1641 35.0943C67.0308 35.0809 66.9108 35.0743 66.8041 35.0743C66.7241 35.0743 66.6441 35.0809 66.5641 35.0943C66.4841 35.0943 66.4108 35.0876 66.3441 35.0743H66.1041C66.0375 35.0609 65.9708 35.0543 65.9041 35.0543C65.8508 35.0409 65.7908 35.0343 65.7241 35.0343C65.4575 34.9676 65.2241 34.8943 65.0241 34.8143C64.8375 34.7343 64.6775 34.5943 64.5441 34.3943C64.3575 34.1276 64.2508 33.7943 64.2241 33.3943C64.1975 32.9809 64.1841 32.5409 64.1841 32.0743V26.8343C64.1441 26.6609 64.1041 26.5343 64.0641 26.4543C64.0375 26.3743 63.9441 26.3076 63.7841 26.2543C63.7308 26.2409 63.6775 26.2409 63.6241 26.2543C63.5708 26.2676 63.5175 26.2609 63.4641 26.2343H63.1441C62.9708 26.2343 62.8241 26.2209 62.7041 26.1943C62.5975 26.1543 62.5241 26.0743 62.4841 25.9543C62.4575 25.9009 62.4375 25.8409 62.4241 25.7743C62.4241 25.7076 62.4241 25.6409 62.4241 25.5743C62.4241 25.3876 62.4375 25.2343 62.4641 25.1143C62.4908 24.9809 62.5708 24.8809 62.7041 24.8143C62.8508 24.7609 63.0375 24.7476 63.2641 24.7743C63.5041 24.8009 63.7041 24.7876 63.8641 24.7343C63.9841 24.6676 64.0775 24.5743 64.1441 24.4543C64.1708 24.3743 64.1841 24.2743 64.1841 24.1543C64.1841 24.0343 64.1841 23.9209 64.1841 23.8143V22.5743C64.1841 22.4676 64.1841 22.3609 64.1841 22.2543C64.1841 22.1343 64.1975 22.0343 64.2241 21.9543C64.2775 21.8476 64.3775 21.7609 64.5241 21.6943C64.5641 21.6943 64.5975 21.6943 64.6241 21.6943C64.6641 21.6809 64.6975 21.6743 64.7241 21.6743ZM84.5191 34.3543C84.5591 34.5676 84.5391 34.7476 84.4591 34.8943C84.3791 35.0276 84.2725 35.1276 84.1391 35.1943C84.0725 35.2209 83.9991 35.2343 83.9191 35.2343C83.8525 35.2343 83.7791 35.2476 83.6991 35.2743C83.4058 35.3409 83.1125 35.3209 82.8191 35.2143C82.5391 35.1209 82.3458 35.0009 82.2391 34.8543C82.1725 34.7609 82.1125 34.6543 82.0591 34.5343C82.0058 34.4009 81.9391 34.2943 81.8591 34.2143C81.8325 34.1876 81.7991 34.1609 81.7591 34.1343C81.7325 34.1076 81.6925 34.1009 81.6391 34.1143C81.4925 34.1543 81.3525 34.2276 81.2191 34.3343C81.0991 34.4409 80.9791 34.5343 80.8591 34.6143C80.6858 34.7209 80.4991 34.8209 80.2991 34.9143C80.0991 34.9943 79.8858 35.0676 79.6591 35.1343C79.5258 35.1743 79.3791 35.2009 79.2191 35.2143C79.0725 35.2276 78.9258 35.2476 78.7791 35.2743C78.7125 35.2876 78.6525 35.2943 78.5991 35.2943C78.5591 35.2943 78.5125 35.2943 78.4591 35.2943C78.3125 35.3209 78.1725 35.3209 78.0391 35.2943H77.8591C77.7925 35.2809 77.7258 35.2743 77.6591 35.2743C77.5925 35.2743 77.5325 35.2609 77.4791 35.2343C77.4258 35.2209 77.3791 35.2143 77.3391 35.2143C77.3125 35.2276 77.2791 35.2276 77.2391 35.2143C77.1325 35.1876 77.0258 35.1609 76.9191 35.1343C76.8125 35.1209 76.7125 35.0943 76.6191 35.0543C76.2191 34.8809 75.8925 34.6876 75.6391 34.4743C75.3991 34.2476 75.1991 33.9343 75.0391 33.5343C74.9191 33.2409 74.8591 32.8876 74.8591 32.4743V32.0543C74.8725 31.9876 74.8791 31.9209 74.8791 31.8543C74.8925 31.7743 74.9058 31.6943 74.9191 31.6143C74.9725 31.4676 75.0258 31.3209 75.0791 31.1743C75.1325 31.0276 75.1991 30.8943 75.2791 30.7743C75.5191 30.3876 75.8458 30.1009 76.2591 29.9143C76.6725 29.7276 77.1258 29.5609 77.6191 29.4143C77.8058 29.3609 77.9991 29.3209 78.1991 29.2943C78.3991 29.2676 78.5991 29.2343 78.7991 29.1943C78.8925 29.1676 78.9791 29.1543 79.0591 29.1543C79.1525 29.1543 79.2525 29.1409 79.3591 29.1143C79.4525 29.0876 79.5458 29.0743 79.6391 29.0743C79.7325 29.0609 79.8325 29.0409 79.9391 29.0143C80.2725 28.9343 80.5858 28.8676 80.8791 28.8143C81.1725 28.7476 81.4058 28.5943 81.5791 28.3543C81.6591 28.2476 81.7258 28.1143 81.7791 27.9543C81.8325 27.7809 81.8325 27.5943 81.7791 27.3943C81.6991 27.0743 81.5791 26.8209 81.4191 26.6343C81.2725 26.4476 81.0591 26.3009 80.7791 26.1943C80.6191 26.1276 80.4258 26.0809 80.1991 26.0543C79.9858 26.0276 79.7591 26.0143 79.5191 26.0143C79.2791 26.0143 79.0458 26.0276 78.8191 26.0543C78.5925 26.0809 78.3991 26.1209 78.2391 26.1743C78.0125 26.2543 77.7925 26.3676 77.5791 26.5143C77.4725 26.5943 77.3725 26.7009 77.2791 26.8343C77.1991 26.9543 77.1258 27.0876 77.0591 27.2343C77.0191 27.3409 76.9791 27.4543 76.9391 27.5743C76.9125 27.6943 76.8525 27.7876 76.7591 27.8543C76.7058 27.8943 76.6125 27.9276 76.4791 27.9543C76.3591 27.9676 76.2325 27.9743 76.0991 27.9743C75.9658 27.9743 75.8325 27.9676 75.6991 27.9543C75.5791 27.9276 75.4925 27.8943 75.4391 27.8543C75.3858 27.8143 75.3458 27.7476 75.3191 27.6543C75.2925 27.5609 75.2925 27.4609 75.3191 27.3543C75.3591 27.1809 75.3991 27.0209 75.4391 26.8743C75.4925 26.7143 75.5525 26.5609 75.6191 26.4143C75.8725 25.9476 76.1925 25.5876 76.5791 25.3343C76.9658 25.0676 77.4458 24.8543 78.0191 24.6943C78.1525 24.6676 78.2858 24.6476 78.4191 24.6343C78.5658 24.6209 78.7125 24.6009 78.8591 24.5743C78.9125 24.5609 78.9991 24.5609 79.1191 24.5743C79.2391 24.5743 79.3125 24.5609 79.3391 24.5343C80.2725 24.5209 81.0858 24.6276 81.7791 24.8543C82.4725 25.0809 82.9591 25.5143 83.2391 26.1543C83.3591 26.4209 83.4258 26.7343 83.4391 27.0943C83.4658 27.4409 83.4791 27.8076 83.4791 28.1943V32.6143C83.4791 32.8009 83.4858 32.9809 83.4991 33.1543C83.5125 33.3276 83.5525 33.4676 83.6191 33.5743C83.6858 33.6676 83.7725 33.7343 83.8791 33.7743C83.9991 33.8276 84.1125 33.8676 84.2191 33.8943C84.3258 33.9076 84.4058 33.9676 84.4591 34.0743C84.4858 34.1143 84.4991 34.1543 84.4991 34.1943C84.4991 34.2343 84.5058 34.2876 84.5191 34.3543ZM81.6591 32.1343C81.7391 31.9476 81.7791 31.7343 81.7791 31.4943C81.7925 31.2409 81.7991 30.9809 81.7991 30.7143C81.7991 30.5676 81.7925 30.4343 81.7791 30.3143C81.7658 30.1943 81.7125 30.1009 81.6191 30.0343C81.5791 30.0076 81.4858 29.9943 81.3391 29.9943C81.3125 30.0209 81.2658 30.0343 81.1991 30.0343C81.1325 30.0343 81.0725 30.0476 81.0191 30.0743C80.9125 30.1009 80.7925 30.1276 80.6591 30.1543C80.5258 30.1809 80.3925 30.2076 80.2591 30.2343C80.2191 30.2343 80.1725 30.2409 80.1191 30.2543C80.0791 30.2543 80.0325 30.2543 79.9791 30.2543C79.7791 30.3076 79.5591 30.3409 79.3191 30.3543C79.0925 30.3543 78.8791 30.3809 78.6791 30.4343C78.5725 30.4609 78.4725 30.4876 78.3791 30.5143C78.2991 30.5276 78.2058 30.5476 78.0991 30.5743C77.8858 30.6409 77.6858 30.7276 77.4991 30.8343C77.3125 30.9276 77.1525 31.0476 77.0191 31.1943C76.8858 31.3409 76.7858 31.5209 76.7191 31.7343C76.6525 31.9343 76.6258 32.1809 76.6391 32.4743C76.6391 32.6076 76.6591 32.7343 76.6991 32.8543C76.7525 32.9609 76.8125 33.0609 76.8791 33.1543C76.9858 33.3009 77.1258 33.4276 77.2991 33.5343C77.4725 33.6276 77.6591 33.7076 77.8591 33.7743C77.9258 33.7876 77.9925 33.7943 78.0591 33.7943C78.1258 33.7943 78.1925 33.8009 78.2591 33.8143C78.3525 33.8409 78.4658 33.8609 78.5991 33.8743C78.7458 33.8743 78.8658 33.8609 78.9591 33.8343C79.0391 33.8076 79.1191 33.8009 79.1991 33.8143C79.2791 33.8143 79.3591 33.8009 79.4391 33.7743C79.5458 33.7476 79.6458 33.7276 79.7391 33.7143C79.8458 33.7009 79.9458 33.6743 80.0391 33.6343C80.4258 33.4743 80.7525 33.2809 81.0191 33.0543C81.2991 32.8276 81.5125 32.5209 81.6591 32.1343ZM100.928 38.0343C100.928 38.1809 100.928 38.3276 100.928 38.4743C100.941 38.6209 100.914 38.7343 100.848 38.8143C100.821 38.8543 100.788 38.8876 100.748 38.9143C100.708 38.9409 100.668 38.9676 100.628 38.9943C100.588 39.0076 100.521 39.0143 100.428 39.0143C100.334 39.0276 100.234 39.0343 100.128 39.0343C100.034 39.0343 99.9411 39.0276 99.8477 39.0143C99.7544 39.0143 99.6877 39.0076 99.6477 38.9943C99.5144 38.9676 99.4211 38.9076 99.3677 38.8143C99.3011 38.7076 99.2677 38.5409 99.2677 38.3143C99.2677 38.1009 99.2677 37.9143 99.2677 37.7543V35.2943C99.2677 35.1476 99.2677 34.9876 99.2677 34.8143C99.2811 34.6276 99.2611 34.4743 99.2077 34.3543C99.1811 34.3276 99.1544 34.3076 99.1277 34.2943C99.1144 34.2676 99.0944 34.2409 99.0677 34.2143C98.9344 34.2143 98.8277 34.2476 98.7477 34.3143C98.6811 34.3809 98.6144 34.4476 98.5477 34.5143C98.4411 34.5943 98.3277 34.6743 98.2077 34.7543C98.0877 34.8209 97.9544 34.8876 97.8077 34.9543C97.6077 35.0343 97.3744 35.1009 97.1077 35.1543C96.8544 35.2209 96.5811 35.2609 96.2877 35.2743C96.0077 35.3009 95.7211 35.3009 95.4277 35.2743C95.1477 35.2609 94.8877 35.2209 94.6477 35.1543C94.5811 35.1276 94.5144 35.1076 94.4477 35.0943C94.3811 35.0809 94.3144 35.0609 94.2477 35.0343C94.1277 34.9809 94.0077 34.9343 93.8877 34.8943C93.7677 34.8409 93.6544 34.7809 93.5477 34.7143C93.0811 34.4209 92.6877 34.0876 92.3677 33.7143C92.0611 33.3276 91.7944 32.8543 91.5677 32.2943C91.5144 32.1609 91.4677 32.0209 91.4277 31.8743C91.4011 31.7276 91.3677 31.5809 91.3277 31.4343C91.3144 31.4076 91.3077 31.3809 91.3077 31.3543C91.3077 31.3143 91.3011 31.2743 91.2877 31.2343C91.2611 31.1276 91.2411 31.0076 91.2277 30.8743C91.2277 30.7409 91.2144 30.6143 91.1877 30.4943V30.1543C91.1611 30.0876 91.1477 30.0009 91.1477 29.8943C91.1477 29.7876 91.1611 29.7009 91.1877 29.6343C91.1877 29.5676 91.1877 29.4943 91.1877 29.4143C91.1877 29.3343 91.1944 29.2543 91.2077 29.1743C91.2211 29.1209 91.2211 29.0676 91.2077 29.0143C91.2077 28.9609 91.2144 28.9009 91.2277 28.8343C91.2677 28.6876 91.2944 28.5476 91.3077 28.4143C91.3344 28.2676 91.3677 28.1276 91.4077 27.9943C91.4611 27.8209 91.5144 27.6609 91.5677 27.5143C91.6211 27.3543 91.6811 27.2009 91.7477 27.0543C91.8411 26.8676 91.9411 26.6943 92.0477 26.5343C92.1677 26.3609 92.2877 26.1943 92.4077 26.0343C92.4211 26.0343 92.4411 26.0209 92.4677 25.9943C92.5344 25.8876 92.6344 25.7809 92.7677 25.6743C92.7811 25.6609 92.7877 25.6476 92.7877 25.6343C92.8011 25.6209 92.8211 25.6076 92.8477 25.5943C92.9011 25.5543 92.9477 25.5143 92.9877 25.4743C93.0411 25.4209 93.1011 25.3743 93.1677 25.3343C93.3544 25.1876 93.5611 25.0676 93.7877 24.9743C94.0144 24.8809 94.2544 24.7943 94.5077 24.7143C94.6411 24.6609 94.7811 24.6276 94.9277 24.6143C95.0744 24.6009 95.2211 24.5809 95.3677 24.5543C95.4211 24.5409 95.4944 24.5409 95.5877 24.5543C95.6944 24.5676 95.7611 24.5609 95.7877 24.5343C96.2277 24.5343 96.6544 24.5876 97.0677 24.6943C97.4811 24.8009 97.8211 24.9343 98.0877 25.0943C98.1677 25.1476 98.2477 25.2009 98.3277 25.2543C98.4077 25.3076 98.4877 25.3676 98.5677 25.4343C98.6344 25.4876 98.7011 25.5409 98.7677 25.5943C98.8344 25.6476 98.9344 25.6743 99.0677 25.6743C99.0944 25.6476 99.1211 25.6276 99.1477 25.6143C99.1744 25.5876 99.1944 25.5543 99.2077 25.5143C99.2477 25.4209 99.2677 25.3209 99.2677 25.2143C99.2811 25.1076 99.3211 25.0209 99.3877 24.9543C99.4277 24.9009 99.5077 24.8609 99.6277 24.8343C99.7611 24.7943 99.9011 24.7743 100.048 24.7743C100.194 24.7609 100.334 24.7676 100.468 24.7943C100.601 24.8209 100.701 24.8543 100.768 24.8943C100.861 24.9609 100.908 25.0743 100.908 25.2343C100.921 25.3943 100.928 25.5543 100.928 25.7143V38.0343ZM99.3077 30.2143C99.3211 30.1476 99.3277 30.0543 99.3277 29.9343C99.3411 29.8143 99.3344 29.7209 99.3077 29.6543V29.3743C99.2811 29.2409 99.2544 29.1076 99.2277 28.9743C99.2144 28.8409 99.1944 28.7209 99.1677 28.6143C99.1411 28.5076 99.1144 28.4143 99.0877 28.3343C99.0744 28.2409 99.0477 28.1476 99.0077 28.0543C98.8611 27.6943 98.6277 27.3409 98.3077 26.9943C97.9877 26.6476 97.6811 26.4076 97.3877 26.2743C97.2811 26.2209 97.1677 26.1809 97.0477 26.1543C96.9411 26.1276 96.8277 26.0943 96.7077 26.0543C96.5744 26.0276 96.4277 26.0143 96.2677 26.0143C96.1211 26.0143 95.9677 26.0143 95.8077 26.0143C95.7411 26.0276 95.6744 26.0409 95.6077 26.0543C95.5544 26.0543 95.4944 26.0543 95.4277 26.0543C95.3211 26.0809 95.2144 26.1076 95.1077 26.1343C95.0011 26.1609 94.9011 26.2009 94.8077 26.2543C94.3811 26.4409 94.0344 26.7076 93.7677 27.0543C93.5144 27.4009 93.3144 27.8076 93.1677 28.2743C93.1144 28.4209 93.0744 28.5809 93.0477 28.7543C93.0344 28.9143 93.0077 29.0809 92.9677 29.2543C92.9677 29.3209 92.9677 29.3809 92.9677 29.4343C92.9677 29.4876 92.9611 29.5476 92.9477 29.6143C92.9344 29.6676 92.9277 29.7276 92.9277 29.7943C92.9411 29.8609 92.9477 29.9276 92.9477 29.9943C92.9477 30.1276 92.9477 30.2609 92.9477 30.3943C92.9477 30.5143 92.9611 30.6276 92.9877 30.7343C93.0011 30.7743 93.0077 30.8343 93.0077 30.9143C93.0344 31.0076 93.0544 31.1009 93.0677 31.1943C93.0944 31.2876 93.1211 31.3809 93.1477 31.4743C93.2677 31.8609 93.4277 32.2143 93.6277 32.5343C93.8277 32.8409 94.0811 33.1009 94.3877 33.3143C94.4277 33.3409 94.4677 33.3676 94.5077 33.3943C94.5611 33.4209 94.6077 33.4476 94.6477 33.4743C94.7811 33.5543 94.9211 33.6209 95.0677 33.6743C95.2277 33.7143 95.3877 33.7543 95.5477 33.7943C95.6144 33.8209 95.6677 33.8343 95.7077 33.8343C95.7477 33.8209 95.8011 33.8209 95.8677 33.8343C95.9211 33.8476 95.9877 33.8609 96.0677 33.8743C96.1477 33.8743 96.2211 33.8609 96.2877 33.8343H96.4477C96.4877 33.8209 96.5277 33.8209 96.5677 33.8343C96.6077 33.8343 96.6477 33.8276 96.6877 33.8143C96.7944 33.7876 96.9011 33.7676 97.0077 33.7543C97.1144 33.7276 97.2144 33.6943 97.3077 33.6543C97.7211 33.4809 98.0611 33.2476 98.3277 32.9543C98.5944 32.6476 98.8144 32.2943 98.9877 31.8943C99.0544 31.7476 99.1011 31.6009 99.1277 31.4543C99.1544 31.3076 99.1877 31.1543 99.2277 30.9943C99.2544 30.9409 99.2677 30.8876 99.2677 30.8343C99.2677 30.7809 99.2744 30.7276 99.2877 30.6743C99.3011 30.6076 99.3011 30.5343 99.2877 30.4543C99.2877 30.3743 99.2944 30.2943 99.3077 30.2143ZM104.123 24.7943C104.31 24.7943 104.503 24.7943 104.703 24.7943C104.903 24.7943 105.043 24.8476 105.123 24.9543C105.19 25.0609 105.223 25.1943 105.223 25.3543C105.237 25.5143 105.243 25.6743 105.243 25.8343V27.7343V30.7543C105.243 31.0476 105.243 31.3543 105.243 31.6743C105.243 31.9809 105.277 32.2476 105.343 32.4743C105.557 33.0743 105.957 33.4943 106.543 33.7343C106.837 33.8543 107.19 33.9009 107.603 33.8743C108.017 33.8343 108.35 33.7609 108.603 33.6543C109.043 33.4676 109.39 33.2343 109.643 32.9543C109.91 32.6609 110.117 32.2809 110.263 31.8143C110.303 31.7076 110.33 31.6009 110.343 31.4943C110.357 31.3876 110.377 31.2743 110.403 31.1543C110.417 31.0876 110.417 31.0276 110.403 30.9743C110.403 30.9209 110.417 30.8609 110.443 30.7943V30.3743C110.47 30.2676 110.477 30.1476 110.463 30.0143C110.45 29.8676 110.443 29.7343 110.443 29.6143V28.0543V25.9343C110.443 25.7743 110.437 25.6076 110.423 25.4343C110.423 25.2476 110.457 25.1009 110.523 24.9943C110.577 24.9276 110.637 24.8876 110.703 24.8743C110.783 24.8476 110.877 24.8209 110.983 24.7943H111.283C111.443 24.7943 111.583 24.8009 111.703 24.8143C111.837 24.8276 111.937 24.8876 112.003 24.9943C112.07 25.0609 112.103 25.1609 112.103 25.2943C112.103 25.4143 112.103 25.5409 112.103 25.6743V27.0343V32.4143V34.2143C112.103 34.3743 112.097 34.5276 112.083 34.6743C112.083 34.8076 112.037 34.9076 111.943 34.9743C111.89 35.0143 111.81 35.0476 111.703 35.0743C111.597 35.0876 111.477 35.1009 111.343 35.1143C111.223 35.1143 111.103 35.1076 110.983 35.0943C110.877 35.0809 110.797 35.0543 110.743 35.0143C110.677 34.9609 110.617 34.8743 110.563 34.7543C110.55 34.7009 110.537 34.6276 110.523 34.5343C110.523 34.4409 110.517 34.3543 110.503 34.2743C110.49 34.1809 110.463 34.1076 110.423 34.0543C110.383 34.0009 110.323 33.9809 110.243 33.9943C110.137 34.0209 110.03 34.1009 109.923 34.2343C109.817 34.3543 109.717 34.4476 109.623 34.5143C109.33 34.7276 108.997 34.9143 108.623 35.0743C108.477 35.1409 108.323 35.1809 108.163 35.1943C108.017 35.2209 107.863 35.2543 107.703 35.2943C107.637 35.3076 107.563 35.3076 107.483 35.2943C107.417 35.2809 107.35 35.2876 107.283 35.3143C107.15 35.3409 107.03 35.3409 106.923 35.3143H106.723C106.657 35.2876 106.577 35.2743 106.483 35.2743C106.403 35.2743 106.33 35.2676 106.263 35.2543C106.21 35.2276 106.157 35.2143 106.103 35.2143C106.063 35.2276 106.01 35.2209 105.943 35.1943C105.837 35.1676 105.73 35.1409 105.623 35.1143C105.53 35.0876 105.43 35.0476 105.323 34.9943C104.977 34.8476 104.683 34.6543 104.443 34.4143C104.217 34.1609 104.03 33.8609 103.883 33.5143C103.83 33.3943 103.79 33.2743 103.763 33.1543C103.737 33.0209 103.71 32.8876 103.683 32.7543C103.657 32.6743 103.643 32.6009 103.643 32.5343C103.657 32.4543 103.65 32.3676 103.623 32.2743C103.61 32.2476 103.603 32.2143 103.603 32.1743C103.603 32.1209 103.597 32.0743 103.583 32.0343V31.8343C103.57 31.7809 103.563 31.7209 103.563 31.6543C103.577 31.5743 103.583 31.5009 103.583 31.4343V30.6343V26.9543V25.6743C103.583 25.5543 103.583 25.4343 103.583 25.3143C103.583 25.1943 103.61 25.0943 103.663 25.0143C103.717 24.9209 103.817 24.8543 103.963 24.8143C103.99 24.8009 104.017 24.8009 104.043 24.8143C104.07 24.8143 104.097 24.8076 104.123 24.7943ZM124.116 29.4943C124.143 29.5743 124.156 29.7009 124.156 29.8743C124.156 30.0343 124.15 30.1476 124.136 30.2143V30.4143C124.123 30.5209 124.11 30.6209 124.096 30.7143C124.096 30.7943 124.09 30.8876 124.076 30.9943C124.05 31.0743 124.03 31.1543 124.016 31.2343C124.016 31.3143 124.003 31.3943 123.976 31.4743C123.923 31.6476 123.876 31.8209 123.836 31.9943C123.796 32.1676 123.743 32.3276 123.676 32.4743C123.396 33.1143 123.023 33.6543 122.556 34.0943C122.09 34.5209 121.516 34.8476 120.836 35.0743C120.69 35.1276 120.53 35.1676 120.356 35.1943C120.196 35.2209 120.03 35.2476 119.856 35.2743C119.776 35.2876 119.69 35.2943 119.596 35.2943C119.516 35.3076 119.436 35.3143 119.356 35.3143C119.303 35.3276 119.223 35.3343 119.116 35.3343C119.023 35.3343 118.956 35.3276 118.916 35.3143C118.863 35.3009 118.81 35.2943 118.756 35.2943C118.703 35.3076 118.656 35.3076 118.616 35.2943H118.496L118.016 35.2343C117.83 35.1809 117.65 35.1276 117.476 35.0743C117.303 35.0209 117.136 34.9609 116.976 34.8943C116.376 34.6276 115.883 34.2809 115.496 33.8543C115.11 33.4276 114.79 32.9076 114.536 32.2943C114.47 32.1609 114.416 32.0276 114.376 31.8943C114.35 31.7609 114.323 31.6209 114.296 31.4743C114.27 31.4209 114.256 31.3809 114.256 31.3543C114.27 31.3143 114.27 31.2676 114.256 31.2143C114.23 31.1076 114.21 31.0009 114.196 30.8943C114.196 30.7743 114.183 30.6609 114.156 30.5543C114.156 30.4876 114.156 30.4343 114.156 30.3943C114.156 30.3409 114.15 30.2809 114.136 30.2143C114.123 30.1476 114.116 30.0343 114.116 29.8743C114.116 29.7009 114.13 29.5743 114.156 29.4943C114.183 29.4009 114.19 29.3076 114.176 29.2143C114.163 29.1209 114.17 29.0276 114.196 28.9343C114.21 28.8676 114.216 28.8143 114.216 28.7743C114.23 28.7209 114.243 28.6609 114.256 28.5943C114.296 28.4343 114.33 28.2743 114.356 28.1143C114.396 27.9543 114.45 27.8009 114.516 27.6543C114.716 27.1609 114.956 26.7209 115.236 26.3343C115.53 25.9343 115.883 25.6009 116.296 25.3343C116.456 25.2276 116.623 25.1409 116.796 25.0743C116.97 24.9943 117.15 24.9143 117.336 24.8343C117.496 24.7676 117.67 24.7276 117.856 24.7143C118.043 24.6876 118.23 24.6476 118.416 24.5943C118.51 24.5943 118.596 24.5943 118.676 24.5943C118.77 24.5809 118.856 24.5676 118.936 24.5543C120.123 24.5409 121.11 24.7876 121.896 25.2943C122.683 25.8009 123.25 26.4609 123.596 27.2743C123.663 27.4076 123.716 27.5409 123.756 27.6743C123.796 27.8076 123.843 27.9476 123.896 28.0943C123.936 28.2409 123.97 28.4009 123.996 28.5743C124.023 28.7343 124.056 28.9009 124.096 29.0743C124.11 29.1409 124.11 29.2143 124.096 29.2943C124.096 29.3609 124.103 29.4276 124.116 29.4943ZM122.336 30.6343C122.363 30.5409 122.37 30.4343 122.356 30.3143C122.356 30.1943 122.356 30.0809 122.356 29.9743C122.356 29.4543 122.31 29.0143 122.216 28.6543C122.176 28.5476 122.143 28.4409 122.116 28.3343C122.09 28.2276 122.056 28.1276 122.016 28.0343C121.643 27.1676 121.05 26.5676 120.236 26.2343C120.143 26.1943 120.043 26.1676 119.936 26.1543C119.83 26.1276 119.723 26.1009 119.616 26.0743C119.51 26.0476 119.396 26.0343 119.276 26.0343C119.156 26.0343 119.036 26.0343 118.916 26.0343L118.556 26.0943C118.423 26.1209 118.296 26.1543 118.176 26.1943C118.07 26.2209 117.963 26.2609 117.856 26.3143C117.763 26.3409 117.676 26.3809 117.596 26.4343C117.516 26.4876 117.443 26.5409 117.376 26.5943C117.056 26.8209 116.796 27.0943 116.596 27.4143C116.396 27.7343 116.223 28.1076 116.076 28.5343C116.036 28.6676 116.01 28.8076 115.996 28.9543C115.983 29.0876 115.963 29.2276 115.936 29.3743C115.923 29.4276 115.916 29.5143 115.916 29.6343C115.903 29.6743 115.896 29.7209 115.896 29.7743C115.91 29.8276 115.916 29.8876 115.916 29.9543C115.916 30.0876 115.916 30.2209 115.916 30.3543C115.916 30.4876 115.93 30.6076 115.956 30.7143L115.996 30.9543C116.023 31.0876 116.043 31.2209 116.056 31.3543C116.083 31.4743 116.123 31.5876 116.176 31.6943C116.31 32.0143 116.463 32.3143 116.636 32.5943C116.823 32.8743 117.05 33.1076 117.316 33.2943C117.383 33.3343 117.443 33.3676 117.496 33.3943C117.55 33.4209 117.61 33.4543 117.676 33.4943C117.783 33.5609 117.896 33.6209 118.016 33.6743C118.15 33.7143 118.29 33.7543 118.436 33.7943C118.503 33.8209 118.563 33.8343 118.616 33.8343C118.683 33.8209 118.75 33.8209 118.816 33.8343C118.856 33.8476 118.936 33.8609 119.056 33.8743C119.19 33.8876 119.29 33.8809 119.356 33.8543C119.41 33.8409 119.463 33.8409 119.516 33.8543C119.57 33.8543 119.623 33.8409 119.676 33.8143C119.783 33.7876 119.89 33.7676 119.996 33.7543C120.103 33.7276 120.203 33.6943 120.296 33.6543C120.75 33.4676 121.116 33.2076 121.396 32.8743C121.676 32.5409 121.91 32.1476 122.096 31.6943C122.163 31.5343 122.203 31.3676 122.216 31.1943C122.243 31.0076 122.283 30.8209 122.336 30.6343ZM127.361 21.6743C127.561 21.6743 127.761 21.6809 127.961 21.6943C128.161 21.6943 128.301 21.7476 128.381 21.8543C128.448 21.9343 128.481 22.0476 128.481 22.1943C128.494 22.3276 128.501 22.4676 128.501 22.6143V23.7743C128.501 23.8809 128.494 23.9943 128.481 24.1143C128.481 24.2209 128.494 24.3143 128.521 24.3943C128.574 24.5809 128.694 24.7009 128.881 24.7543C128.948 24.7676 129.008 24.7743 129.061 24.7743C129.128 24.7743 129.194 24.7743 129.261 24.7743C129.408 24.7743 129.588 24.7743 129.801 24.7743C130.014 24.7609 130.168 24.7743 130.261 24.8143C130.381 24.8943 130.461 24.9743 130.501 25.0543C130.528 25.1076 130.541 25.1676 130.541 25.2343C130.541 25.3009 130.541 25.3676 130.541 25.4343C130.541 25.5809 130.534 25.7209 130.521 25.8543C130.508 25.9743 130.461 26.0676 130.381 26.1343C130.301 26.2009 130.188 26.2409 130.041 26.2543C129.908 26.2543 129.761 26.2543 129.601 26.2543C129.454 26.2409 129.308 26.2343 129.161 26.2343C129.014 26.2343 128.888 26.2543 128.781 26.2943C128.688 26.3343 128.621 26.4009 128.581 26.4943C128.541 26.5876 128.514 26.7009 128.501 26.8343C128.488 26.9543 128.481 27.0876 128.481 27.2343C128.494 27.3676 128.501 27.5009 128.501 27.6343V31.5943C128.501 31.8876 128.494 32.2009 128.481 32.5343C128.481 32.8543 128.541 33.1009 128.661 33.2743C128.728 33.3809 128.814 33.4543 128.921 33.4943C129.028 33.5343 129.154 33.5676 129.301 33.5943C129.341 33.6076 129.381 33.6143 129.421 33.6143C129.474 33.6009 129.521 33.6009 129.561 33.6143H129.821C129.954 33.6143 130.074 33.6276 130.181 33.6543C130.301 33.6676 130.388 33.7143 130.441 33.7943C130.468 33.8343 130.488 33.9076 130.501 34.0143C130.528 34.1076 130.541 34.2076 130.541 34.3143C130.554 34.4209 130.554 34.5276 130.541 34.6343C130.528 34.7276 130.501 34.8009 130.461 34.8543C130.408 34.9476 130.308 35.0143 130.161 35.0543C130.054 35.0809 129.934 35.0943 129.801 35.0943C129.668 35.0809 129.548 35.0743 129.441 35.0743C129.361 35.0743 129.281 35.0809 129.201 35.0943C129.121 35.0943 129.048 35.0876 128.981 35.0743H128.741C128.674 35.0609 128.608 35.0543 128.541 35.0543C128.488 35.0409 128.428 35.0343 128.361 35.0343C128.094 34.9676 127.861 34.8943 127.661 34.8143C127.474 34.7343 127.314 34.5943 127.181 34.3943C126.994 34.1276 126.888 33.7943 126.861 33.3943C126.834 32.9809 126.821 32.5409 126.821 32.0743V26.8343C126.781 26.6609 126.741 26.5343 126.701 26.4543C126.674 26.3743 126.581 26.3076 126.421 26.2543C126.368 26.2409 126.314 26.2409 126.261 26.2543C126.208 26.2676 126.154 26.2609 126.101 26.2343H125.781C125.608 26.2343 125.461 26.2209 125.341 26.1943C125.234 26.1543 125.161 26.0743 125.121 25.9543C125.094 25.9009 125.074 25.8409 125.061 25.7743C125.061 25.7076 125.061 25.6409 125.061 25.5743C125.061 25.3876 125.074 25.2343 125.101 25.1143C125.128 24.9809 125.208 24.8809 125.341 24.8143C125.488 24.7609 125.674 24.7476 125.901 24.7743C126.141 24.8009 126.341 24.7876 126.501 24.7343C126.621 24.6676 126.714 24.5743 126.781 24.4543C126.808 24.3743 126.821 24.2743 126.821 24.1543C126.821 24.0343 126.821 23.9209 126.821 23.8143V22.5743C126.821 22.4676 126.821 22.3609 126.821 22.2543C126.821 22.1343 126.834 22.0343 126.861 21.9543C126.914 21.8476 127.014 21.7609 127.161 21.6943C127.201 21.6943 127.234 21.6943 127.261 21.6943C127.301 21.6809 127.334 21.6743 127.361 21.6743ZM141.409 29.5343C141.436 29.6676 141.436 29.8209 141.409 29.9943C141.396 30.1543 141.356 30.2676 141.289 30.3343C141.223 30.3876 141.123 30.4276 140.989 30.4543C140.869 30.4676 140.729 30.4743 140.569 30.4743C140.409 30.4743 140.249 30.4743 140.089 30.4743C139.929 30.4609 139.789 30.4543 139.669 30.4543H134.549C134.443 30.4543 134.336 30.4609 134.229 30.4743C134.123 30.4743 134.036 30.4943 133.969 30.5343C133.916 30.5609 133.863 30.6143 133.809 30.6943C133.783 30.7343 133.756 30.7943 133.729 30.8743C133.703 30.9409 133.703 31.0076 133.729 31.0743C133.743 31.1409 133.749 31.2009 133.749 31.2543C133.749 31.3076 133.756 31.3609 133.769 31.4143C133.796 31.5209 133.823 31.6343 133.849 31.7543C133.876 31.8609 133.916 31.9676 133.969 32.0743C134.276 32.7943 134.783 33.3076 135.489 33.6143C135.569 33.6543 135.656 33.6876 135.749 33.7143C135.843 33.7409 135.936 33.7676 136.029 33.7943C136.069 33.8076 136.136 33.8143 136.229 33.8143C136.416 33.8676 136.663 33.8943 136.969 33.8943C137.276 33.8943 137.523 33.8676 137.709 33.8143C137.896 33.7609 138.063 33.7076 138.209 33.6543C138.369 33.5876 138.516 33.5076 138.649 33.4143C138.796 33.3209 138.923 33.2143 139.029 33.0943C139.136 32.9609 139.229 32.8209 139.309 32.6743C139.389 32.5409 139.456 32.4009 139.509 32.2543C139.576 32.1076 139.683 32.0009 139.829 31.9343C139.883 31.9076 139.969 31.8876 140.089 31.8743C140.209 31.8609 140.329 31.8609 140.449 31.8743C140.569 31.8743 140.683 31.8809 140.789 31.8943C140.896 31.9076 140.969 31.9343 141.009 31.9743C141.143 32.0676 141.176 32.2209 141.109 32.4343C141.003 32.7943 140.863 33.1143 140.689 33.3943C140.423 33.8209 140.116 34.1743 139.769 34.4543C139.436 34.7209 139.009 34.9409 138.489 35.1143C138.356 35.1676 138.223 35.2009 138.089 35.2143C137.956 35.2409 137.816 35.2676 137.669 35.2943C137.603 35.3076 137.536 35.3143 137.469 35.3143C137.416 35.3143 137.356 35.3209 137.289 35.3343H137.089C137.023 35.3476 136.943 35.3543 136.849 35.3543C136.769 35.3543 136.703 35.3476 136.649 35.3343H136.469C136.403 35.3209 136.343 35.3143 136.289 35.3143C136.236 35.3143 136.183 35.3076 136.129 35.2943C136.063 35.2809 135.989 35.2676 135.909 35.2543C135.829 35.2543 135.756 35.2476 135.689 35.2343C135.569 35.2076 135.449 35.1743 135.329 35.1343C135.209 35.1076 135.096 35.0743 134.989 35.0343C134.936 35.0076 134.889 34.9943 134.849 34.9943C134.809 34.9809 134.763 34.9609 134.709 34.9343C134.509 34.8409 134.296 34.7276 134.069 34.5943C133.683 34.3409 133.349 34.0343 133.069 33.6743C132.803 33.3009 132.576 32.8876 132.389 32.4343C132.323 32.2876 132.269 32.1343 132.229 31.9743C132.203 31.8143 132.163 31.6543 132.109 31.4943C132.096 31.4409 132.089 31.3943 132.089 31.3543C132.089 31.3143 132.083 31.2609 132.069 31.1943C132.043 31.0876 132.023 30.9743 132.009 30.8543C131.996 30.7343 131.976 30.6143 131.949 30.4943V30.2143C131.936 30.1609 131.923 30.0876 131.909 29.9943C131.909 29.8876 131.916 29.8009 131.929 29.7343V29.5143C131.956 29.4476 131.963 29.3809 131.949 29.3143C131.949 29.2343 131.956 29.1609 131.969 29.0943C132.023 28.8809 132.063 28.6676 132.089 28.4543C132.129 28.2409 132.189 28.0409 132.269 27.8543C132.336 27.7076 132.396 27.5609 132.449 27.4143C132.516 27.2543 132.589 27.1009 132.669 26.9543C132.963 26.4876 133.296 26.0876 133.669 25.7543C134.043 25.4076 134.503 25.1209 135.049 24.8943C135.209 24.8276 135.369 24.7809 135.529 24.7543C135.703 24.7143 135.883 24.6743 136.069 24.6343C136.136 24.6209 136.196 24.6143 136.249 24.6143C136.303 24.6009 136.363 24.5943 136.429 24.5943C136.456 24.5809 136.489 24.5809 136.529 24.5943C136.569 24.6076 136.603 24.6009 136.629 24.5743C137.189 24.5609 137.676 24.6209 138.089 24.7543C138.503 24.8743 138.876 25.0409 139.209 25.2543C139.276 25.2809 139.329 25.3209 139.369 25.3743C139.409 25.4143 139.456 25.4476 139.509 25.4743C139.616 25.5543 139.723 25.6476 139.829 25.7543C139.949 25.8609 140.049 25.9676 140.129 26.0743C140.343 26.3543 140.523 26.6209 140.669 26.8743C140.763 27.0209 140.836 27.1809 140.889 27.3543C140.943 27.5276 141.003 27.7009 141.069 27.8743C141.136 28.0476 141.183 28.2276 141.209 28.4143C141.249 28.6009 141.296 28.7876 141.349 28.9743C141.363 29.0676 141.369 29.1609 141.369 29.2543C141.383 29.3476 141.396 29.4409 141.409 29.5343ZM139.469 28.8543C139.509 28.8009 139.543 28.7343 139.569 28.6543C139.596 28.5609 139.596 28.4676 139.569 28.3743C139.489 28.0809 139.376 27.8076 139.229 27.5543C139.043 27.2476 138.836 26.9876 138.609 26.7743C138.383 26.5609 138.089 26.3809 137.729 26.2343C137.636 26.2076 137.543 26.1876 137.449 26.1743C137.356 26.1476 137.256 26.1209 137.149 26.0943C137.043 26.0676 136.929 26.0543 136.809 26.0543C136.689 26.0543 136.576 26.0543 136.469 26.0543C136.429 26.0809 136.383 26.0943 136.329 26.0943C136.276 26.0809 136.229 26.0809 136.189 26.0943C136.083 26.1209 135.976 26.1476 135.869 26.1743C135.776 26.1876 135.683 26.2076 135.589 26.2343C135.203 26.3943 134.889 26.5943 134.649 26.8343C134.423 27.0743 134.216 27.3743 134.029 27.7343C133.989 27.8009 133.949 27.8876 133.909 27.9943C133.869 28.0876 133.836 28.1943 133.809 28.3143C133.783 28.4343 133.776 28.5476 133.789 28.6543C133.803 28.7609 133.849 28.8409 133.929 28.8943C134.036 28.9743 134.216 29.0143 134.469 29.0143C134.736 29.0009 134.963 28.9943 135.149 28.9943H138.189C138.389 28.9943 138.629 29.0009 138.909 29.0143C139.189 29.0143 139.376 28.9609 139.469 28.8543Z" fill="#FF6547"/>
</svg>
