<svg width="62" height="63" viewBox="0 0 62 63" fill="none" xmlns="http://www.w3.org/2000/svg">
<path d="M7.40781 34.7622C6.85552 34.7622 6.39198 35.2156 6.49818 35.7576C7.03531 38.4988 9.94037 39.1999 14.5053 39.1999C19.0845 39.1999 22.2139 38.5281 22.2139 35.2219C22.2139 32.0925 19.1906 31.8273 14.3108 31.5621C10.7041 31.3499 9.96152 31.1731 9.96152 30.2184C9.96152 29.299 10.7041 28.9985 13.8335 28.9985C16.2155 28.9985 17.588 29.1729 18.1692 29.7795C18.5513 30.1783 18.9488 30.6958 19.501 30.6958H20.6835C21.2358 30.6958 21.7017 30.2402 21.5701 29.7038C21.0003 27.3814 18.3116 26.4702 14.1871 26.4702C9.55488 26.4702 6.77909 27.3365 6.77909 30.0593C6.77909 32.8351 8.91839 33.6837 14.3108 33.9312C18.3242 34.1257 19.0314 34.3025 19.0314 35.328C19.0314 36.3004 18.0237 36.6717 14.6821 36.6717C11.7805 36.6717 10.4179 36.3602 9.88209 35.6977C9.53478 35.2683 9.14252 34.7622 8.59024 34.7622H7.40781Z" fill="#FF6547"/>
<path d="M37.6271 26.647C37.0748 26.647 36.6271 27.0947 36.6271 27.647V30.4914C36.6271 31.0437 36.1794 31.4914 35.6271 31.4914H27.5494C26.9971 31.4914 26.5494 31.0437 26.5494 30.4914V27.647C26.5494 27.0947 26.1017 26.647 25.5494 26.647H24.367C23.8147 26.647 23.367 27.0947 23.367 27.647V38.0231C23.367 38.5754 23.8147 39.0231 24.367 39.0231H25.5494C26.1017 39.0231 26.5494 38.5754 26.5494 38.0231V35.1788C26.5494 34.6265 26.9971 34.1788 27.5494 34.1788H35.6271C36.1794 34.1788 36.6271 34.6265 36.6271 35.1788V38.0231C36.6271 38.5754 37.0748 39.0231 37.6271 39.0231H38.8095C39.3618 39.0231 39.8095 38.5754 39.8095 38.0231V27.647C39.8095 27.0947 39.3618 26.647 38.8095 26.647L37.6271 26.647Z" fill="#FF6547"/>
<path d="M50.9439 26.647H42.2198C41.6675 26.647 41.2198 27.0947 41.2198 27.647V38.0231C41.2198 38.5754 41.6675 39.0231 42.2198 39.0231H43.4022C43.9545 39.0231 44.4022 38.5754 44.4022 38.0231V36.7169C44.4022 36.1647 44.8499 35.7169 45.4022 35.7169H50.9439C53.755 35.7169 55.6821 33.9489 55.6821 31.1908C55.6821 28.4327 53.755 26.647 50.9439 26.647ZM50.0599 33.0472H45.4022C44.8499 33.0472 44.4022 32.5995 44.4022 32.0472V30.3167C44.4022 29.7644 44.8499 29.3167 45.4022 29.3167H50.0599C51.0146 29.3167 52.4997 29.3167 52.4997 31.1908C52.4997 33.0472 51.0146 33.0472 50.0599 33.0472Z" fill="#FF6547"/>
<path d="M3.46344 24.1081C3.56577 23.8514 3.88732 23.7628 4.13228 23.6348C4.42122 23.4838 4.71626 23.033 5.09369 22.0949C5.59252 20.8995 5.60973 20.478 5.2571 20.3748C4.90447 20.2716 4.72387 20.4522 4.05302 21.8627C3.19295 23.7635 2.53929 24.4429 1.54162 23.9957C0.543947 23.5484 0.681556 22.4562 1.35241 20.7962C1.92183 19.3873 2.63378 18.5546 3.50928 18.6138C3.78471 18.6324 3.90732 18.9388 3.80183 19.1939L3.71208 19.411C3.60608 19.6673 3.27226 19.7565 3.03999 19.9082C2.7739 20.0819 2.52676 20.5373 2.21247 21.3037C1.72223 22.4992 1.73946 22.74 2.07488 22.869C2.41031 22.998 2.59092 22.7744 3.20156 21.5101C4.06163 19.79 4.56906 18.7493 5.69574 19.2137C6.82242 19.6782 6.659 20.9339 5.97955 22.5766C5.32071 24.1638 4.65537 25.0993 3.64879 24.9632C3.37805 24.9266 3.25696 24.6262 3.35811 24.3724L3.46344 24.1081Z" fill="#FF6547"/>
<path d="M9.53487 15.0358C9.34849 15.0032 9.15971 15.0787 9.04709 15.2307L7.69271 17.0591C7.58098 17.2099 7.56315 17.4106 7.64652 17.5788L7.88234 18.0544C7.96569 18.2225 7.9479 18.4232 7.83627 18.574L7.69905 18.7594C7.47599 19.0608 7.01287 19.0185 6.84806 18.6817L4.96122 14.8263C4.87897 14.6582 4.89744 14.4583 5.00909 14.3081L5.64393 13.4544C5.75518 13.3048 5.94044 13.2295 6.12453 13.2591L10.3387 13.9366C10.7144 13.997 10.8876 14.4383 10.6534 14.7381L10.4991 14.9356C10.3855 15.081 10.2009 15.1521 10.0191 15.1203L9.53487 15.0358ZM7.72814 15.4536C7.95161 15.1551 7.78148 14.7259 7.4142 14.6615L7.03657 14.5953C6.63177 14.5243 6.31898 14.9449 6.50342 15.3122L6.67494 15.6537C6.84167 15.9857 7.29939 16.0264 7.52202 15.729L7.72814 15.4536Z" fill="#FF6547"/>
<path d="M17.1888 8.69575C17.3544 8.91445 17.3129 9.22575 17.0957 9.39339L16.9083 9.53805C16.6877 9.70833 16.3705 9.66543 16.2031 9.44268L15.5894 8.62616C15.2846 8.22064 14.6394 8.47435 14.6924 8.97885L14.8784 10.7475C14.8966 10.9204 14.8236 11.0904 14.6857 11.1963L14.4265 11.3955C14.2874 11.5023 14.1025 11.5285 13.9393 11.4644L12.2677 10.8086C11.7972 10.624 11.3811 11.1745 11.6872 11.5768L12.3004 12.383C12.4674 12.6026 12.4251 12.9159 12.2058 13.0832L12.0194 13.2254C11.8 13.3929 11.4864 13.3509 11.3188 13.1315L9.00207 10.0993C8.83421 9.87962 8.87652 9.5654 9.09652 9.39792L9.80478 8.85874C9.9451 8.75192 10.1313 8.72691 10.2948 8.79294L12.9138 9.85038C13.2658 9.99248 13.6415 9.70604 13.5977 9.32902L13.2719 6.52584C13.2516 6.35097 13.3247 6.1783 13.4644 6.07122L14.1645 5.53484C14.3845 5.36622 14.6998 5.40886 14.8672 5.62989L17.1888 8.69575Z" fill="#FF6547"/>
<path d="M18.5361 4.54326C18.2849 4.64676 18.1659 4.93493 18.2709 5.18551C18.3749 5.43377 18.6598 5.55158 18.9088 5.44933L21.5849 4.35041C21.8237 4.25237 22.0964 4.36918 22.1902 4.60964C22.2817 4.84412 22.1684 5.10864 21.9355 5.20424L19.2346 6.31333C18.9926 6.4127 18.879 6.6911 18.9823 6.93145C19.0832 7.16611 19.3536 7.27659 19.59 7.17976L22.2764 6.07927C22.5285 5.976 22.8166 6.09721 22.919 6.34966C23.0209 6.60076 22.9006 6.88696 22.6499 6.98988L18.8531 8.54878C18.5974 8.65374 18.3051 8.5314 18.2004 8.27563L16.7558 4.7457C16.6513 4.49045 16.7732 4.19882 17.0283 4.09391L20.8161 2.53584C21.0677 2.43235 21.3556 2.55189 21.4599 2.80314C21.5646 3.05543 21.4446 3.3448 21.192 3.44887L18.5361 4.54326Z" fill="#FF6547"/>
<path d="M29.2342 2.00149C28.9707 2.01257 28.7629 2.22936 28.7629 2.49303C28.7629 2.77121 28.9933 2.99406 29.2714 2.98473L32.1632 2.88768C32.406 2.87952 32.6074 3.0742 32.6074 3.31721C32.6074 3.54897 32.4236 3.73899 32.192 3.74674L29.2242 3.84613C28.9621 3.8549 28.7543 4.06986 28.7543 4.33205C28.7543 4.60653 28.9813 4.8266 29.2557 4.81801L32.0932 4.72915C32.3698 4.72049 32.5987 4.94235 32.5987 5.21908C32.5987 5.48367 32.3888 5.70051 32.1243 5.709L28.0069 5.84115C27.7309 5.85001 27.5 5.63348 27.4911 5.3575L27.3684 1.54839C27.3595 1.2727 27.5756 1.0419 27.8513 1.03258L31.931 0.89477C32.2114 0.885296 32.4439 1.11009 32.4439 1.39071C32.4439 1.65666 32.2343 1.87533 31.9686 1.8865L29.2342 2.00149Z" fill="#FF6547"/>
<path d="M40.1516 2.12777C40.5144 2.20939 40.6643 2.64434 40.4289 2.93215L37.6944 6.27511C37.5758 6.42008 37.3861 6.48662 37.203 6.44751L36.1475 6.22213C35.9647 6.18309 35.819 6.04535 35.7697 5.86505L34.6379 1.72645C34.5393 1.36598 34.8566 1.02871 35.2224 1.10512L35.4772 1.15835C35.6634 1.19722 35.8113 1.33829 35.859 1.52234L36.6195 4.45625C36.7234 4.85726 37.2419 4.96518 37.4972 4.63893L39.3705 2.24499C39.4895 2.09286 39.6856 2.02291 39.874 2.06531L40.1516 2.12777Z" fill="#FF6547"/>
<path d="M43.8112 4.60759C43.573 4.49862 43.2913 4.59796 43.1742 4.83224C43.0531 5.07441 43.1532 5.36885 43.3969 5.487L45.9932 6.74625C46.2151 6.85387 46.3084 7.12055 46.2019 7.343C46.0946 7.56705 45.8256 7.66112 45.6021 7.55272L42.9963 6.28889C42.759 6.17381 42.4733 6.27224 42.3573 6.50906C42.2406 6.74723 42.3397 7.0349 42.5783 7.15064L45.1524 8.39905C45.3915 8.51506 45.4909 8.80338 45.3739 9.0421C45.258 9.27869 44.973 9.3776 44.7354 9.2637L41.0226 7.48376C40.7736 7.3644 40.6685 7.06582 40.7878 6.81682L42.437 3.37529C42.5564 3.12623 42.855 3.02111 43.1041 3.1405L46.8065 4.91543C47.0485 5.03147 47.1496 5.3226 47.0315 5.56366C46.9163 5.79878 46.6347 5.89934 46.3966 5.79041L43.8112 4.60759Z" fill="#FF6547"/>
<path d="M53.4391 9.86475C53.6482 10.0412 53.6766 10.3529 53.5029 10.5643L51.0793 13.5136C50.9044 13.7264 50.5904 13.7577 50.3769 13.5836L49.6281 12.9727C49.5183 12.8831 49.4517 12.7513 49.4447 12.6099L49.2786 9.24572C49.2561 8.78945 48.6839 8.59986 48.3933 8.9524L47.2357 10.3572C47.0604 10.5699 46.746 10.6007 46.5328 10.4259L46.3521 10.2778C46.1379 10.1022 46.1073 9.78594 46.2838 9.57249L48.7253 6.61942C48.9009 6.4071 49.2151 6.37678 49.428 6.55162L50.1704 7.16128C50.2794 7.2508 50.3455 7.38219 50.3525 7.52307L50.5186 10.8937C50.5411 11.3503 51.1141 11.5397 51.4044 11.1865L52.5571 9.7833C52.734 9.56793 53.0529 9.53882 53.2659 9.7186L53.4391 9.86475Z" fill="#FF6547"/>
<path d="M58.2766 16.7674C58.0541 16.927 57.7446 16.8779 57.5824 16.6573L56.7864 15.5745C56.6229 15.3521 56.3101 15.3043 56.0876 15.4677L53.8508 17.1105C53.6275 17.2746 53.3132 17.2256 53.1503 17.0014L53.0076 16.8049C52.8457 16.582 52.8945 16.2702 53.1169 16.1075L55.3558 14.4694C55.5786 14.3064 55.6271 13.9935 55.464 13.7706L54.6742 12.6914C54.5095 12.4662 54.5608 12.1499 54.7882 11.9884L54.8328 11.9568C55.0557 11.7985 55.3644 11.8486 55.5258 12.0693L58.4286 16.0374C58.5927 16.2617 58.5423 16.5769 58.3164 16.7389L58.2766 16.7674Z" fill="#FF6547"/>
<path d="M56.9346 19.8219C57.041 20.0791 56.867 20.3711 56.7887 20.6382C56.6978 20.9481 56.8121 21.4765 57.1967 22.4051C57.6956 23.6092 57.9794 23.9188 58.3234 23.7726C58.6674 23.6264 58.6502 23.3339 58.1256 21.8632C57.4203 19.8851 57.4031 18.9906 58.4008 18.5778C59.3985 18.165 60.1209 19.0422 60.8004 20.7108C61.3767 22.1261 61.4704 23.2072 60.8136 23.781C60.6056 23.9627 60.3019 23.8322 60.1964 23.5769L60.1044 23.3544C59.9993 23.1004 60.168 22.8055 60.2284 22.5374C60.2985 22.2256 60.1542 21.7278 59.8371 20.9602C59.3469 19.7733 59.149 19.6098 58.8222 19.7475C58.4954 19.8851 58.5212 20.1861 58.977 21.5106C59.6135 23.3081 59.9661 24.4348 58.8394 24.8993C57.7128 25.3637 56.9387 24.366 56.2593 22.7147C55.6116 21.1366 55.4408 20.0095 56.2206 19.3947C56.438 19.2233 56.7408 19.3533 56.8466 19.6092L56.9346 19.8219Z" fill="#FF6547"/>
<path d="M7.60451 47.7904C7.34824 47.9788 7.05459 48.1102 6.74331 48.1756C6.43203 48.2411 6.11032 48.2391 5.79986 48.1698C5.48941 48.1006 5.19739 47.9656 4.94345 47.7741C4.68951 47.5825 4.47954 47.3388 4.32767 47.0593L2.75835 44.5174C2.6133 44.2825 2.68614 43.9745 2.92105 43.8294L6.16361 41.8266C6.39879 41.6813 6.70723 41.7545 6.85214 41.9899L8.42158 44.5393C8.60365 44.7998 8.72761 45.0965 8.7851 45.4091C8.84258 45.7217 8.83223 46.043 8.75476 46.3513C8.67728 46.6595 8.53449 46.9475 8.33604 47.1958C8.13758 47.4441 7.88812 47.6469 7.60451 47.7904ZM6.95085 46.7325C7.94852 46.1218 7.81091 45.4768 7.29487 44.6855L6.61967 43.5891C6.47483 43.3539 6.16675 43.2807 5.93161 43.4256L4.45218 44.3373C4.21714 44.4821 4.14397 44.79 4.28874 45.0251L4.9641 46.1218C5.45434 46.9131 5.93597 47.3259 6.95085 46.7325Z" fill="#FF6547"/>
<path d="M7.85657 50.8766C7.6468 51.0577 7.32977 51.0336 7.14974 50.8229L6.99137 50.6376C6.81244 50.4282 6.83654 50.1135 7.04528 49.9338L9.93579 47.4455C10.1449 47.2655 10.4604 47.2889 10.6406 47.4979L10.7965 47.6786C10.9767 47.8877 10.9535 48.2033 10.7445 48.3837L7.85657 50.8766Z" fill="#FF6547"/>
<path d="M12.3329 50.7765C12.1246 50.595 11.8087 50.6168 11.6273 50.8252L11.4756 50.9995C11.2943 51.2078 11.3162 51.5237 11.5246 51.7049L13.3527 53.2954C13.5601 53.4758 13.5829 53.7898 13.4038 53.9984L13.3759 54.0309C13.1951 54.2414 12.8776 54.2645 12.6683 54.0824L10.8568 52.5064C10.6439 52.3212 10.3201 52.3487 10.1415 52.5671L9.82945 52.9488C9.65142 53.1666 9.32883 53.1947 9.11581 53.011L8.94642 52.8649C8.73703 52.6843 8.71395 52.3681 8.89491 52.159L11.3966 49.2688C11.5772 49.0601 11.8927 49.0373 12.1015 49.2176L15.1993 51.8937C15.4079 52.0738 15.4313 52.3887 15.2518 52.5978L15.2253 52.6287C15.0444 52.8393 14.7267 52.8623 14.5175 52.6799L12.3329 50.7765Z" fill="#FF6547"/>
<path d="M17.1942 54.3529C16.952 54.2198 16.6478 54.3084 16.5149 54.5507L16.4106 54.7409C16.278 54.9827 16.3662 55.2861 16.6076 55.4192L18.7431 56.5968C18.9849 56.7302 19.0729 57.0343 18.9395 57.2761L18.915 57.3207C18.7816 57.5625 18.4775 57.6504 18.2357 57.5171L16.102 56.3405C15.8598 56.207 15.5553 56.2953 15.4222 56.5377L15.1812 56.9767C15.0484 57.2186 14.7448 57.3071 14.5028 57.1746L14.2965 57.0616C14.054 56.9288 13.9653 56.6244 14.0985 56.3822L15.938 53.037C16.0712 52.7948 16.3758 52.7066 16.6178 52.8402L20.1984 54.8172C20.4395 54.9503 20.5276 55.2533 20.3954 55.4949L20.3761 55.5301C20.2434 55.7727 19.939 55.8615 19.6966 55.7283L17.1942 54.3529Z" fill="#FF6547"/>
<path d="M22.6938 56.7805C22.4348 56.703 22.1619 56.8496 22.0836 57.1084C22.0051 57.3676 22.1516 57.6415 22.4108 57.72L25.2026 58.566C25.4395 58.6378 25.5736 58.8877 25.5025 59.1247C25.4311 59.3627 25.18 59.4974 24.9422 59.4254L22.1521 58.5799C21.8944 58.5018 21.6226 58.6497 21.5483 58.9086C21.4754 59.1625 21.6202 59.4279 21.8732 59.5039L24.6344 60.3342C24.8952 60.4127 25.0431 60.6875 24.9648 60.9484C24.8864 61.2099 24.6104 61.3579 24.3492 61.2786L20.4241 60.088C20.16 60.0079 20.0108 59.729 20.0906 59.4648L21.1946 55.8121C21.2745 55.5476 21.5539 55.3981 21.8184 55.4783L25.7467 56.67C26.0059 56.7486 26.1523 57.0224 26.0739 57.2817C25.9955 57.5404 25.7226 57.6871 25.4636 57.6095L22.6938 56.7805Z" fill="#FF6547"/>
<path d="M31.8239 60.415C31.5743 60.6089 31.4201 60.9531 31.5672 61.2328L31.6469 61.3843C31.8294 61.7312 31.5599 62.1436 31.169 62.1158L30.8943 62.0963C30.719 62.0839 30.5631 61.9803 30.4836 61.8235L30.0599 60.9867C29.9806 60.8302 29.8252 60.7267 29.6503 60.7139L28.4355 60.6249C28.1601 60.6047 27.9205 60.8116 27.9003 61.087L27.8789 61.378C27.8587 61.6541 27.618 61.8612 27.3419 61.84L27.1082 61.822C26.8339 61.8009 26.6282 61.5622 26.6479 61.2878L26.9207 57.4755C26.9404 57.1998 27.1801 56.9924 27.4557 57.0125L30.732 57.2513C30.974 57.25 31.2135 57.2997 31.4349 57.3972C31.6563 57.4947 31.8546 57.6378 32.017 57.8172C32.1793 57.9966 32.302 58.2082 32.377 58.4382C32.452 58.6682 32.4776 58.9114 32.4522 59.152C32.4477 59.5001 32.3317 59.8375 32.1211 60.1146C32.035 60.2279 31.935 60.3287 31.8239 60.415ZM28.0143 59.5563L30.2074 59.7111C30.5859 59.7111 31.1621 59.7799 31.2137 59.066C31.2653 58.3522 30.6891 58.292 30.3536 58.2662L28.6405 58.139C28.369 58.1189 28.1313 58.3196 28.1057 58.5905L28.0143 59.5563Z" fill="#FF6547"/>
<path d="M35.1439 58.0528C34.8809 58.0949 34.7003 58.3401 34.738 58.6037C34.7764 58.8726 35.0268 59.0584 35.2952 59.0172L38.1884 58.5731C38.4253 58.5367 38.6467 58.6997 38.6822 58.9368C38.7178 59.1741 38.5535 59.3951 38.316 59.4295L35.4206 59.8478C35.1531 59.8864 34.9674 60.1341 35.0053 60.4017C35.0434 60.6707 35.293 60.8574 35.5618 60.818L38.396 60.4021C38.6659 60.3625 38.917 60.5489 38.9572 60.8188C38.9977 61.0901 38.8096 61.3426 38.538 61.3816L34.4851 61.9625C34.2119 62.0017 33.9587 61.8122 33.9193 61.5391L33.374 57.7632C33.3346 57.49 33.524 57.2365 33.7971 57.1969L37.8467 56.6095C38.1202 56.5699 38.3738 56.7601 38.4122 57.0337C38.45 57.3027 38.2655 57.5525 37.9973 57.5955L35.1439 58.0528Z" fill="#FF6547"/>
<path d="M44.3798 54.3909C44.6371 54.2891 44.928 54.4156 45.0291 54.6731L46.4259 58.2296C46.527 58.4871 46.3999 58.7777 46.1422 58.8782L45.249 59.2266C45.1182 59.2777 44.972 59.2714 44.8461 59.2093L41.8266 57.7203C41.4166 57.5181 40.9727 57.9266 41.1402 58.3519L41.8075 60.0462C41.9086 60.3029 41.7828 60.593 41.5262 60.6944L41.303 60.7827C41.0462 60.8843 40.7557 60.7584 40.6541 60.5016L39.2501 56.9506C39.1486 56.6938 39.2744 56.4034 39.5311 56.3018L40.4252 55.9481C40.5566 55.8961 40.7039 55.9022 40.8306 55.9648L43.858 57.4607C44.2677 57.6632 44.712 57.255 44.5448 56.8296L43.8758 55.1267C43.775 54.8701 43.9009 54.5803 44.1573 54.4789L44.3798 54.3909Z" fill="#FF6547"/>
<path d="M50.5968 50.855C50.7552 51.0813 50.7001 51.3932 50.4737 51.5515L49.3539 52.3344C49.126 52.4937 49.0719 52.8085 49.2335 53.0348L50.8432 55.2883C51.0034 55.5126 50.9519 55.8243 50.7279 55.9851L50.5371 56.1221C50.3112 56.2843 49.9964 56.231 49.8364 56.0036L48.2573 53.7576C48.0979 53.5308 47.7843 53.477 47.5584 53.6378L46.4693 54.4129C46.2431 54.5739 45.929 54.5197 45.7698 54.2923L45.741 54.2511C45.5836 54.0263 45.6369 53.7166 45.8603 53.5573L49.871 50.6976C50.0972 50.5363 50.4116 50.5904 50.5709 50.818L50.5968 50.855Z" fill="#FF6547"/>
<path d="M56.577 49.1226C56.7611 48.9146 57.0795 48.8966 57.2859 49.0824L57.3128 49.1065C57.5184 49.2916 57.5347 49.6083 57.3492 49.8135L54.6997 52.7444C54.5149 52.9488 54.1996 52.9652 53.9946 52.781L51.1753 50.247C50.9671 50.0599 50.9531 49.7383 51.1442 49.5337L51.3208 49.3448C51.507 49.1456 51.8185 49.1323 52.021 49.3149L54.0852 51.1765C54.2917 51.3627 54.6103 51.3448 54.7945 51.1366L56.577 49.1226Z" fill="#FF6547"/>
<path d="M54.4714 47.0977C54.0496 47.154 53.7547 46.6912 53.984 46.3327L54.0865 46.1723C54.1662 46.0478 54.2968 45.9649 54.4434 45.9458L56.468 45.6828C56.7763 45.6428 56.9737 45.3341 56.8807 45.0374L56.2686 43.0849C56.2244 42.9439 56.2449 42.7905 56.3245 42.666L56.4278 42.5045C56.6569 42.1462 57.2003 42.2194 57.3265 42.6256L58.2092 45.4671C58.244 45.5791 58.317 45.6753 58.4156 45.7389L59.1761 46.2295C59.4081 46.3792 59.4749 46.6886 59.3253 46.9206L59.1963 47.1208C59.0466 47.3529 58.7371 47.4198 58.505 47.27L57.7469 46.7809C57.647 46.7165 57.5275 46.6898 57.4097 46.7055L54.4714 47.0977Z" fill="#FF6547"/>
</svg>
