<svg width="239" height="73" viewBox="0 0 239 73" fill="none" xmlns="http://www.w3.org/2000/svg">
<path d="M0.700684 5.08106C0.700684 2.31963 2.93926 0.0810547 5.70068 0.0810547H233.099C235.86 0.0810547 238.099 2.31963 238.099 5.08105V18.0757C238.099 18.0791 238.097 18.0822 238.095 18.0843C226.097 27.0827 226.097 45.0794 238.095 54.0778C238.097 54.0799 238.099 54.083 238.099 54.0864V67.081C238.099 69.8425 235.86 72.081 233.099 72.081H5.70069C2.93926 72.081 0.700684 69.8425 0.700684 67.081V53.0862C0.700684 53.083 0.702244 53.0799 0.704869 53.0781C12.4242 44.7769 12.4242 27.3852 0.704869 19.084C0.702244 19.0822 0.700684 19.0791 0.700684 19.0759V5.08106Z" fill="#A5F0E8"/>
</svg>
