<svg width="241" height="75" viewBox="0 0 241 75" fill="none" xmlns="http://www.w3.org/2000/svg">
<path d="M1.93921 6.08105C1.93921 3.31963 4.17779 1.08105 6.93921 1.08105H234.338C237.099 1.08105 239.338 3.31963 239.338 6.08105V19.0757C239.338 19.0791 239.336 19.0822 239.333 19.0843V19.0843C227.335 28.0827 227.335 46.0794 239.333 55.0778V55.0778C239.336 55.0799 239.338 55.083 239.338 55.0864V68.081C239.338 70.8425 237.099 73.081 234.338 73.081H6.93921C4.17779 73.081 1.93921 70.8425 1.93921 68.081V54.0862C1.93921 54.083 1.94077 54.0799 1.94339 54.0781V54.0781C13.6627 45.7769 13.6627 28.3852 1.94339 20.084V20.084C1.94077 20.0822 1.93921 20.0791 1.93921 20.0759V6.08105Z" stroke="#A5F0E8" stroke-width="2"/>
</svg>
