<svg width="166" height="105" viewBox="0 0 166 105" fill="none" xmlns="http://www.w3.org/2000/svg">
<path fill-rule="evenodd" clip-rule="evenodd" d="M11.8713 45.7902C8.41185 49.3487 8.41185 55.0139 11.8713 58.5723L52.1388 99.9918C55.7391 103.695 61.6863 103.695 65.2866 99.9918L80.0603 84.7954C83.6606 81.0921 89.6079 81.0921 93.2081 84.7954L107.982 99.9917C111.582 103.695 117.529 103.695 121.13 99.9917L161.397 58.5723C164.857 55.0138 164.857 49.3486 161.397 45.7902L121.13 4.37071C117.529 0.667423 111.582 0.667422 107.982 4.37071L93.2081 19.5671C89.6078 23.2704 83.6606 23.2704 80.0603 19.5671L65.2866 4.37078C61.6863 0.667494 55.7391 0.667502 52.1388 4.37079L11.8713 45.7902Z" fill="#FF6547"/>
</svg>
