<svg width="208" height="94" viewBox="0 0 208 94" fill="none" xmlns="http://www.w3.org/2000/svg">
<path d="M46.8247 2.00048C46.8247 0.895911 45.9288 -0.00401466 44.8253 0.0435468C39.3732 0.278524 33.9988 1.4731 28.9475 3.57812C23.2798 5.94008 18.1299 9.40206 13.792 13.7664C9.45407 18.1307 6.01304 23.3119 3.66537 29.0142C1.31771 34.7165 0.109382 40.8281 0.109381 47.0002C0.109381 53.1723 1.31771 59.284 3.66537 64.9863C6.01304 70.6885 9.45406 75.8698 13.792 80.2341C18.1299 84.5984 23.2798 88.0604 28.9475 90.4224C33.9987 92.5274 39.3732 93.722 44.8253 93.9569C45.9288 94.0045 46.8247 93.1046 46.8247 92L46.8247 47.0002L46.8247 2.00048Z" fill="#FF6547"/>
<path d="M103.609 2.00048C103.609 0.895911 102.713 -0.00401466 101.61 0.0435468C96.1578 0.278524 90.7834 1.4731 85.7322 3.57812C80.0644 5.94008 74.9146 9.40206 70.5767 13.7664C66.2387 18.1307 62.7977 23.3119 60.45 29.0142C58.1024 34.7165 56.894 40.8281 56.894 47.0002C56.894 53.1723 58.1024 59.284 60.45 64.9863C62.7977 70.6885 66.2387 75.8698 70.5766 80.2341C74.9146 84.5984 80.0644 88.0604 85.7322 90.4224C90.7834 92.5274 96.1578 93.722 101.61 93.9569C102.713 94.0045 103.609 93.1046 103.609 92L103.609 47.0002L103.609 2.00048Z" fill="#FF6547"/>
<path d="M160.394 1.99999C160.394 0.895422 159.498 -0.00450294 158.395 0.0430586C152.943 0.278036 147.568 1.47261 142.517 3.57763C136.849 5.93959 131.699 9.40157 127.361 13.7659C123.023 18.1302 119.582 23.3114 117.235 29.0137C114.887 34.716 113.679 40.8277 113.679 46.9998C113.679 53.1718 114.887 59.2835 117.235 64.9858C119.582 70.6881 123.023 75.8693 127.361 80.2336C131.699 84.5979 136.849 88.0599 142.517 90.4219C147.568 92.5269 152.943 93.7215 158.395 93.9565C159.498 94.004 160.394 93.1041 160.394 91.9995L160.394 46.9998L160.394 1.99999Z" fill="#FF6547"/>
</svg>
