<svg width="206" height="93" viewBox="0 0 206 93" fill="none" xmlns="http://www.w3.org/2000/svg">
<path d="M46.7588 2.18162C46.7588 1.07706 45.8629 0.177107 44.7594 0.22492C39.3771 0.45815 34.0718 1.63158 29.085 3.69715C23.4817 6.01812 18.3905 9.41999 14.1019 13.7086C9.81333 17.9971 6.41145 23.0884 4.0905 28.6917C1.76954 34.295 0.574958 40.3005 0.574957 46.3655C0.574957 52.4304 1.76954 58.436 4.09049 64.0393C6.41145 69.6425 9.81332 74.7338 14.1019 79.0224C18.3905 83.311 23.4817 86.7128 29.085 89.0338C34.0717 91.0994 39.3771 92.2728 44.7594 92.506C45.8629 92.5538 46.7588 91.6539 46.7588 90.5493L46.7588 46.3655L46.7588 2.18162Z" fill="#FF6547"/>
<path d="M102.897 2.18162C102.897 1.07706 102.002 0.177107 100.898 0.22492C95.5158 0.45815 90.2104 1.63158 85.2237 3.69715C79.6204 6.01812 74.5291 9.41999 70.2406 13.7086C65.952 17.9971 62.5501 23.0884 60.2292 28.6917C57.9082 34.295 56.7136 40.3005 56.7136 46.3655C56.7136 52.4304 57.9082 58.436 60.2292 64.0393C62.5501 69.6425 65.952 74.7338 70.2406 79.0224C74.5291 83.311 79.6204 86.7128 85.2237 89.0338C90.2104 91.0994 95.5158 92.2728 100.898 92.506C102.002 92.5538 102.897 91.6539 102.897 90.5493L102.897 46.3655L102.897 2.18162Z" fill="#FF6547"/>
<path d="M159.036 2.18114C159.036 1.07657 158.14 0.176619 157.037 0.224432C151.654 0.457662 146.349 1.63109 141.362 3.69667C135.759 6.01763 130.668 9.4195 126.379 13.7081C122.091 17.9966 118.689 23.0879 116.368 28.6912C114.047 34.2945 112.852 40.3 112.852 46.365C112.852 52.4299 114.047 58.4355 116.368 64.0388C118.689 69.6421 122.091 74.7333 126.379 79.0219C130.668 83.3105 135.759 86.7123 141.362 89.0333C146.349 91.0989 151.654 92.2723 157.037 92.5055C158.14 92.5534 159.036 91.6534 159.036 90.5488L159.036 46.365L159.036 2.18114Z" fill="#FF6547"/>
</svg>
