<svg width="145" height="73" viewBox="0 0 145 73" fill="none" xmlns="http://www.w3.org/2000/svg">
<path d="M73.767 71.2341C72.9011 71.0445 72.3213 70.2557 72.3213 69.3693L72.3213 28.9059C72.3213 26.6514 68.8178 25.9886 67.8512 28.0254C60.814 42.8547 50.5212 54.9719 35.5433 63.3765C25.4178 69.125 14.0182 72.2283 2.39718 72.4153C1.30241 72.4329 0.421719 71.5384 0.421719 70.4435L0.421722 2.18115C0.421722 1.07658 1.31715 0.181146 2.42172 0.181146L143.01 0.181152C144.11 0.181152 145.006 1.07002 144.985 2.17005C144.601 22.5132 136.534 39.237 122.012 53.2017C108.619 66.1712 86.9955 74.1303 73.767 71.2341Z" fill="#9870FF"/>
</svg>
